<svg width="750" height="422" viewBox="0 0 750 422" fill="none" xmlns="http://www.w3.org/2000/svg">
<g filter="url(#filter0_d_1_433)">
<rect x="6" y="4" width="738" height="410" rx="20" fill="white"/>
</g>
<path d="M136.655 368.818H137.888V376.097C137.888 376.746 137.769 377.298 137.53 377.752C137.292 378.206 136.955 378.551 136.521 378.786C136.087 379.022 135.575 379.139 134.985 379.139C134.428 379.139 133.933 379.038 133.498 378.836C133.064 378.63 132.723 378.339 132.474 377.961C132.226 377.583 132.101 377.134 132.101 376.614H133.315C133.315 376.902 133.386 377.154 133.528 377.369C133.674 377.581 133.873 377.747 134.125 377.866C134.377 377.986 134.663 378.045 134.985 378.045C135.34 378.045 135.641 377.971 135.89 377.822C136.138 377.673 136.327 377.454 136.457 377.165C136.589 376.874 136.655 376.518 136.655 376.097V368.818ZM142.447 379.179C141.963 379.179 141.524 379.088 141.13 378.906C140.735 378.72 140.422 378.453 140.19 378.105C139.958 377.754 139.842 377.33 139.842 376.832C139.842 376.395 139.928 376.04 140.101 375.768C140.273 375.493 140.503 375.278 140.792 375.122C141.08 374.966 141.398 374.85 141.746 374.774C142.098 374.695 142.451 374.632 142.805 374.585C143.269 374.526 143.645 374.481 143.934 374.451C144.225 374.418 144.438 374.363 144.57 374.287C144.706 374.211 144.774 374.078 144.774 373.889V373.849C144.774 373.359 144.64 372.978 144.371 372.706C144.106 372.434 143.703 372.298 143.163 372.298C142.603 372.298 142.164 372.421 141.846 372.666C141.528 372.911 141.304 373.173 141.175 373.452L140.061 373.054C140.26 372.59 140.525 372.229 140.856 371.97C141.191 371.708 141.556 371.526 141.95 371.423C142.348 371.317 142.739 371.264 143.123 371.264C143.369 371.264 143.65 371.294 143.969 371.354C144.29 371.41 144.6 371.528 144.898 371.707C145.2 371.886 145.45 372.156 145.649 372.517C145.848 372.878 145.947 373.362 145.947 373.969V379H144.774V377.966H144.714C144.635 378.132 144.502 378.309 144.317 378.498C144.131 378.687 143.884 378.848 143.576 378.98C143.268 379.113 142.891 379.179 142.447 379.179ZM142.626 378.125C143.09 378.125 143.481 378.034 143.8 377.852C144.121 377.669 144.363 377.434 144.525 377.146C144.691 376.857 144.774 376.554 144.774 376.236V375.162C144.724 375.222 144.615 375.276 144.446 375.326C144.28 375.372 144.088 375.414 143.869 375.45C143.654 375.483 143.443 375.513 143.238 375.54C143.036 375.563 142.872 375.583 142.746 375.599C142.441 375.639 142.156 375.704 141.891 375.793C141.629 375.879 141.417 376.01 141.254 376.186C141.095 376.358 141.016 376.594 141.016 376.892C141.016 377.3 141.166 377.608 141.468 377.817C141.773 378.022 142.159 378.125 142.626 378.125ZM149.262 374.406V379H148.089V371.364H149.222V372.557H149.322C149.501 372.169 149.773 371.857 150.137 371.622C150.502 371.384 150.972 371.264 151.549 371.264C152.066 371.264 152.519 371.37 152.906 371.582C153.294 371.791 153.596 372.109 153.811 372.537C154.027 372.961 154.134 373.498 154.134 374.148V379H152.961V374.227C152.961 373.627 152.805 373.16 152.494 372.825C152.182 372.487 151.755 372.318 151.211 372.318C150.836 372.318 150.502 372.399 150.207 372.562C149.915 372.724 149.685 372.961 149.516 373.273C149.347 373.584 149.262 373.962 149.262 374.406Z" fill="#615E83"/>
<path d="M238.044 379V368.818H244.149V369.912H239.277V373.352H243.692V374.446H239.277V379H238.044ZM248.743 379.159C248.007 379.159 247.373 378.997 246.839 378.672C246.309 378.344 245.899 377.886 245.611 377.3C245.326 376.71 245.184 376.024 245.184 375.241C245.184 374.459 245.326 373.77 245.611 373.173C245.899 372.573 246.3 372.106 246.814 371.771C247.331 371.433 247.934 371.264 248.624 371.264C249.022 371.264 249.414 371.33 249.802 371.463C250.19 371.596 250.543 371.811 250.861 372.109C251.179 372.404 251.433 372.795 251.622 373.283C251.811 373.77 251.905 374.37 251.905 375.082V375.58H246.019V374.565H250.712C250.712 374.134 250.626 373.75 250.453 373.412C250.284 373.074 250.042 372.807 249.728 372.612C249.416 372.416 249.048 372.318 248.624 372.318C248.157 372.318 247.752 372.434 247.411 372.666C247.073 372.895 246.813 373.193 246.63 373.561C246.448 373.929 246.357 374.323 246.357 374.744V375.42C246.357 375.997 246.456 376.486 246.655 376.887C246.857 377.285 247.137 377.588 247.495 377.797C247.853 378.002 248.269 378.105 248.743 378.105C249.051 378.105 249.33 378.062 249.578 377.976C249.83 377.886 250.047 377.754 250.23 377.578C250.412 377.399 250.553 377.177 250.652 376.912L251.786 377.23C251.666 377.615 251.466 377.953 251.184 378.244C250.903 378.533 250.555 378.758 250.14 378.92C249.726 379.08 249.26 379.159 248.743 379.159ZM253.849 379V368.818H255.022V372.577H255.122C255.208 372.444 255.327 372.275 255.48 372.07C255.635 371.861 255.858 371.675 256.146 371.513C256.438 371.347 256.832 371.264 257.329 371.264C257.972 371.264 258.539 371.425 259.029 371.746C259.52 372.068 259.903 372.524 260.178 373.114C260.453 373.704 260.591 374.4 260.591 375.202C260.591 376.01 260.453 376.711 260.178 377.305C259.903 377.895 259.522 378.352 259.034 378.677C258.547 378.998 257.985 379.159 257.349 379.159C256.858 379.159 256.466 379.078 256.171 378.915C255.876 378.75 255.649 378.562 255.49 378.354C255.331 378.142 255.208 377.966 255.122 377.827H254.983V379H253.849ZM255.002 375.182C255.002 375.759 255.087 376.267 255.256 376.708C255.425 377.146 255.672 377.489 255.997 377.737C256.322 377.982 256.719 378.105 257.19 378.105C257.68 378.105 258.09 377.976 258.418 377.717C258.749 377.455 258.998 377.104 259.164 376.663C259.333 376.219 259.417 375.725 259.417 375.182C259.417 374.645 259.334 374.161 259.169 373.73C259.006 373.296 258.759 372.953 258.428 372.701C258.1 372.446 257.687 372.318 257.19 372.318C256.713 372.318 256.312 372.439 255.987 372.681C255.662 372.92 255.417 373.254 255.251 373.685C255.085 374.113 255.002 374.612 255.002 375.182Z" fill="#615E83"/>
<path d="M344.662 368.818H346.133L349.594 377.27H349.713L353.173 368.818H354.645V379H353.491V371.264H353.392L350.21 379H349.096L345.915 371.264H345.815V379H344.662V368.818ZM359.205 379.179C358.721 379.179 358.282 379.088 357.887 378.906C357.493 378.72 357.18 378.453 356.948 378.105C356.716 377.754 356.6 377.33 356.6 376.832C356.6 376.395 356.686 376.04 356.858 375.768C357.031 375.493 357.261 375.278 357.549 375.122C357.838 374.966 358.156 374.85 358.504 374.774C358.855 374.695 359.208 374.632 359.563 374.585C360.027 374.526 360.403 374.481 360.691 374.451C360.983 374.418 361.195 374.363 361.328 374.287C361.464 374.211 361.532 374.078 361.532 373.889V373.849C361.532 373.359 361.397 372.978 361.129 372.706C360.864 372.434 360.461 372.298 359.921 372.298C359.361 372.298 358.922 372.421 358.603 372.666C358.285 372.911 358.061 373.173 357.932 373.452L356.819 373.054C357.017 372.59 357.283 372.229 357.614 371.97C357.949 371.708 358.313 371.526 358.708 371.423C359.105 371.317 359.497 371.264 359.881 371.264C360.126 371.264 360.408 371.294 360.726 371.354C361.048 371.41 361.358 371.528 361.656 371.707C361.958 371.886 362.208 372.156 362.407 372.517C362.605 372.878 362.705 373.362 362.705 373.969V379H361.532V377.966H361.472C361.392 378.132 361.26 378.309 361.074 378.498C360.889 378.687 360.642 378.848 360.333 378.98C360.025 379.113 359.649 379.179 359.205 379.179ZM359.384 378.125C359.848 378.125 360.239 378.034 360.557 377.852C360.879 377.669 361.121 377.434 361.283 377.146C361.449 376.857 361.532 376.554 361.532 376.236V375.162C361.482 375.222 361.373 375.276 361.204 375.326C361.038 375.372 360.846 375.414 360.627 375.45C360.411 375.483 360.201 375.513 359.995 375.54C359.793 375.563 359.629 375.583 359.503 375.599C359.198 375.639 358.913 375.704 358.648 375.793C358.386 375.879 358.174 376.01 358.012 376.186C357.853 376.358 357.773 376.594 357.773 376.892C357.773 377.3 357.924 377.608 358.226 377.817C358.53 378.022 358.917 378.125 359.384 378.125ZM364.846 379V371.364H365.98V372.517H366.06C366.199 372.139 366.451 371.833 366.815 371.597C367.18 371.362 367.591 371.244 368.048 371.244C368.134 371.244 368.242 371.246 368.371 371.249C368.501 371.253 368.598 371.258 368.665 371.264V372.457C368.625 372.447 368.534 372.433 368.391 372.413C368.252 372.389 368.104 372.378 367.949 372.378C367.578 372.378 367.246 372.456 366.954 372.612C366.666 372.764 366.437 372.976 366.268 373.248C366.103 373.516 366.02 373.823 366.02 374.168V379H364.846Z" fill="#615E83"/>
<path d="M452.676 379H451.384L455.122 368.818H456.395L460.134 379H458.841L455.798 370.429H455.719L452.676 379ZM453.153 375.023H458.364V376.116H453.153V375.023ZM461.56 381.864V371.364H462.694V372.577H462.833C462.919 372.444 463.039 372.275 463.191 372.07C463.347 371.861 463.569 371.675 463.857 371.513C464.149 371.347 464.543 371.264 465.041 371.264C465.684 371.264 466.25 371.425 466.741 371.746C467.231 372.068 467.614 372.524 467.889 373.114C468.164 373.704 468.302 374.4 468.302 375.202C468.302 376.01 468.164 376.711 467.889 377.305C467.614 377.895 467.233 378.352 466.746 378.677C466.259 378.998 465.697 379.159 465.06 379.159C464.57 379.159 464.177 379.078 463.882 378.915C463.587 378.75 463.36 378.562 463.201 378.354C463.042 378.142 462.919 377.966 462.833 377.827H462.734V381.864H461.56ZM462.714 375.182C462.714 375.759 462.798 376.267 462.967 376.708C463.136 377.146 463.383 377.489 463.708 377.737C464.033 377.982 464.431 378.105 464.901 378.105C465.392 378.105 465.801 377.976 466.129 377.717C466.461 377.455 466.709 377.104 466.875 376.663C467.044 376.219 467.129 375.725 467.129 375.182C467.129 374.645 467.046 374.161 466.88 373.73C466.718 373.296 466.471 372.953 466.139 372.701C465.811 372.446 465.398 372.318 464.901 372.318C464.424 372.318 464.023 372.439 463.698 372.681C463.373 372.92 463.128 373.254 462.962 373.685C462.797 374.113 462.714 374.612 462.714 375.182ZM470.092 379V371.364H471.225V372.517H471.305C471.444 372.139 471.696 371.833 472.06 371.597C472.425 371.362 472.836 371.244 473.293 371.244C473.38 371.244 473.487 371.246 473.617 371.249C473.746 371.253 473.844 371.258 473.91 371.264V372.457C473.87 372.447 473.779 372.433 473.636 372.413C473.497 372.389 473.35 372.378 473.194 372.378C472.823 372.378 472.491 372.456 472.2 372.612C471.911 372.764 471.683 372.976 471.514 373.248C471.348 373.516 471.265 373.823 471.265 374.168V379H470.092Z" fill="#615E83"/>
<path d="M557.794 368.818H559.266L562.726 377.27H562.845L566.306 368.818H567.777V379H566.624V371.264H566.524L563.342 379H562.229L559.047 371.264H558.948V379H557.794V368.818ZM572.337 379.179C571.853 379.179 571.414 379.088 571.02 378.906C570.625 378.72 570.312 378.453 570.08 378.105C569.848 377.754 569.732 377.33 569.732 376.832C569.732 376.395 569.818 376.04 569.991 375.768C570.163 375.493 570.393 375.278 570.682 375.122C570.97 374.966 571.288 374.85 571.636 374.774C571.988 374.695 572.341 374.632 572.695 374.585C573.159 374.526 573.535 374.481 573.824 374.451C574.115 374.418 574.328 374.363 574.46 374.287C574.596 374.211 574.664 374.078 574.664 373.889V373.849C574.664 373.359 574.53 372.978 574.261 372.706C573.996 372.434 573.593 372.298 573.053 372.298C572.493 372.298 572.054 372.421 571.736 372.666C571.418 372.911 571.194 373.173 571.065 373.452L569.951 373.054C570.15 372.59 570.415 372.229 570.746 371.97C571.081 371.708 571.446 371.526 571.84 371.423C572.238 371.317 572.629 371.264 573.013 371.264C573.259 371.264 573.54 371.294 573.859 371.354C574.18 371.41 574.49 371.528 574.788 371.707C575.09 371.886 575.34 372.156 575.539 372.517C575.738 372.878 575.837 373.362 575.837 373.969V379H574.664V377.966H574.604C574.525 378.132 574.392 378.309 574.207 378.498C574.021 378.687 573.774 378.848 573.466 378.98C573.158 379.113 572.781 379.179 572.337 379.179ZM572.516 378.125C572.98 378.125 573.371 378.034 573.69 377.852C574.011 377.669 574.253 377.434 574.415 377.146C574.581 376.857 574.664 376.554 574.664 376.236V375.162C574.614 375.222 574.505 375.276 574.336 375.326C574.17 375.372 573.978 375.414 573.759 375.45C573.544 375.483 573.333 375.513 573.128 375.54C572.926 375.563 572.762 375.583 572.636 375.599C572.331 375.639 572.046 375.704 571.78 375.793C571.519 375.879 571.307 376.01 571.144 376.186C570.985 376.358 570.905 376.594 570.905 376.892C570.905 377.3 571.056 377.608 571.358 377.817C571.663 378.022 572.049 378.125 572.516 378.125ZM578.461 381.864C578.262 381.864 578.085 381.847 577.929 381.814C577.773 381.784 577.666 381.754 577.606 381.724L577.904 380.69C578.189 380.763 578.441 380.79 578.66 380.77C578.879 380.75 579.073 380.652 579.242 380.477C579.414 380.304 579.571 380.024 579.714 379.636L579.933 379.04L577.109 371.364H578.382L580.489 377.449H580.569L582.677 371.364H583.95L580.708 380.114C580.562 380.508 580.382 380.835 580.166 381.093C579.951 381.355 579.701 381.549 579.416 381.675C579.134 381.801 578.816 381.864 578.461 381.864Z" fill="#615E83"/>
<path d="M671.529 368.818H672.762V376.097C672.762 376.746 672.642 377.298 672.404 377.752C672.165 378.206 671.829 378.551 671.394 378.786C670.96 379.022 670.448 379.139 669.858 379.139C669.301 379.139 668.806 379.038 668.372 378.836C667.938 378.63 667.596 378.339 667.348 377.961C667.099 377.583 666.975 377.134 666.975 376.614H668.188C668.188 376.902 668.259 377.154 668.402 377.369C668.547 377.581 668.746 377.747 668.998 377.866C669.25 377.986 669.537 378.045 669.858 378.045C670.213 378.045 670.515 377.971 670.763 377.822C671.012 377.673 671.201 377.454 671.33 377.165C671.462 376.874 671.529 376.518 671.529 376.097V368.818ZM679.886 375.878V371.364H681.059V379H679.886V377.707H679.806C679.627 378.095 679.349 378.425 678.971 378.697C678.593 378.965 678.116 379.099 677.539 379.099C677.062 379.099 676.638 378.995 676.267 378.786C675.895 378.574 675.604 378.256 675.392 377.832C675.18 377.404 675.073 376.866 675.073 376.216V371.364H676.247V376.136C676.247 376.693 676.403 377.137 676.714 377.469C677.029 377.8 677.43 377.966 677.917 377.966C678.209 377.966 678.506 377.891 678.807 377.742C679.112 377.593 679.367 377.364 679.573 377.056C679.782 376.748 679.886 376.355 679.886 375.878ZM684.382 374.406V379H683.208V371.364H684.342V372.557H684.441C684.62 372.169 684.892 371.857 685.257 371.622C685.621 371.384 686.092 371.264 686.668 371.264C687.185 371.264 687.638 371.37 688.026 371.582C688.413 371.791 688.715 372.109 688.931 372.537C689.146 372.961 689.254 373.498 689.254 374.148V379H688.08V374.227C688.08 373.627 687.925 373.16 687.613 372.825C687.301 372.487 686.874 372.318 686.33 372.318C685.956 372.318 685.621 372.399 685.326 372.562C685.034 372.724 684.804 372.961 684.635 373.273C684.466 373.584 684.382 373.962 684.382 374.406Z" fill="#615E83"/>
<path d="M57.3059 344.086C56.4498 344.086 55.7207 343.853 55.1184 343.387C54.5161 342.918 54.0559 342.238 53.7377 341.347C53.4195 340.454 53.2605 339.374 53.2605 338.109C53.2605 336.851 53.4195 335.777 53.7377 334.887C54.0597 333.993 54.5218 333.311 55.1241 332.842C55.7302 332.368 56.4574 332.132 57.3059 332.132C58.1544 332.132 58.8798 332.368 59.482 332.842C60.0881 333.311 60.5502 333.993 60.8684 334.887C61.1904 335.777 61.3514 336.851 61.3514 338.109C61.3514 339.374 61.1923 340.454 60.8741 341.347C60.5559 342.238 60.0957 342.918 59.4934 343.387C58.8911 343.853 58.162 344.086 57.3059 344.086ZM57.3059 342.836C58.1544 342.836 58.8135 342.427 59.2832 341.609C59.7529 340.791 59.9877 339.624 59.9877 338.109C59.9877 337.101 59.8798 336.243 59.6639 335.535C59.4517 334.827 59.1449 334.287 58.7434 333.916C58.3457 333.544 57.8665 333.359 57.3059 333.359C56.465 333.359 55.8078 333.774 55.3343 334.603C54.8608 335.429 54.6241 336.597 54.6241 338.109C54.6241 339.116 54.7302 339.972 54.9423 340.677C55.1544 341.382 55.4593 341.918 55.857 342.285C56.2586 342.652 56.7415 342.836 57.3059 342.836Z" fill="#615E83"/>
<path d="M57.1468 279.196C56.4802 279.196 55.8798 279.063 55.3457 278.798C54.8116 278.533 54.3836 278.169 54.0616 277.707C53.7396 277.245 53.5635 276.718 53.5332 276.128H54.8968C54.9498 276.654 55.1885 277.09 55.6127 277.434C56.0408 277.775 56.5521 277.946 57.1468 277.946C57.6241 277.946 58.0483 277.834 58.4195 277.61C58.7945 277.387 59.0881 277.08 59.3002 276.69C59.5161 276.296 59.6241 275.851 59.6241 275.355C59.6241 274.847 59.5123 274.395 59.2889 273.997C59.0692 273.595 58.7661 273.279 58.3798 273.048C57.9934 272.817 57.5521 272.699 57.0559 272.696C56.6998 272.692 56.3343 272.747 55.9593 272.86C55.5843 272.97 55.2756 273.112 55.0332 273.287L53.715 273.128L54.4195 267.4H60.465V268.65H55.6014L55.1923 272.082H55.2605C55.4991 271.893 55.7983 271.735 56.1582 271.61C56.518 271.485 56.893 271.423 57.2832 271.423C57.9953 271.423 58.6298 271.593 59.1866 271.934C59.7472 272.271 60.1866 272.734 60.5048 273.321C60.8267 273.908 60.9877 274.578 60.9877 275.332C60.9877 276.074 60.8211 276.737 60.4877 277.321C60.1582 277.9 59.7036 278.359 59.1241 278.696C58.5445 279.029 57.8855 279.196 57.1468 279.196ZM67.0403 279.196C66.1842 279.196 65.4551 278.963 64.8528 278.497C64.2505 278.027 63.7903 277.347 63.4721 276.457C63.1539 275.563 62.9948 274.484 62.9948 273.218C62.9948 271.961 63.1539 270.887 63.4721 269.997C63.7941 269.103 64.2562 268.421 64.8585 267.951C65.4645 267.478 66.1918 267.241 67.0403 267.241C67.8888 267.241 68.6141 267.478 69.2164 267.951C69.8225 268.421 70.2846 269.103 70.6028 269.997C70.9248 270.887 71.0857 271.961 71.0857 273.218C71.0857 274.484 70.9266 275.563 70.6085 276.457C70.2903 277.347 69.8301 278.027 69.2278 278.497C68.6255 278.963 67.8963 279.196 67.0403 279.196ZM67.0403 277.946C67.8888 277.946 68.5479 277.537 69.0176 276.718C69.4873 275.9 69.7221 274.734 69.7221 273.218C69.7221 272.211 69.6141 271.353 69.3982 270.645C69.1861 269.936 68.8793 269.396 68.4778 269.025C68.0801 268.654 67.6009 268.468 67.0403 268.468C66.1994 268.468 65.5422 268.883 65.0687 269.713C64.5952 270.539 64.3585 271.707 64.3585 273.218C64.3585 274.226 64.4645 275.082 64.6766 275.787C64.8888 276.491 65.1937 277.027 65.5914 277.395C65.9929 277.762 66.4759 277.946 67.0403 277.946ZM74.5176 275.855L74.4948 274.196H74.7676L78.5857 270.309H80.2448L76.1766 274.423H76.063L74.5176 275.855ZM73.2676 279.037V267.4H74.6085V279.037H73.2676ZM78.813 279.037L75.4039 274.718L76.3585 273.787L80.5176 279.037H78.813Z" fill="#615E83"/>
<path d="M57.6014 207.4V219.037H56.1923V208.878H56.1241L53.2832 210.764V209.332L56.1923 207.4H57.6014ZM64.7434 219.196C63.8873 219.196 63.1582 218.963 62.5559 218.497C61.9536 218.027 61.4934 217.347 61.1752 216.457C60.857 215.563 60.698 214.484 60.698 213.218C60.698 211.961 60.857 210.887 61.1752 209.997C61.4972 209.103 61.9593 208.421 62.5616 207.951C63.1677 207.478 63.8949 207.241 64.7434 207.241C65.5919 207.241 66.3173 207.478 66.9195 207.951C67.5256 208.421 67.9877 209.103 68.3059 209.997C68.6279 210.887 68.7889 211.961 68.7889 213.218C68.7889 214.484 68.6298 215.563 68.3116 216.457C67.9934 217.347 67.5332 218.027 66.9309 218.497C66.3286 218.963 65.5995 219.196 64.7434 219.196ZM64.7434 217.946C65.5919 217.946 66.251 217.537 66.7207 216.718C67.1904 215.9 67.4252 214.734 67.4252 213.218C67.4252 212.211 67.3173 211.353 67.1014 210.645C66.8892 209.936 66.5824 209.396 66.1809 209.025C65.7832 208.654 65.304 208.468 64.7434 208.468C63.9025 208.468 63.2453 208.883 62.7718 209.713C62.2983 210.539 62.0616 211.707 62.0616 213.218C62.0616 214.226 62.1677 215.082 62.3798 215.787C62.5919 216.491 62.8968 217.027 63.2945 217.395C63.6961 217.762 64.179 217.946 64.7434 217.946ZM74.7434 219.196C73.8873 219.196 73.1582 218.963 72.5559 218.497C71.9536 218.027 71.4934 217.347 71.1752 216.457C70.857 215.563 70.698 214.484 70.698 213.218C70.698 211.961 70.857 210.887 71.1752 209.997C71.4972 209.103 71.9593 208.421 72.5616 207.951C73.1677 207.478 73.8949 207.241 74.7434 207.241C75.5919 207.241 76.3173 207.478 76.9195 207.951C77.5256 208.421 77.9877 209.103 78.3059 209.997C78.6279 210.887 78.7889 211.961 78.7889 213.218C78.7889 214.484 78.6298 215.563 78.3116 216.457C77.9934 217.347 77.5332 218.027 76.9309 218.497C76.3286 218.963 75.5995 219.196 74.7434 219.196ZM74.7434 217.946C75.5919 217.946 76.251 217.537 76.7207 216.718C77.1904 215.9 77.4252 214.734 77.4252 213.218C77.4252 212.211 77.3173 211.353 77.1014 210.645C76.8892 209.936 76.5824 209.396 76.1809 209.025C75.7832 208.654 75.304 208.468 74.7434 208.468C73.9025 208.468 73.2453 208.883 72.7718 209.713C72.2983 210.539 72.0616 211.707 72.0616 213.218C72.0616 214.226 72.1677 215.082 72.3798 215.787C72.5919 216.491 72.8968 217.027 73.2945 217.395C73.6961 217.762 74.179 217.946 74.7434 217.946ZM82.2207 215.855L82.198 214.196H82.4707L86.2889 210.309H87.948L83.8798 214.423H83.7661L82.2207 215.855ZM80.9707 219.037V207.4H82.3116V219.037H80.9707ZM86.5161 219.037L83.107 214.718L84.0616 213.787L88.2207 219.037H86.5161Z" fill="#615E83"/>
<path d="M57.1468 157.159C56.4802 157.159 55.8798 157.027 55.3457 156.761C54.8116 156.496 54.3836 156.133 54.0616 155.67C53.7396 155.208 53.5635 154.682 53.5332 154.091H54.8968C54.9498 154.617 55.1885 155.053 55.6127 155.398C56.0408 155.739 56.5521 155.909 57.1468 155.909C57.6241 155.909 58.0483 155.797 58.4195 155.574C58.7945 155.35 59.0881 155.044 59.3002 154.653C59.5161 154.259 59.6241 153.814 59.6241 153.318C59.6241 152.811 59.5123 152.358 59.2889 151.96C59.0692 151.559 58.7661 151.242 58.3798 151.011C57.9934 150.78 57.5521 150.663 57.0559 150.659C56.6998 150.655 56.3343 150.71 55.9593 150.824C55.5843 150.934 55.2756 151.076 55.0332 151.25L53.715 151.091L54.4195 145.364H60.465V146.614H55.6014L55.1923 150.045H55.2605C55.4991 149.856 55.7983 149.699 56.1582 149.574C56.518 149.449 56.893 149.386 57.2832 149.386C57.9953 149.386 58.6298 149.557 59.1866 149.898C59.7472 150.235 60.1866 150.697 60.5048 151.284C60.8267 151.871 60.9877 152.542 60.9877 153.295C60.9877 154.038 60.8211 154.701 60.4877 155.284C60.1582 155.864 59.7036 156.322 59.1241 156.659C58.5445 156.992 57.8855 157.159 57.1468 157.159ZM67.0403 157.159C66.1842 157.159 65.4551 156.926 64.8528 156.46C64.2505 155.991 63.7903 155.311 63.4721 154.42C63.1539 153.527 62.9948 152.447 62.9948 151.182C62.9948 149.924 63.1539 148.85 63.4721 147.96C63.7941 147.066 64.2562 146.384 64.8585 145.915C65.4645 145.441 66.1918 145.205 67.0403 145.205C67.8888 145.205 68.6141 145.441 69.2164 145.915C69.8225 146.384 70.2846 147.066 70.6028 147.96C70.9248 148.85 71.0857 149.924 71.0857 151.182C71.0857 152.447 70.9266 153.527 70.6085 154.42C70.2903 155.311 69.8301 155.991 69.2278 156.46C68.6255 156.926 67.8963 157.159 67.0403 157.159ZM67.0403 155.909C67.8888 155.909 68.5479 155.5 69.0176 154.682C69.4873 153.864 69.7221 152.697 69.7221 151.182C69.7221 150.174 69.6141 149.316 69.3982 148.608C69.1861 147.9 68.8793 147.36 68.4778 146.989C68.0801 146.617 67.6009 146.432 67.0403 146.432C66.1994 146.432 65.5422 146.847 65.0687 147.676C64.5952 148.502 64.3585 149.67 64.3585 151.182C64.3585 152.189 64.4645 153.045 64.6766 153.75C64.8888 154.455 65.1937 154.991 65.5914 155.358C65.9929 155.725 66.4759 155.909 67.0403 155.909ZM77.0403 157.159C76.1842 157.159 75.4551 156.926 74.8528 156.46C74.2505 155.991 73.7903 155.311 73.4721 154.42C73.1539 153.527 72.9948 152.447 72.9948 151.182C72.9948 149.924 73.1539 148.85 73.4721 147.96C73.7941 147.066 74.2562 146.384 74.8585 145.915C75.4645 145.441 76.1918 145.205 77.0403 145.205C77.8888 145.205 78.6141 145.441 79.2164 145.915C79.8225 146.384 80.2846 147.066 80.6028 147.96C80.9248 148.85 81.0857 149.924 81.0857 151.182C81.0857 152.447 80.9266 153.527 80.6085 154.42C80.2903 155.311 79.8301 155.991 79.2278 156.46C78.6255 156.926 77.8963 157.159 77.0403 157.159ZM77.0403 155.909C77.8888 155.909 78.5479 155.5 79.0176 154.682C79.4873 153.864 79.7221 152.697 79.7221 151.182C79.7221 150.174 79.6141 149.316 79.3982 148.608C79.1861 147.9 78.8793 147.36 78.4778 146.989C78.0801 146.617 77.6009 146.432 77.0403 146.432C76.1994 146.432 75.5422 146.847 75.0687 147.676C74.5952 148.502 74.3585 149.67 74.3585 151.182C74.3585 152.189 74.4645 153.045 74.6766 153.75C74.8888 154.455 75.1937 154.991 75.5914 155.358C75.9929 155.725 76.4759 155.909 77.0403 155.909ZM84.5176 153.818L84.4948 152.159H84.7676L88.5857 148.273H90.2448L86.1766 152.386H86.063L84.5176 153.818ZM83.2676 157V145.364H84.6085V157H83.2676ZM88.813 157L85.4039 152.682L86.3585 151.75L90.5176 157H88.813Z" fill="#615E83"/>
<path d="M136.503 221.505C142.928 216.246 164.606 209.936 199.911 226.763C244.044 247.796 302.379 279.345 351.077 242.888C399.774 206.431 467.241 125.103 688.409 256.91" stroke="#FFB1B7" stroke-width="3" stroke-linecap="round"/>
<path d="M134.986 257.417C153.502 237.541 210.234 207.755 289.029 247.615C387.523 297.44 434.939 273.201 497.946 250.758C560.952 228.314 616.163 252.104 644.743 264.673C673.323 277.241 675.856 279.037 694.725 279.037" stroke="#70B6C1" stroke-width="3" stroke-linecap="round"/>
<line x1="135.348" y1="150.5" x2="695.226" y2="150.5" stroke="#E5E5EF" stroke-linecap="round"/>
<line x1="135.348" y1="214.5" x2="695.226" y2="214.5" stroke="#E5E5EF" stroke-linecap="round"/>
<line x1="135.348" y1="278.5" x2="695.226" y2="278.5" stroke="#E5E5EF" stroke-linecap="round"/>
<line x1="135.348" y1="342.5" x2="695.226" y2="342.5" stroke="#E5E5EF" stroke-linecap="round"/>
<line x1="462.246" y1="151.5" x2="462.246" y2="342.5" stroke="#9291A5" stroke-linecap="round" stroke-dasharray="8 8"/>
<g filter="url(#filter1_d_1_433)">
<ellipse cx="462.626" cy="186.628" rx="13.6704" ry="9.44702" fill="#FFB1B7"/>
<path d="M462.625 178.181C466.223 178.181 469.437 179.191 471.724 180.771C474.015 182.354 475.296 184.442 475.296 186.629C475.296 188.816 474.015 190.903 471.724 192.486C469.437 194.066 466.223 195.076 462.625 195.076C459.028 195.076 455.814 194.066 453.528 192.486C451.237 190.903 449.956 188.816 449.955 186.629C449.955 184.442 451.237 182.354 453.528 180.771C455.814 179.191 459.028 178.181 462.625 178.181Z" stroke="white" stroke-width="2"/>
</g>
<line x1="53.8829" y1="109.5" x2="695.726" y2="109.5" stroke="#E5E5EF"/>
<rect x="539.357" y="73.9998" width="8" height="8" rx="4" fill="#70B6C1"/>
<path d="M557.033 73.9117V72.8179H564.67V73.9117H561.468V82.9998H560.235V73.9117H557.033ZM567.622 83.1787C567.138 83.1787 566.699 83.0876 566.304 82.9053C565.91 82.7197 565.596 82.4529 565.364 82.1049C565.132 81.7535 565.016 81.3293 565.016 80.8321C565.016 80.3946 565.103 80.04 565.275 79.7682C565.447 79.4931 565.678 79.2777 565.966 79.1219C566.254 78.9661 566.573 78.8501 566.921 78.7739C567.272 78.6944 567.625 78.6314 567.98 78.585C568.444 78.5253 568.82 78.4806 569.108 78.4507C569.4 78.4176 569.612 78.3629 569.744 78.2867C569.88 78.2105 569.948 78.0779 569.948 77.889V77.8492C569.948 77.3587 569.814 76.9775 569.546 76.7057C569.28 76.4339 568.878 76.2981 568.337 76.2981C567.777 76.2981 567.338 76.4207 567.02 76.6659C566.702 76.9112 566.478 77.1731 566.349 77.4515L565.235 77.0537C565.434 76.5897 565.699 76.2284 566.031 75.9699C566.365 75.7081 566.73 75.5258 567.124 75.4231C567.522 75.317 567.913 75.264 568.298 75.264C568.543 75.264 568.825 75.2938 569.143 75.3534C569.464 75.4098 569.774 75.5275 570.073 75.7064C570.374 75.8854 570.624 76.1555 570.823 76.5168C571.022 76.8781 571.122 77.362 571.122 77.9685V82.9998H569.948V81.9657H569.889C569.809 82.1314 569.676 82.3087 569.491 82.4976C569.305 82.6865 569.058 82.8473 568.75 82.9799C568.442 83.1124 568.066 83.1787 567.622 83.1787ZM567.801 82.1248C568.265 82.1248 568.656 82.0336 568.974 81.8513C569.295 81.669 569.537 81.4337 569.7 81.1454C569.865 80.857 569.948 80.5537 569.948 80.2356V79.1617C569.899 79.2213 569.789 79.276 569.62 79.3257C569.454 79.3722 569.262 79.4136 569.043 79.45C568.828 79.4832 568.618 79.513 568.412 79.5395C568.21 79.5627 568.046 79.5826 567.92 79.5992C567.615 79.639 567.33 79.7036 567.065 79.7931C566.803 79.8793 566.591 80.0102 566.428 80.1858C566.269 80.3582 566.19 80.5935 566.19 80.8918C566.19 81.2995 566.341 81.6077 566.642 81.8165C566.947 82.022 567.333 82.1248 567.801 82.1248ZM573.263 82.9998V75.3634H574.397V76.5168H574.476C574.615 76.139 574.867 75.8324 575.232 75.5971C575.596 75.3617 576.007 75.2441 576.465 75.2441C576.551 75.2441 576.659 75.2457 576.788 75.249C576.917 75.2524 577.015 75.2573 577.081 75.264V76.4571C577.041 76.4472 576.95 76.4323 576.808 76.4124C576.669 76.3892 576.521 76.3776 576.365 76.3776C575.994 76.3776 575.663 76.4555 575.371 76.6113C575.083 76.7637 574.854 76.9758 574.685 77.2476C574.519 77.5161 574.436 77.8227 574.436 78.1674V82.9998H573.263ZM581.322 86.0225C580.755 86.0225 580.268 85.9496 579.86 85.8037C579.453 85.6612 579.113 85.4723 578.841 85.237C578.573 85.005 578.359 84.7564 578.2 84.4912L579.135 83.835C579.241 83.9742 579.375 84.1333 579.537 84.3123C579.7 84.4945 579.922 84.652 580.203 84.7846C580.488 84.9204 580.861 84.9884 581.322 84.9884C581.938 84.9884 582.447 84.8392 582.848 84.5409C583.249 84.2427 583.45 83.7753 583.45 83.139V81.5878H583.35C583.264 81.727 583.142 81.8994 582.983 82.1049C582.827 82.307 582.601 82.4877 582.306 82.6468C582.015 82.8025 581.62 82.8804 581.123 82.8804C580.507 82.8804 579.953 82.7346 579.463 82.4429C578.975 82.1513 578.589 81.727 578.304 81.1702C578.023 80.6134 577.882 79.9373 577.882 79.1418C577.882 78.3596 578.019 77.6785 578.294 77.0985C578.569 76.5151 578.952 76.0644 579.443 75.7462C579.933 75.4247 580.5 75.264 581.143 75.264C581.64 75.264 582.035 75.3468 582.326 75.5125C582.621 75.6749 582.847 75.8606 583.002 76.0694C583.162 76.2749 583.284 76.4439 583.37 76.5765H583.49V75.3634H584.623V83.2185C584.623 83.8748 584.474 84.4084 584.176 84.8194C583.881 85.2337 583.483 85.5369 582.983 85.7292C582.485 85.9247 581.932 86.0225 581.322 86.0225ZM581.282 81.8265C581.753 81.8265 582.151 81.7187 582.475 81.5033C582.8 81.2879 583.047 80.978 583.216 80.5736C583.385 80.1693 583.47 79.6854 583.47 79.1219C583.47 78.5717 583.387 78.0862 583.221 77.6652C583.055 77.2443 582.81 76.9145 582.485 76.6759C582.161 76.4373 581.76 76.3179 581.282 76.3179C580.785 76.3179 580.371 76.4439 580.039 76.6958C579.711 76.9477 579.464 77.2857 579.299 77.71C579.136 78.1342 579.055 78.6049 579.055 79.1219C579.055 79.6522 579.138 80.1212 579.304 80.5289C579.473 80.9332 579.721 81.2514 580.049 81.4834C580.381 81.7121 580.792 81.8265 581.282 81.8265ZM589.973 83.1588C589.237 83.1588 588.602 82.9964 588.068 82.6716C587.538 82.3435 587.129 81.8861 586.84 81.2995C586.555 80.7095 586.413 80.0234 586.413 79.2412C586.413 78.459 586.555 77.7696 586.84 77.1731C587.129 76.5731 587.53 76.1058 588.044 75.7711C588.561 75.433 589.164 75.264 589.853 75.264C590.251 75.264 590.644 75.3302 591.032 75.4628C591.419 75.5954 591.772 75.8108 592.09 76.1091C592.409 76.4041 592.662 76.7952 592.851 77.2824C593.04 77.7696 593.135 78.3695 593.135 79.0821V79.5793H587.248V78.5651H591.941C591.941 78.1342 591.855 77.7498 591.683 77.4117C591.514 77.0736 591.272 76.8068 590.957 76.6113C590.645 76.4157 590.278 76.3179 589.853 76.3179C589.386 76.3179 588.982 76.4339 588.64 76.6659C588.302 76.8946 588.042 77.1929 587.86 77.5608C587.677 77.9287 587.586 78.3231 587.586 78.7441V79.4202C587.586 79.9969 587.686 80.4858 587.885 80.8868C588.087 81.2846 588.367 81.5878 588.725 81.7966C589.083 82.0021 589.499 82.1049 589.973 82.1049C590.281 82.1049 590.559 82.0618 590.808 81.9756C591.06 81.8861 591.277 81.7535 591.459 81.5779C591.641 81.3989 591.782 81.1768 591.882 80.9117L593.015 81.2299C592.896 81.6143 592.695 81.9524 592.414 82.2441C592.132 82.5324 591.784 82.7578 591.37 82.9202C590.955 83.0793 590.49 83.1588 589.973 83.1588ZM598.24 75.3634V76.3577H594.283V75.3634H598.24ZM595.436 73.5338H596.61V80.8123C596.61 81.1437 596.658 81.3923 596.754 81.558C596.853 81.7204 596.979 81.8298 597.132 81.8861C597.287 81.9391 597.452 81.9657 597.624 81.9657C597.753 81.9657 597.859 81.959 597.942 81.9458C598.025 81.9292 598.091 81.9159 598.141 81.906L598.38 82.96C598.3 82.9898 598.189 83.0196 598.046 83.0495C597.904 83.0826 597.723 83.0992 597.505 83.0992C597.173 83.0992 596.848 83.0279 596.53 82.8854C596.215 82.7429 595.953 82.5258 595.745 82.2341C595.539 81.9425 595.436 81.5746 595.436 81.1304V73.5338Z" fill="#615E83"/>
<rect x="405.906" y="73.7102" width="8" height="8" rx="4" fill="#FFB1B7"/>
<path d="M431.332 75.7102H430.099C430.026 75.3556 429.898 75.044 429.716 74.7755C429.537 74.5071 429.318 74.2817 429.06 74.0994C428.804 73.9138 428.521 73.7746 428.209 73.6818C427.898 73.589 427.573 73.5426 427.235 73.5426C426.619 73.5426 426.06 73.6984 425.56 74.0099C425.062 74.3215 424.666 74.7805 424.371 75.3871C424.08 75.9936 423.934 76.7377 423.934 77.6193C423.934 78.5009 424.08 79.245 424.371 79.8515C424.666 80.4581 425.062 80.9171 425.56 81.2287C426.06 81.5402 426.619 81.696 427.235 81.696C427.573 81.696 427.898 81.6496 428.209 81.5568C428.521 81.464 428.804 81.3264 429.06 81.1442C429.318 80.9585 429.537 80.7315 429.716 80.463C429.898 80.1913 430.026 79.8797 430.099 79.5284H431.332C431.239 80.0487 431.07 80.5144 430.825 80.9254C430.579 81.3364 430.274 81.6861 429.91 81.9744C429.545 82.2594 429.136 82.4765 428.682 82.6257C428.231 82.7748 427.749 82.8494 427.235 82.8494C426.367 82.8494 425.594 82.6373 424.918 82.213C424.242 81.7888 423.71 81.1856 423.322 80.4034C422.935 79.6212 422.741 78.6932 422.741 77.6193C422.741 76.5454 422.935 75.6174 423.322 74.8352C423.71 74.053 424.242 73.4498 424.918 73.0255C425.594 72.6013 426.367 72.3892 427.235 72.3892C427.749 72.3892 428.231 72.4638 428.682 72.6129C429.136 72.7621 429.545 72.9808 429.91 73.2692C430.274 73.5542 430.579 73.9022 430.825 74.3132C431.07 74.7209 431.239 75.1865 431.332 75.7102ZM435.412 82.8892C434.928 82.8892 434.489 82.798 434.095 82.6157C433.7 82.4301 433.387 82.1633 433.155 81.8153C432.923 81.464 432.807 81.0398 432.807 80.5426C432.807 80.1051 432.893 79.7505 433.065 79.4787C433.238 79.2036 433.468 78.9881 433.757 78.8324C434.045 78.6766 434.363 78.5606 434.711 78.4844C435.062 78.4048 435.415 78.3418 435.77 78.2954C436.234 78.2358 436.61 78.191 436.899 78.1612C437.19 78.1281 437.402 78.0734 437.535 77.9971C437.671 77.9209 437.739 77.7883 437.739 77.5994V77.5596C437.739 77.0691 437.605 76.688 437.336 76.4162C437.071 76.1444 436.668 76.0085 436.128 76.0085C435.568 76.0085 435.129 76.1311 434.811 76.3764C434.492 76.6217 434.269 76.8835 434.139 77.1619L433.026 76.7642C433.225 76.3002 433.49 75.9389 433.821 75.6804C434.156 75.4185 434.521 75.2362 434.915 75.1335C435.313 75.0274 435.704 74.9744 436.088 74.9744C436.333 74.9744 436.615 75.0042 436.933 75.0639C437.255 75.1202 437.565 75.2379 437.863 75.4169C438.165 75.5959 438.415 75.866 438.614 76.2273C438.813 76.5885 438.912 77.0724 438.912 77.679V82.7102H437.739V81.6761H437.679C437.6 81.8418 437.467 82.0192 437.281 82.2081C437.096 82.397 436.849 82.5577 436.541 82.6903C436.232 82.8229 435.856 82.8892 435.412 82.8892ZM435.591 81.8352C436.055 81.8352 436.446 81.7441 436.764 81.5618C437.086 81.3795 437.328 81.1442 437.49 80.8558C437.656 80.5674 437.739 80.2642 437.739 79.946V78.8721C437.689 78.9318 437.58 78.9865 437.411 79.0362C437.245 79.0826 437.053 79.124 436.834 79.1605C436.619 79.1936 436.408 79.2235 436.203 79.25C436 79.2732 435.836 79.2931 435.71 79.3096C435.405 79.3494 435.12 79.414 434.855 79.5035C434.593 79.5897 434.381 79.7206 434.219 79.8963C434.06 80.0686 433.98 80.304 433.98 80.6023C433.98 81.0099 434.131 81.3182 434.433 81.527C434.738 81.7325 435.124 81.8352 435.591 81.8352ZM441.054 82.7102V75.0738H442.187V76.267H442.287C442.446 75.8594 442.703 75.5428 443.057 75.3174C443.412 75.0888 443.838 74.9744 444.335 74.9744C444.839 74.9744 445.258 75.0888 445.593 75.3174C445.931 75.5428 446.194 75.8594 446.383 76.267H446.463C446.658 75.8726 446.952 75.5594 447.343 75.3274C447.734 75.0921 448.203 74.9744 448.75 74.9744C449.432 74.9744 449.991 75.1882 450.425 75.6157C450.859 76.04 451.076 76.7012 451.076 77.5994V82.7102H449.903V77.5994C449.903 77.036 449.749 76.6333 449.441 76.3913C449.132 76.1494 448.77 76.0284 448.352 76.0284C447.815 76.0284 447.399 76.1908 447.104 76.5156C446.809 76.8371 446.662 77.2448 446.662 77.7386V82.7102H445.468V77.4801C445.468 77.0459 445.328 76.6962 445.046 76.4311C444.764 76.1626 444.401 76.0284 443.957 76.0284C443.652 76.0284 443.367 76.1096 443.102 76.272C442.84 76.4344 442.628 76.6598 442.466 76.9481C442.306 77.2332 442.227 77.563 442.227 77.9375V82.7102H441.054ZM453.222 85.5738V75.0738H454.355V76.2869H454.494C454.58 76.1543 454.7 75.9853 454.852 75.7798C455.008 75.571 455.23 75.3854 455.518 75.223C455.81 75.0573 456.205 74.9744 456.702 74.9744C457.345 74.9744 457.911 75.1352 458.402 75.4567C458.892 75.7782 459.275 76.2339 459.55 76.8238C459.825 77.4138 459.963 78.1098 459.963 78.9119C459.963 79.7206 459.825 80.4216 459.55 81.0149C459.275 81.6049 458.894 82.0622 458.407 82.3871C457.92 82.7085 457.358 82.8693 456.722 82.8693C456.231 82.8693 455.838 82.7881 455.543 82.6257C455.248 82.46 455.021 82.2727 454.862 82.0639C454.703 81.8518 454.58 81.6761 454.494 81.5369H454.395V85.5738H453.222ZM454.375 78.892C454.375 79.4687 454.459 79.9775 454.629 80.4183C454.798 80.8558 455.044 81.1988 455.369 81.4474C455.694 81.6927 456.092 81.8153 456.562 81.8153C457.053 81.8153 457.462 81.6861 457.79 81.4275C458.122 81.1657 458.37 80.8144 458.536 80.3736C458.705 79.9294 458.79 79.4356 458.79 78.892C458.79 78.3551 458.707 77.8712 458.541 77.4403C458.379 77.0061 458.132 76.6631 457.8 76.4112C457.472 76.156 457.06 76.0284 456.562 76.0284C456.085 76.0284 455.684 76.1494 455.359 76.3913C455.035 76.6299 454.789 76.9647 454.624 77.3956C454.458 77.8231 454.375 78.3219 454.375 78.892ZM464 82.8892C463.516 82.8892 463.077 82.798 462.683 82.6157C462.288 82.4301 461.975 82.1633 461.743 81.8153C461.511 81.464 461.395 81.0398 461.395 80.5426C461.395 80.1051 461.481 79.7505 461.653 79.4787C461.826 79.2036 462.056 78.9881 462.344 78.8324C462.633 78.6766 462.951 78.5606 463.299 78.4844C463.65 78.4048 464.003 78.3418 464.358 78.2954C464.822 78.2358 465.198 78.191 465.486 78.1612C465.778 78.1281 465.99 78.0734 466.123 77.9971C466.259 77.9209 466.327 77.7883 466.327 77.5994V77.5596C466.327 77.0691 466.192 76.688 465.924 76.4162C465.659 76.1444 465.256 76.0085 464.716 76.0085C464.156 76.0085 463.717 76.1311 463.398 76.3764C463.08 76.6217 462.857 76.8835 462.727 77.1619L461.614 76.7642C461.812 76.3002 462.078 75.9389 462.409 75.6804C462.744 75.4185 463.108 75.2362 463.503 75.1335C463.901 75.0274 464.292 74.9744 464.676 74.9744C464.921 74.9744 465.203 75.0042 465.521 75.0639C465.843 75.1202 466.153 75.2379 466.451 75.4169C466.753 75.5959 467.003 75.866 467.202 76.2273C467.401 76.5885 467.5 77.0724 467.5 77.679V82.7102H466.327V81.6761H466.267C466.187 81.8418 466.055 82.0192 465.869 82.2081C465.684 82.397 465.437 82.5577 465.129 82.6903C464.82 82.8229 464.444 82.8892 464 82.8892ZM464.179 81.8352C464.643 81.8352 465.034 81.7441 465.352 81.5618C465.674 81.3795 465.916 81.1442 466.078 80.8558C466.244 80.5674 466.327 80.2642 466.327 79.946V78.8721C466.277 78.9318 466.168 78.9865 465.999 79.0362C465.833 79.0826 465.641 79.124 465.422 79.1605C465.206 79.1936 464.996 79.2235 464.79 79.25C464.588 79.2732 464.424 79.2931 464.298 79.3096C463.993 79.3494 463.708 79.414 463.443 79.5035C463.181 79.5897 462.969 79.7206 462.807 79.8963C462.648 80.0686 462.568 80.304 462.568 80.6023C462.568 81.0099 462.719 81.3182 463.021 81.527C463.325 81.7325 463.712 81.8352 464.179 81.8352ZM469.641 82.7102V75.0738H470.815V82.7102H469.641ZM470.238 73.8011C470.009 73.8011 469.812 73.7232 469.646 73.5674C469.484 73.4117 469.403 73.2244 469.403 73.0057C469.403 72.7869 469.484 72.5996 469.646 72.4439C469.812 72.2881 470.009 72.2102 470.238 72.2102C470.467 72.2102 470.662 72.2881 470.825 72.4439C470.99 72.5996 471.073 72.7869 471.073 73.0057C471.073 73.2244 470.99 73.4117 470.825 73.5674C470.662 73.7232 470.467 73.8011 470.238 73.8011ZM476.046 85.7329C475.479 85.7329 474.992 85.66 474.584 85.5142C474.177 85.3717 473.837 85.1827 473.565 84.9474C473.297 84.7154 473.083 84.4668 472.924 84.2017L473.859 83.5454C473.965 83.6846 474.099 83.8437 474.261 84.0227C474.424 84.205 474.646 84.3624 474.928 84.495C475.213 84.6309 475.585 84.6988 476.046 84.6988C476.663 84.6988 477.171 84.5497 477.572 84.2514C477.973 83.9531 478.174 83.4858 478.174 82.8494V81.2983H478.075C477.988 81.4375 477.866 81.6098 477.707 81.8153C477.551 82.0175 477.325 82.1981 477.031 82.3572C476.739 82.513 476.344 82.5909 475.847 82.5909C475.231 82.5909 474.677 82.4451 474.187 82.1534C473.7 81.8617 473.313 81.4375 473.028 80.8807C472.747 80.3238 472.606 79.6477 472.606 78.8523C472.606 78.0701 472.743 77.3889 473.018 76.8089C473.294 76.2256 473.676 75.7748 474.167 75.4567C474.657 75.1352 475.224 74.9744 475.867 74.9744C476.364 74.9744 476.759 75.0573 477.05 75.223C477.345 75.3854 477.571 75.571 477.727 75.7798C477.886 75.9853 478.008 76.1543 478.094 76.2869H478.214V75.0738H479.347V82.929C479.347 83.5852 479.198 84.1188 478.9 84.5298C478.605 84.9441 478.207 85.2474 477.707 85.4396C477.209 85.6352 476.656 85.7329 476.046 85.7329ZM476.006 81.5369C476.477 81.5369 476.875 81.4292 477.2 81.2138C477.524 80.9983 477.771 80.6884 477.94 80.2841C478.109 79.8797 478.194 79.3958 478.194 78.8324C478.194 78.2822 478.111 77.7966 477.945 77.3757C477.78 76.9548 477.534 76.625 477.209 76.3863C476.885 76.1477 476.484 76.0284 476.006 76.0284C475.509 76.0284 475.095 76.1543 474.763 76.4062C474.435 76.6581 474.188 76.9962 474.023 77.4204C473.86 77.8447 473.779 78.3153 473.779 78.8324C473.779 79.3627 473.862 79.8317 474.028 80.2393C474.197 80.6437 474.445 80.9619 474.773 81.1939C475.105 81.4226 475.516 81.5369 476.006 81.5369ZM482.668 78.1165V82.7102H481.495V75.0738H482.629V76.267H482.728C482.907 75.8792 483.179 75.5677 483.543 75.3324C483.908 75.0937 484.379 74.9744 484.955 74.9744C485.472 74.9744 485.925 75.0805 486.312 75.2926C486.7 75.5014 487.002 75.8196 487.217 76.2471C487.433 76.6714 487.54 77.2083 487.54 77.8579V82.7102H486.367V77.9375C486.367 77.3376 486.211 76.8702 485.9 76.5355C485.588 76.1974 485.161 76.0284 484.617 76.0284C484.243 76.0284 483.908 76.1096 483.613 76.272C483.321 76.4344 483.091 76.6714 482.922 76.9829C482.753 77.2945 482.668 77.6723 482.668 78.1165Z" fill="#615E83"/>
<path d="M69.3907 71.6016H65.9689C65.9064 71.1589 65.7788 70.7656 65.5861 70.4219C65.3934 70.0729 65.146 69.776 64.8439 69.5312C64.5418 69.2865 64.1928 69.099 63.797 68.9687C63.4064 68.8385 62.9819 68.7734 62.5236 68.7734C61.6954 68.7734 60.9741 68.9792 60.3595 69.3906C59.7449 69.7969 59.2684 70.3906 58.9298 71.1719C58.5913 71.9479 58.422 72.8906 58.422 74C58.422 75.1406 58.5913 76.099 58.9298 76.875C59.2736 77.651 59.7527 78.237 60.3673 78.6328C60.9819 79.0286 61.6928 79.2266 62.5001 79.2266C62.9532 79.2266 63.3725 79.1667 63.7579 79.0469C64.1486 78.9271 64.4949 78.7526 64.797 78.5234C65.0991 78.2891 65.3491 78.0052 65.547 77.6719C65.7501 77.3385 65.8907 76.9583 65.9689 76.5312L69.3907 76.5469C69.3022 77.2812 69.0809 77.9896 68.7267 78.6719C68.3777 79.349 67.9064 79.9557 67.3126 80.4922C66.7241 81.0234 66.021 81.4453 65.2032 81.7578C64.3907 82.0651 63.4715 82.2187 62.4454 82.2187C61.0184 82.2187 59.7423 81.8958 58.6173 81.25C57.4975 80.6042 56.6121 79.6693 55.9611 78.4453C55.3152 77.2214 54.9923 75.7396 54.9923 74C54.9923 72.2552 55.3204 70.7708 55.9767 69.5469C56.6329 68.3229 57.5236 67.3906 58.6486 66.75C59.7736 66.1042 61.0392 65.7812 62.4454 65.7812C63.3725 65.7812 64.2319 65.9115 65.0236 66.1719C65.8204 66.4323 66.5262 66.8125 67.1407 67.3125C67.7553 67.8073 68.2553 68.4141 68.6407 69.1328C69.0314 69.8516 69.2814 70.6745 69.3907 71.6016ZM75.1759 82.2266C74.4103 82.2266 73.728 82.0938 73.129 81.8281C72.5301 81.5573 72.0561 81.1589 71.7072 80.6328C71.3634 80.1016 71.1915 79.4401 71.1915 78.6484C71.1915 77.9818 71.3139 77.4219 71.5587 76.9687C71.8035 76.5156 72.1368 76.151 72.5587 75.875C72.9806 75.599 73.4598 75.3906 73.9962 75.25C74.5379 75.1094 75.1056 75.0104 75.6993 74.9531C76.3973 74.8802 76.9598 74.8125 77.3868 74.75C77.8139 74.6823 78.1238 74.5833 78.3165 74.4531C78.5092 74.3229 78.6056 74.1302 78.6056 73.875V73.8281C78.6056 73.3333 78.4493 72.9505 78.1368 72.6797C77.8295 72.4089 77.392 72.2734 76.8243 72.2734C76.2254 72.2734 75.7488 72.4062 75.3947 72.6719C75.0405 72.9323 74.8061 73.2604 74.6915 73.6562L71.6134 73.4062C71.7697 72.6771 72.0769 72.0469 72.5353 71.5156C72.9936 70.9792 73.5848 70.5677 74.3087 70.2812C75.0379 69.9896 75.8816 69.8438 76.84 69.8438C77.5066 69.8438 78.1447 69.9219 78.754 70.0781C79.3686 70.2344 79.9129 70.4766 80.3868 70.8047C80.866 71.1328 81.2436 71.5547 81.5197 72.0703C81.7957 72.5807 81.9337 73.1927 81.9337 73.9062V82H78.7775V80.3359H78.6837C78.491 80.7109 78.2332 81.0417 77.9103 81.3281C77.5874 81.6094 77.1993 81.8307 76.7462 81.9922C76.2931 82.1484 75.7697 82.2266 75.1759 82.2266ZM76.129 79.9297C76.6186 79.9297 77.0509 79.8333 77.4259 79.6406C77.8009 79.4427 78.0952 79.1771 78.3087 78.8438C78.5223 78.5104 78.629 78.1328 78.629 77.7109V76.4375C78.5249 76.5052 78.3816 76.5677 78.1993 76.625C78.0223 76.6771 77.8217 76.7266 77.5978 76.7734C77.3738 76.8151 77.1499 76.8542 76.9259 76.8906C76.7019 76.9219 76.4988 76.9505 76.3165 76.9766C75.9259 77.0339 75.5848 77.125 75.2931 77.25C75.0014 77.375 74.7749 77.5443 74.6134 77.7578C74.4519 77.9661 74.3712 78.2266 74.3712 78.5391C74.3712 78.9922 74.5353 79.3385 74.8634 79.5781C75.1967 79.8125 75.6186 79.9297 76.129 79.9297ZM84.5157 82V70H87.6876V72.1172H87.8282C88.0782 71.4141 88.4949 70.8594 89.0782 70.4531C89.6616 70.0469 90.3595 69.8438 91.172 69.8438C91.9949 69.8438 92.6954 70.0495 93.2736 70.4609C93.8517 70.8672 94.2371 71.4193 94.4298 72.1172H94.5548C94.7996 71.4297 95.2423 70.8802 95.8829 70.4687C96.5288 70.0521 97.2918 69.8438 98.172 69.8438C99.2918 69.8438 100.201 70.2005 100.899 70.9141C101.602 71.6224 101.953 72.6276 101.953 73.9297V82H98.6329V74.5859C98.6329 73.9193 98.4559 73.4193 98.1017 73.0859C97.7475 72.7526 97.3048 72.5859 96.7736 72.5859C96.1694 72.5859 95.698 72.7786 95.3595 73.1641C95.021 73.5443 94.8517 74.0469 94.8517 74.6719V82H91.6251V74.5156C91.6251 73.9271 91.4559 73.4583 91.1173 73.1094C90.784 72.7604 90.3439 72.5859 89.797 72.5859C89.4272 72.5859 89.0939 72.6797 88.797 72.8672C88.5053 73.0495 88.2736 73.3073 88.1017 73.6406C87.9298 73.9687 87.8439 74.3542 87.8439 74.7969V82H84.5157ZM104.582 86.5V70H107.863V72.0156H108.012C108.158 71.6927 108.369 71.3646 108.645 71.0312C108.926 70.6927 109.29 70.4115 109.738 70.1875C110.192 69.9583 110.754 69.8438 111.426 69.8438C112.301 69.8438 113.108 70.0729 113.848 70.5313C114.587 70.9844 115.179 71.6693 115.621 72.5859C116.064 73.4974 116.285 74.6406 116.285 76.0156C116.285 77.3542 116.069 78.4844 115.637 79.4062C115.21 80.3229 114.626 81.0182 113.887 81.4922C113.152 81.9609 112.33 82.1953 111.418 82.1953C110.772 82.1953 110.223 82.0885 109.77 81.875C109.322 81.6615 108.955 81.3932 108.668 81.0703C108.382 80.7422 108.163 80.4115 108.012 80.0781H107.91V86.5H104.582ZM107.84 76C107.84 76.7135 107.939 77.3359 108.137 77.8672C108.335 78.3984 108.621 78.8125 108.996 79.1094C109.371 79.401 109.827 79.5469 110.363 79.5469C110.905 79.5469 111.363 79.3984 111.738 79.1016C112.113 78.7995 112.397 78.3828 112.59 77.8516C112.788 77.3151 112.887 76.6979 112.887 76C112.887 75.3073 112.79 74.6979 112.598 74.1719C112.405 73.6458 112.121 73.2344 111.746 72.9375C111.371 72.6406 110.91 72.4922 110.363 72.4922C109.822 72.4922 109.363 72.6354 108.988 72.9219C108.619 73.2083 108.335 73.6146 108.137 74.1406C107.939 74.6667 107.84 75.2865 107.84 76ZM121.926 82.2266C121.16 82.2266 120.478 82.0938 119.879 81.8281C119.28 81.5573 118.806 81.1589 118.457 80.6328C118.113 80.1016 117.942 79.4401 117.942 78.6484C117.942 77.9818 118.064 77.4219 118.309 76.9687C118.554 76.5156 118.887 76.151 119.309 75.875C119.731 75.599 120.21 75.3906 120.746 75.25C121.288 75.1094 121.856 75.0104 122.449 74.9531C123.147 74.8802 123.71 74.8125 124.137 74.75C124.564 74.6823 124.874 74.5833 125.067 74.4531C125.259 74.3229 125.356 74.1302 125.356 73.875V73.8281C125.356 73.3333 125.199 72.9505 124.887 72.6797C124.58 72.4089 124.142 72.2734 123.574 72.2734C122.975 72.2734 122.499 72.4062 122.145 72.6719C121.79 72.9323 121.556 73.2604 121.442 73.6562L118.363 73.4062C118.52 72.6771 118.827 72.0469 119.285 71.5156C119.744 70.9792 120.335 70.5677 121.059 70.2812C121.788 69.9896 122.632 69.8438 123.59 69.8438C124.257 69.8438 124.895 69.9219 125.504 70.0781C126.119 70.2344 126.663 70.4766 127.137 70.8047C127.616 71.1328 127.994 71.5547 128.27 72.0703C128.546 72.5807 128.684 73.1927 128.684 73.9062V82H125.527V80.3359H125.434C125.241 80.7109 124.983 81.0417 124.66 81.3281C124.337 81.6094 123.949 81.8307 123.496 81.9922C123.043 82.1484 122.52 82.2266 121.926 82.2266ZM122.879 79.9297C123.369 79.9297 123.801 79.8333 124.176 79.6406C124.551 79.4427 124.845 79.1771 125.059 78.8438C125.272 78.5104 125.379 78.1328 125.379 77.7109V76.4375C125.275 76.5052 125.132 76.5677 124.949 76.625C124.772 76.6771 124.572 76.7266 124.348 76.7734C124.124 76.8151 123.9 76.8542 123.676 76.8906C123.452 76.9219 123.249 76.9505 123.067 76.9766C122.676 77.0339 122.335 77.125 122.043 77.25C121.751 77.375 121.525 77.5443 121.363 77.7578C121.202 77.9661 121.121 78.2266 121.121 78.5391C121.121 78.9922 121.285 79.3385 121.613 79.5781C121.947 79.8125 122.369 79.9297 122.879 79.9297ZM131.266 82V70H134.594V82H131.266ZM132.938 68.4531C132.443 68.4531 132.018 68.2891 131.664 67.9609C131.315 67.6276 131.141 67.2292 131.141 66.7656C131.141 66.3073 131.315 65.9141 131.664 65.5859C132.018 65.2526 132.443 65.0859 132.938 65.0859C133.432 65.0859 133.854 65.2526 134.203 65.5859C134.557 65.9141 134.734 66.3073 134.734 66.7656C134.734 67.2292 134.557 67.6276 134.203 67.9609C133.854 68.2891 133.432 68.4531 132.938 68.4531ZM142.666 86.75C141.588 86.75 140.664 86.6016 139.893 86.3047C139.127 86.013 138.518 85.6146 138.065 85.1094C137.611 84.6042 137.317 84.0365 137.182 83.4062L140.26 82.9922C140.354 83.2318 140.502 83.4557 140.705 83.6641C140.908 83.8724 141.177 84.0391 141.51 84.1641C141.848 84.2943 142.26 84.3594 142.744 84.3594C143.468 84.3594 144.065 84.1823 144.533 83.8281C145.007 83.4792 145.244 82.8932 145.244 82.0703V79.875H145.104C144.958 80.2083 144.739 80.5234 144.447 80.8203C144.156 81.1172 143.781 81.3594 143.322 81.5469C142.864 81.7344 142.317 81.8281 141.682 81.8281C140.781 81.8281 139.96 81.6198 139.221 81.2031C138.486 80.7812 137.901 80.138 137.463 79.2734C137.031 78.4036 136.815 77.3047 136.815 75.9766C136.815 74.6172 137.036 73.4818 137.479 72.5703C137.921 71.6589 138.51 70.9766 139.244 70.5234C139.984 70.0703 140.794 69.8438 141.674 69.8438C142.346 69.8438 142.908 69.9583 143.361 70.1875C143.815 70.4115 144.179 70.6927 144.455 71.0312C144.736 71.3646 144.953 71.6927 145.104 72.0156H145.229V70H148.533V82.1172C148.533 83.138 148.283 83.9922 147.783 84.6797C147.283 85.3672 146.591 85.8828 145.705 86.2266C144.825 86.5755 143.812 86.75 142.666 86.75ZM142.736 79.3281C143.273 79.3281 143.726 79.1953 144.096 78.9297C144.471 78.6589 144.757 78.2734 144.955 77.7734C145.158 77.2682 145.26 76.6641 145.26 75.9609C145.26 75.2578 145.161 74.6484 144.963 74.1328C144.765 73.612 144.479 73.2083 144.104 72.9219C143.729 72.6354 143.273 72.4922 142.736 72.4922C142.19 72.4922 141.729 72.6406 141.354 72.9375C140.979 73.2292 140.695 73.6354 140.502 74.1562C140.309 74.6771 140.213 75.2786 140.213 75.9609C140.213 76.6536 140.309 77.2526 140.502 77.7578C140.7 78.2578 140.984 78.6458 141.354 78.9219C141.729 79.1927 142.19 79.3281 142.736 79.3281ZM154.51 75.0625V82H151.182V70H154.354V72.1172H154.494C154.76 71.4193 155.205 70.8672 155.83 70.4609C156.455 70.0495 157.213 69.8438 158.104 69.8438C158.937 69.8438 159.664 70.026 160.283 70.3906C160.903 70.7552 161.385 71.276 161.729 71.9531C162.072 72.625 162.244 73.4271 162.244 74.3594V82H158.916V74.9531C158.921 74.2187 158.734 73.6458 158.354 73.2344C157.973 72.8177 157.45 72.6094 156.783 72.6094C156.335 72.6094 155.94 72.7057 155.596 72.8984C155.257 73.0911 154.992 73.3724 154.799 73.7422C154.611 74.1068 154.515 74.5469 154.51 75.0625Z" fill="#1E1B39"/>
<path d="M62.6273 43.1818C62.5505 42.5341 62.2395 42.0312 61.694 41.6733C61.1486 41.3153 60.4795 41.1364 59.6869 41.1364C59.1074 41.1364 58.6003 41.2301 58.1656 41.4176C57.7352 41.6051 57.3986 41.8629 57.1557 42.1911C56.917 42.5192 56.7977 42.892 56.7977 43.3097C56.7977 43.6591 56.8808 43.9595 57.047 44.2109C57.2175 44.4581 57.4348 44.6648 57.699 44.831C57.9632 44.9929 58.2402 45.1271 58.53 45.2337C58.8197 45.3359 59.0861 45.419 59.329 45.483L60.6585 45.8409C60.9994 45.9304 61.3787 46.054 61.7963 46.2116C62.2182 46.3693 62.6209 46.5845 63.0044 46.8572C63.3922 47.1257 63.7118 47.4709 63.9632 47.8928C64.2146 48.3146 64.3403 48.8324 64.3403 49.446C64.3403 50.1534 64.155 50.7926 63.7842 51.3636C63.4177 51.9347 62.8808 52.3885 62.1734 52.7251C61.4703 53.0618 60.6159 53.2301 59.6102 53.2301C58.6727 53.2301 57.8609 53.0788 57.1748 52.7763C56.493 52.4737 55.9561 52.0518 55.564 51.5107C55.1763 50.9695 54.9568 50.3409 54.9057 49.625H56.542C56.5846 50.1193 56.7508 50.5284 57.0406 50.8523C57.3346 51.1719 57.7054 51.4105 58.1528 51.5682C58.6045 51.7216 59.0903 51.7983 59.6102 51.7983C60.2153 51.7983 60.7586 51.7003 61.2402 51.5043C61.7217 51.304 62.1031 51.027 62.3844 50.6733C62.6656 50.3153 62.8062 49.8977 62.8062 49.4205C62.8062 48.9858 62.6848 48.6321 62.4419 48.3594C62.199 48.0866 61.8794 47.8651 61.4831 47.6946C61.0868 47.5241 60.6585 47.375 60.1983 47.2472L58.5875 46.7869C57.5648 46.4929 56.7551 46.0732 56.1585 45.5277C55.5619 44.9822 55.2636 44.2685 55.2636 43.3864C55.2636 42.6534 55.4618 42.0142 55.8581 41.4688C56.2586 40.919 56.7956 40.4929 57.4689 40.1903C58.1464 39.8835 58.9028 39.7301 59.738 39.7301C60.5818 39.7301 61.3318 39.8814 61.988 40.1839C62.6443 40.4822 63.1642 40.8913 63.5477 41.4112C63.9355 41.9311 64.14 42.5213 64.1613 43.1818H62.6273ZM71.012 43.1818V44.4602H65.924V43.1818H71.012ZM67.4069 40.8295H68.9154V50.1875C68.9154 50.6136 68.9772 50.9332 69.1008 51.1463C69.2286 51.3551 69.3906 51.4957 69.5866 51.5682C69.7869 51.6364 69.9978 51.6705 70.2194 51.6705C70.3856 51.6705 70.522 51.6619 70.6285 51.6449C70.735 51.6236 70.8203 51.6065 70.8842 51.5938L71.191 52.9489C71.0887 52.9872 70.946 53.0256 70.7627 53.0639C70.5795 53.1065 70.3472 53.1278 70.066 53.1278C69.6399 53.1278 69.2222 53.0362 68.8132 52.853C68.4083 52.6697 68.0717 52.3906 67.8032 52.0156C67.539 51.6406 67.4069 51.1676 67.4069 50.5966V40.8295ZM76.1704 53.2301C75.5482 53.2301 74.9836 53.1129 74.4765 52.8786C73.9694 52.6399 73.5667 52.2969 73.2684 51.8494C72.9701 51.3977 72.821 50.8523 72.821 50.2131C72.821 49.6506 72.9318 49.1946 73.1534 48.8452C73.3749 48.4915 73.6711 48.2145 74.0418 48.0142C74.4126 47.8139 74.8217 47.6648 75.2691 47.5668C75.7208 47.4645 76.1747 47.3835 76.6306 47.3239C77.2272 47.2472 77.7109 47.1896 78.0816 47.1513C78.4566 47.1087 78.7293 47.0384 78.8998 46.9403C79.0745 46.8423 79.1619 46.6719 79.1619 46.429V46.3778C79.1619 45.7472 78.9893 45.2571 78.6441 44.9077C78.3032 44.5582 77.7855 44.3835 77.0909 44.3835C76.3707 44.3835 75.8061 44.5412 75.397 44.8565C74.9879 45.1719 74.7002 45.5085 74.534 45.8665L73.1022 45.3551C73.3579 44.7585 73.6988 44.294 74.1249 43.9616C74.5553 43.625 75.0241 43.3906 75.5312 43.2585C76.0426 43.1222 76.5454 43.054 77.0397 43.054C77.3551 43.054 77.7173 43.0923 78.1264 43.169C78.5397 43.2415 78.9382 43.3928 79.3217 43.6229C79.7095 43.853 80.0312 44.2003 80.2869 44.6648C80.5426 45.1293 80.6704 45.7514 80.6704 46.5312V53H79.1619V51.6705H79.0852C78.9829 51.8835 78.8124 52.1115 78.5738 52.3544C78.3352 52.5973 78.0177 52.804 77.6214 52.9744C77.2251 53.1449 76.7414 53.2301 76.1704 53.2301ZM76.4005 51.875C76.9971 51.875 77.4999 51.7578 77.909 51.5234C78.3224 51.2891 78.6335 50.9865 78.8423 50.6158C79.0553 50.245 79.1619 49.8551 79.1619 49.446V48.0653C79.098 48.142 78.9573 48.2124 78.74 48.2763C78.5269 48.3359 78.2798 48.3892 77.9985 48.4361C77.7215 48.4787 77.4509 48.517 77.1867 48.5511C76.9268 48.581 76.7159 48.6065 76.5539 48.6278C76.1619 48.679 75.7954 48.7621 75.4545 48.8771C75.1178 48.9879 74.8451 49.1562 74.6363 49.3821C74.4318 49.6037 74.3295 49.9062 74.3295 50.2898C74.3295 50.8139 74.5234 51.2102 74.9112 51.4787C75.3032 51.7429 75.7997 51.875 76.4005 51.875ZM87.6937 43.1818V44.4602H82.6056V43.1818H87.6937ZM84.0885 40.8295H85.5971V50.1875C85.5971 50.6136 85.6589 50.9332 85.7824 51.1463C85.9103 51.3551 86.0722 51.4957 86.2682 51.5682C86.4685 51.6364 86.6795 51.6705 86.901 51.6705C87.0672 51.6705 87.2036 51.6619 87.3101 51.6449C87.4167 51.6236 87.5019 51.6065 87.5658 51.5938L87.8726 52.9489C87.7704 52.9872 87.6276 53.0256 87.4444 53.0639C87.2611 53.1065 87.0289 53.1278 86.7476 53.1278C86.3215 53.1278 85.9039 53.0362 85.4948 52.853C85.09 52.6697 84.7533 52.3906 84.4849 52.0156C84.2206 51.6406 84.0885 51.1676 84.0885 50.5966V40.8295ZM89.9628 53V43.1818H91.4714V53H89.9628ZM90.7299 41.5455C90.4358 41.5455 90.1823 41.4453 89.9692 41.245C89.7604 41.0447 89.656 40.804 89.656 40.5227C89.656 40.2415 89.7604 40.0007 89.9692 39.8004C90.1823 39.6001 90.4358 39.5 90.7299 39.5C91.0239 39.5 91.2753 39.6001 91.4841 39.8004C91.6972 40.0007 91.8037 40.2415 91.8037 40.5227C91.8037 40.804 91.6972 41.0447 91.4841 41.245C91.2753 41.4453 91.0239 41.5455 90.7299 41.5455ZM101.189 45.3807L99.8338 45.7642C99.7485 45.5384 99.6228 45.3189 99.4566 45.1058C99.2947 44.8885 99.0731 44.7095 98.7918 44.5689C98.5106 44.4283 98.1505 44.358 97.7116 44.358C97.1107 44.358 96.61 44.4964 96.2095 44.7734C95.8132 45.0462 95.615 45.3935 95.615 45.8153C95.615 46.1903 95.7514 46.4865 96.0241 46.7038C96.2968 46.9212 96.723 47.1023 97.3025 47.2472L98.7599 47.6051C99.6377 47.8182 100.292 48.1442 100.722 48.5831C101.153 49.0178 101.368 49.5781 101.368 50.2642C101.368 50.8267 101.206 51.3295 100.882 51.7727C100.562 52.2159 100.115 52.5653 99.5397 52.821C98.9644 53.0767 98.2954 53.2045 97.5326 53.2045C96.5312 53.2045 95.7024 52.9872 95.0461 52.5526C94.3899 52.1179 93.9744 51.483 93.7997 50.6477L95.2315 50.2898C95.3678 50.8182 95.6257 51.2145 96.0049 51.4787C96.3884 51.7429 96.8891 51.875 97.507 51.875C98.2102 51.875 98.7684 51.7259 99.1818 51.4276C99.5994 51.125 99.8082 50.7628 99.8082 50.3409C99.8082 50 99.6889 49.7145 99.4502 49.4844C99.2116 49.25 98.8451 49.0753 98.3508 48.9602L96.7144 48.5767C95.8153 48.3636 95.1548 48.0334 94.7329 47.5859C94.3153 47.1342 94.1065 46.5696 94.1065 45.892C94.1065 45.3381 94.262 44.848 94.5731 44.4219C94.8884 43.9957 95.3167 43.6612 95.8579 43.4183C96.4034 43.1754 97.0213 43.054 97.7116 43.054C98.6832 43.054 99.446 43.267 99.9999 43.6932C100.558 44.1193 100.954 44.6818 101.189 45.3807ZM107.909 43.1818V44.4602H102.82V43.1818H107.909ZM104.303 40.8295H105.812V50.1875C105.812 50.6136 105.874 50.9332 105.997 51.1463C106.125 51.3551 106.287 51.4957 106.483 51.5682C106.683 51.6364 106.894 51.6705 107.116 51.6705C107.282 51.6705 107.418 51.6619 107.525 51.6449C107.632 51.6236 107.717 51.6065 107.781 51.5938L108.087 52.9489C107.985 52.9872 107.842 53.0256 107.659 53.0639C107.476 53.1065 107.244 53.1278 106.962 53.1278C106.536 53.1278 106.119 53.0362 105.71 52.853C105.305 52.6697 104.968 52.3906 104.7 52.0156C104.435 51.6406 104.303 51.1676 104.303 50.5966V40.8295ZM110.178 53V43.1818H111.686V53H110.178ZM110.945 41.5455C110.651 41.5455 110.397 41.4453 110.184 41.245C109.975 41.0447 109.871 40.804 109.871 40.5227C109.871 40.2415 109.975 40.0007 110.184 39.8004C110.397 39.6001 110.651 39.5 110.945 39.5C111.239 39.5 111.49 39.6001 111.699 39.8004C111.912 40.0007 112.019 40.2415 112.019 40.5227C112.019 40.804 111.912 41.0447 111.699 41.245C111.49 41.4453 111.239 41.5455 110.945 41.5455ZM118.438 53.2045C117.517 53.2045 116.725 52.9872 116.06 52.5526C115.395 52.1179 114.884 51.5192 114.526 50.7564C114.168 49.9936 113.989 49.1222 113.989 48.142C113.989 47.1449 114.172 46.2649 114.539 45.5021C114.909 44.7351 115.425 44.1364 116.086 43.706C116.75 43.2713 117.526 43.054 118.412 43.054C119.103 43.054 119.725 43.1818 120.279 43.4375C120.833 43.6932 121.287 44.0511 121.64 44.5114C121.994 44.9716 122.213 45.5085 122.299 46.1222H120.79C120.675 45.6747 120.419 45.2784 120.023 44.9332C119.631 44.5838 119.103 44.4091 118.438 44.4091C117.85 44.4091 117.334 44.5625 116.891 44.8693C116.452 45.1719 116.109 45.6001 115.862 46.1541C115.619 46.7038 115.497 47.3494 115.497 48.0909C115.497 48.8494 115.617 49.5099 115.855 50.0724C116.098 50.6349 116.439 51.0717 116.878 51.3828C117.321 51.6939 117.841 51.8494 118.438 51.8494C118.83 51.8494 119.186 51.7812 119.505 51.6449C119.825 51.5085 120.095 51.3125 120.317 51.0568C120.539 50.8011 120.696 50.4943 120.79 50.1364H122.299C122.213 50.7159 122.002 51.2379 121.666 51.7024C121.333 52.1626 120.892 52.5291 120.343 52.8018C119.797 53.0703 119.162 53.2045 118.438 53.2045ZM131.458 45.3807L130.103 45.7642C130.018 45.5384 129.892 45.3189 129.726 45.1058C129.564 44.8885 129.343 44.7095 129.061 44.5689C128.78 44.4283 128.42 44.358 127.981 44.358C127.38 44.358 126.88 44.4964 126.479 44.7734C126.083 45.0462 125.885 45.3935 125.885 45.8153C125.885 46.1903 126.021 46.4865 126.294 46.7038C126.566 46.9212 126.992 47.1023 127.572 47.2472L129.029 47.6051C129.907 47.8182 130.561 48.1442 130.992 48.5831C131.422 49.0178 131.637 49.5781 131.637 50.2642C131.637 50.8267 131.475 51.3295 131.152 51.7727C130.832 52.2159 130.385 52.5653 129.809 52.821C129.234 53.0767 128.565 53.2045 127.802 53.2045C126.801 53.2045 125.972 52.9872 125.316 52.5526C124.659 52.1179 124.244 51.483 124.069 50.6477L125.501 50.2898C125.637 50.8182 125.895 51.2145 126.274 51.4787C126.658 51.7429 127.159 51.875 127.777 51.875C128.48 51.875 129.038 51.7259 129.451 51.4276C129.869 51.125 130.078 50.7628 130.078 50.3409C130.078 50 129.958 49.7145 129.72 49.4844C129.481 49.25 129.115 49.0753 128.62 48.9602L126.984 48.5767C126.085 48.3636 125.424 48.0334 125.002 47.5859C124.585 47.1342 124.376 46.5696 124.376 45.892C124.376 45.3381 124.532 44.848 124.843 44.4219C125.158 43.9957 125.586 43.6612 126.127 43.4183C126.673 43.1754 127.291 43.054 127.981 43.054C128.953 43.054 129.715 43.267 130.269 43.6932C130.828 44.1193 131.224 44.6818 131.458 45.3807Z" fill="#9291A5"/>
<defs>
<filter id="filter0_d_1_433" x="0" y="0" width="750" height="422" filterUnits="userSpaceOnUse" color-interpolation-filters="sRGB">
<feFlood flood-opacity="0" result="BackgroundImageFix"/>
<feColorMatrix in="SourceAlpha" type="matrix" values="0 0 0 0 0 0 0 0 0 0 0 0 0 0 0 0 0 0 127 0" result="hardAlpha"/>
<feOffset dy="2"/>
<feGaussianBlur stdDeviation="3"/>
<feComposite in2="hardAlpha" operator="out"/>
<feColorMatrix type="matrix" values="0 0 0 0 0.0509804 0 0 0 0 0.0392157 0 0 0 0 0.172549 0 0 0 0.08 0"/>
<feBlend mode="normal" in2="BackgroundImageFix" result="effect1_dropShadow_1_433"/>
<feBlend mode="normal" in="SourceGraphic" in2="effect1_dropShadow_1_433" result="shape"/>
</filter>
<filter id="filter1_d_1_433" x="440.955" y="177.181" width="43.3408" height="34.894" filterUnits="userSpaceOnUse" color-interpolation-filters="sRGB">
<feFlood flood-opacity="0" result="BackgroundImageFix"/>
<feColorMatrix in="SourceAlpha" type="matrix" values="0 0 0 0 0 0 0 0 0 0 0 0 0 0 0 0 0 0 127 0" result="hardAlpha"/>
<feOffset dy="8"/>
<feGaussianBlur stdDeviation="4"/>
<feComposite in2="hardAlpha" operator="out"/>
<feColorMatrix type="matrix" values="0 0 0 0 0.0509804 0 0 0 0 0.0392157 0 0 0 0 0.172549 0 0 0 0.08 0"/>
<feBlend mode="normal" in2="BackgroundImageFix" result="effect1_dropShadow_1_433"/>
<feBlend mode="normal" in="SourceGraphic" in2="effect1_dropShadow_1_433" result="shape"/>
</filter>
</defs>
</svg>
