<svg width="587" height="311" viewBox="0 0 587 311" fill="none" xmlns="http://www.w3.org/2000/svg">
<rect x="170.5" y="0.715576" width="80.1069" height="310.076" rx="37" fill="#F7F7FB"/>
<rect x="0.312988" y="280.454" width="10" height="28.7753" rx="5" fill="#775DA6"/>
<rect x="16.313" y="198.107" width="10" height="111.122" rx="5" fill="#70B6C1"/>
<rect x="32.313" y="31.5586" width="10" height="277.671" rx="5" fill="#FFB1B7"/>
<rect x="90.9331" y="227.841" width="10" height="81.3883" rx="5" fill="#775DA6"/>
<rect x="106.933" y="284.114" width="10" height="25.1146" rx="5" fill="#70B6C1"/>
<rect x="122.933" y="291.441" width="10" height="17.7875" rx="5" fill="#FFB1B7"/>
<rect x="181.553" y="224.138" width="10" height="85.0907" rx="5" fill="#775DA6"/>
<rect x="197.553" y="88.8228" width="10" height="220.406" rx="5" fill="#70B6C1"/>
<rect x="213.553" y="142.338" width="10" height="166.891" rx="5" fill="#FFB1B7"/>
<rect x="272.173" y="222.147" width="10" height="87.0817" rx="5" fill="#775DA6"/>
<rect x="288.173" y="243.169" width="10" height="66.06" rx="5" fill="#70B6C1"/>
<rect x="304.173" y="191.955" width="10" height="117.274" rx="5" fill="#FFB1B7"/>
<rect x="362.793" y="297.352" width="10" height="11.8769" rx="5" fill="#775DA6"/>
<rect x="378.793" y="291.356" width="10" height="17.8729" rx="5" fill="#70B6C1"/>
<rect x="394.793" y="247.748" width="10" height="61.4809" rx="5" fill="#FFB1B7"/>
<rect x="453.414" y="122.622" width="10" height="186.607" rx="5" fill="#775DA6"/>
<rect x="469.414" y="180.36" width="10" height="128.869" rx="5" fill="#70B6C1"/>
<rect x="485.414" y="206.445" width="10" height="102.784" rx="5" fill="#FFB1B7"/>
<rect x="544.025" y="97.8359" width="10" height="211.393" rx="5" fill="#775DA6"/>
<rect x="560.025" y="156.815" width="10" height="152.413" rx="5" fill="#70B6C1"/>
<rect x="576.025" y="203.967" width="10" height="105.261" rx="5" fill="#FFB1B7"/>
</svg>
