<svg width="52" height="52" viewBox="0 0 52 52" fill="none" xmlns="http://www.w3.org/2000/svg">
<circle cx="26.0603" cy="25.9897" r="25.446" fill="#94AE79"/>
<path fill-rule="evenodd" clip-rule="evenodd" d="M15.882 18.3559C15.882 15.5452 18.1605 13.2667 20.9711 13.2667H28.6049V18.3559C28.6049 21.1666 30.8834 23.4451 33.6941 23.4451H36.2387V33.6235C36.2387 36.4342 33.9602 38.7127 31.1495 38.7127H20.9711C18.1605 38.7127 15.882 36.4342 15.882 33.6235V18.3559ZM20.9711 24.7174C20.2685 24.7174 19.6989 25.287 19.6989 25.9897C19.6989 26.6924 20.2685 27.262 20.9711 27.262H23.5157C24.2184 27.262 24.788 26.6924 24.788 25.9897C24.788 25.287 24.2184 24.7174 23.5157 24.7174H20.9711ZM20.9711 29.8066C20.2685 29.8066 19.6989 30.3762 19.6989 31.0789C19.6989 31.7816 20.2685 32.3512 20.9711 32.3512H26.0603C26.763 32.3512 27.3326 31.7816 27.3326 31.0789C27.3326 30.3762 26.763 29.8066 26.0603 29.8066H20.9711ZM32.017 16.0642L31.8504 18.5631C31.7992 19.3312 32.4364 19.9685 33.2045 19.9173L35.7034 19.7507C36.7941 19.6779 37.2914 18.3545 36.5184 17.5815L34.1861 15.2492C33.4132 14.4763 32.0897 14.9736 32.017 16.0642Z" fill="white"/>
</svg>
