<svg width="579" height="17" viewBox="0 0 579 17" fill="none" xmlns="http://www.w3.org/2000/svg">
<path d="M1.87586 3.60944H3.34746L6.80768 12.0611H6.927L10.3872 3.60944H11.8588V13.7913H10.7054V6.05546H10.606L7.42416 13.7913H6.31052L3.12871 6.05546H3.02927V13.7913H1.87586V3.60944ZM23.7619 8.70035C23.7619 9.77421 23.568 10.7022 23.1802 11.4844C22.7924 12.2666 22.2604 12.8699 21.5843 13.2941C20.9082 13.7183 20.1359 13.9305 19.2675 13.9305C18.3992 13.9305 17.6269 13.7183 16.9508 13.2941C16.2746 12.8699 15.7427 12.2666 15.3549 11.4844C14.9671 10.7022 14.7732 9.77421 14.7732 8.70035C14.7732 7.62649 14.9671 6.69846 15.3549 5.91626C15.7427 5.13406 16.2746 4.53084 16.9508 4.1066C17.6269 3.68236 18.3992 3.47024 19.2675 3.47024C20.1359 3.47024 20.9082 3.68236 21.5843 4.1066C22.2604 4.53084 22.7924 5.13406 23.1802 5.91626C23.568 6.69846 23.7619 7.62649 23.7619 8.70035ZM22.5687 8.70035C22.5687 7.81872 22.4212 7.07464 22.1262 6.46811C21.8345 5.86157 21.4385 5.40253 20.938 5.09098C20.4408 4.77942 19.884 4.62365 19.2675 4.62365C18.6511 4.62365 18.0926 4.77942 17.5921 5.09098C17.0949 5.40253 16.6989 5.86157 16.4039 6.46811C16.1122 7.07464 15.9664 7.81872 15.9664 8.70035C15.9664 9.58198 16.1122 10.3261 16.4039 10.9326C16.6989 11.5391 17.0949 11.9982 17.5921 12.3097C18.0926 12.6213 18.6511 12.7771 19.2675 12.7771C19.884 12.7771 20.4408 12.6213 20.938 12.3097C21.4385 11.9982 21.8345 11.5391 22.1262 10.9326C22.4212 10.3261 22.5687 9.58198 22.5687 8.70035ZM34.7489 3.60944V13.7913H33.5557L28.0074 5.79694H27.908V13.7913H26.675V3.60944H27.8682L33.4364 11.6236H33.5358V3.60944H34.7489Z" fill="#615E83"/>
<path d="M94.906 4.70319V3.60944H102.542V4.70319H99.3406V13.7913H98.1077V4.70319H94.906ZM111.967 3.60944H113.2V10.3509C113.2 11.0469 113.036 11.6684 112.708 12.2153C112.383 12.7588 111.924 13.188 111.331 13.5029C110.737 13.8145 110.041 13.9702 109.243 13.9702C108.444 13.9702 107.748 13.8145 107.155 13.5029C106.561 13.188 106.101 12.7588 105.772 12.2153C105.448 11.6684 105.285 11.0469 105.285 10.3509V3.60944H106.518V10.2515C106.518 10.7486 106.628 11.1911 106.846 11.5789C107.065 11.9634 107.377 12.2666 107.781 12.4887C108.189 12.7075 108.676 12.8168 109.243 12.8168C109.809 12.8168 110.297 12.7075 110.704 12.4887C111.112 12.2666 111.423 11.9634 111.639 11.5789C111.858 11.1911 111.967 10.7486 111.967 10.2515V3.60944ZM116.502 13.7913V3.60944H122.647V4.70319H117.735V8.14353H122.329V9.23728H117.735V12.6975H122.727V13.7913H116.502Z" fill="#615E83"/>
<path d="M185.936 13.7913L183.152 3.60944H184.405L186.533 11.9021H186.632L188.8 3.60944H190.192L192.36 11.9021H192.459L194.587 3.60944H195.84L193.056 13.7913H191.783L189.536 5.67762H189.456L187.209 13.7913H185.936ZM198.216 13.7913V3.60944H204.361V4.70319H199.449V8.14353H204.043V9.23728H199.449V12.6975H204.44V13.7913H198.216ZM210.565 13.7913H207.423V3.60944H210.704C211.692 3.60944 212.537 3.81328 213.24 4.22095C213.942 4.6253 214.481 5.20698 214.856 5.96598C215.23 6.72166 215.417 7.62649 215.417 8.68046C215.417 9.74107 215.228 10.6542 214.851 11.4198C214.473 12.1821 213.923 12.7688 213.2 13.1798C212.478 13.5874 211.599 13.7913 210.565 13.7913ZM208.656 12.6975H210.486C211.327 12.6975 212.025 12.5351 212.579 12.2103C213.132 11.8855 213.545 11.4231 213.817 10.8232C214.088 10.2233 214.224 9.50906 214.224 8.68046C214.224 7.85849 214.09 7.15087 213.821 6.55759C213.553 5.961 213.152 5.50362 212.618 5.18544C212.085 4.86394 211.42 4.70319 210.625 4.70319H208.656V12.6975Z" fill="#615E83"/>
<path d="M275.148 4.70319V3.60944H282.785V4.70319H279.583V13.7913H278.35V4.70319H275.148ZM285.527 13.7913V3.60944H286.76V8.14353H292.189V3.60944H293.422V13.7913H292.189V9.23728H286.76V13.7913H285.527ZM303.412 3.60944H304.645V10.3509C304.645 11.0469 304.481 11.6684 304.153 12.2153C303.828 12.7588 303.369 13.188 302.776 13.5029C302.183 13.8145 301.487 13.9702 300.688 13.9702C299.889 13.9702 299.193 13.8145 298.6 13.5029C298.007 13.188 297.546 12.7588 297.218 12.2153C296.893 11.6684 296.731 11.0469 296.731 10.3509V3.60944H297.964V10.2515C297.964 10.7486 298.073 11.1911 298.292 11.5789C298.51 11.9634 298.822 12.2666 299.226 12.4887C299.634 12.7075 300.121 12.8168 300.688 12.8168C301.255 12.8168 301.742 12.7075 302.15 12.4887C302.557 12.2666 302.869 11.9634 303.084 11.5789C303.303 11.1911 303.412 10.7486 303.412 10.2515V3.60944Z" fill="#615E83"/>
<path d="M370.748 13.7913V3.60944H376.853V4.70319H371.981V8.14353H376.396V9.23728H371.981V13.7913H370.748ZM379.805 13.7913V3.60944H383.245C384.041 3.60944 384.693 3.74533 385.204 4.01711C385.714 4.28558 386.092 4.65513 386.337 5.12578C386.583 5.59642 386.705 6.1317 386.705 6.7316C386.705 7.33151 386.583 7.86347 386.337 8.32748C386.092 8.7915 385.716 9.15608 385.209 9.42123C384.702 9.68307 384.054 9.81399 383.265 9.81399H380.481V8.70035H383.225C383.769 8.70035 384.206 8.62081 384.538 8.46171C384.872 8.30262 385.114 8.07724 385.264 7.78558C385.416 7.4906 385.492 7.13927 385.492 6.7316C385.492 6.32393 385.416 5.96763 385.264 5.66271C385.111 5.35778 384.867 5.12246 384.533 4.95674C384.198 4.78771 383.755 4.70319 383.205 4.70319H381.038V13.7913H379.805ZM384.597 9.2174L387.103 13.7913H385.671L383.205 9.2174H384.597ZM390.833 3.60944V13.7913H389.6V3.60944H390.833Z" fill="#615E83"/>
<path d="M464.284 6.1549C464.224 5.65111 463.982 5.26001 463.558 4.9816C463.134 4.70319 462.613 4.56399 461.997 4.56399C461.546 4.56399 461.152 4.6369 460.814 4.78274C460.479 4.92857 460.217 5.12909 460.028 5.3843C459.843 5.63951 459.75 5.92952 459.75 6.25433C459.75 6.52611 459.814 6.75977 459.944 6.95532C460.076 7.14756 460.245 7.3083 460.451 7.43757C460.656 7.56351 460.872 7.66792 461.097 7.75078C461.322 7.83032 461.53 7.89495 461.719 7.94467L462.753 8.22308C463.018 8.29268 463.313 8.3888 463.638 8.51143C463.966 8.63406 464.279 8.80144 464.577 9.01356C464.879 9.22237 465.127 9.49083 465.323 9.81896C465.519 10.1471 465.616 10.5498 465.616 11.0271C465.616 11.5772 465.472 12.0744 465.184 12.5185C464.899 12.9627 464.481 13.3156 463.931 13.5775C463.384 13.8393 462.719 13.9702 461.937 13.9702C461.208 13.9702 460.577 13.8526 460.043 13.6173C459.513 13.3819 459.095 13.0538 458.79 12.6329C458.489 12.212 458.318 11.7231 458.278 11.1663H459.551C459.584 11.5507 459.713 11.8689 459.939 12.1208C460.167 12.3694 460.456 12.555 460.804 12.6776C461.155 12.7969 461.533 12.8566 461.937 12.8566C462.408 12.8566 462.831 12.7804 463.205 12.6279C463.58 12.4721 463.876 12.2567 464.095 11.9816C464.314 11.7032 464.423 11.3784 464.423 11.0072C464.423 10.6691 464.329 10.394 464.14 10.1819C463.951 9.96976 463.702 9.79742 463.394 9.66484C463.086 9.53226 462.753 9.41626 462.395 9.31683L461.142 8.95887C460.346 8.73018 459.717 8.40371 459.253 7.97947C458.789 7.55523 458.557 7.00007 458.557 6.31399C458.557 5.74391 458.711 5.24675 459.019 4.82251C459.331 4.39495 459.748 4.06351 460.272 3.82819C460.799 3.58955 461.387 3.47024 462.037 3.47024C462.693 3.47024 463.276 3.5879 463.787 3.82322C464.297 4.05523 464.702 4.37341 465 4.77776C465.301 5.18212 465.461 5.64116 465.477 6.1549H464.284ZM468.901 13.7913H467.608L471.347 3.60944H472.62L476.358 13.7913H475.066L472.023 5.22024H471.944L468.901 13.7913ZM469.378 9.81399H474.589V10.9077H469.378V9.81399ZM477.038 4.70319V3.60944H484.674V4.70319H481.473V13.7913H480.24V4.70319H477.038Z" fill="#615E83"/>
<path d="M553.064 6.1549C553.004 5.65111 552.762 5.26001 552.338 4.9816C551.914 4.70319 551.393 4.56399 550.777 4.56399C550.326 4.56399 549.932 4.6369 549.594 4.78274C549.259 4.92857 548.997 5.12909 548.808 5.3843C548.622 5.63951 548.53 5.92952 548.53 6.25433C548.53 6.52611 548.594 6.75977 548.723 6.95532C548.856 7.14756 549.025 7.3083 549.231 7.43757C549.436 7.56351 549.652 7.66792 549.877 7.75078C550.102 7.83032 550.309 7.89495 550.498 7.94467L551.532 8.22308C551.798 8.29268 552.093 8.3888 552.417 8.51143C552.745 8.63406 553.059 8.80144 553.357 9.01356C553.659 9.22237 553.907 9.49083 554.103 9.81896C554.298 10.1471 554.396 10.5498 554.396 11.0271C554.396 11.5772 554.252 12.0744 553.964 12.5185C553.678 12.9627 553.261 13.3156 552.711 13.5775C552.164 13.8393 551.499 13.9702 550.717 13.9702C549.988 13.9702 549.357 13.8526 548.823 13.6173C548.293 13.3819 547.875 13.0538 547.57 12.6329C547.268 12.212 547.098 11.7231 547.058 11.1663H548.331C548.364 11.5507 548.493 11.8689 548.719 12.1208C548.947 12.3694 549.236 12.555 549.584 12.6776C549.935 12.7969 550.313 12.8566 550.717 12.8566C551.188 12.8566 551.61 12.7804 551.985 12.6279C552.359 12.4721 552.656 12.2567 552.875 11.9816C553.094 11.7032 553.203 11.3784 553.203 11.0072C553.203 10.6691 553.108 10.394 552.919 10.1819C552.731 9.96976 552.482 9.79742 552.174 9.66484C551.866 9.53226 551.532 9.41626 551.174 9.31683L549.922 8.95887C549.126 8.73018 548.496 8.40371 548.032 7.97947C547.568 7.55523 547.336 7.00007 547.336 6.31399C547.336 5.74391 547.491 5.24675 547.799 4.82251C548.11 4.39495 548.528 4.06351 549.052 3.82819C549.579 3.58955 550.167 3.47024 550.817 3.47024C551.473 3.47024 552.056 3.5879 552.567 3.82322C553.077 4.05523 553.481 4.37341 553.78 4.77776C554.081 5.18212 554.24 5.64116 554.257 6.1549H553.064ZM563.945 3.60944H565.178V10.3509C565.178 11.0469 565.014 11.6684 564.686 12.2153C564.361 12.7588 563.902 13.188 563.309 13.5029C562.715 13.8145 562.019 13.9702 561.221 13.9702C560.422 13.9702 559.726 13.8145 559.133 13.5029C558.539 13.188 558.079 12.7588 557.75 12.2153C557.426 11.6684 557.263 11.0469 557.263 10.3509V3.60944H558.496V10.2515C558.496 10.7486 558.606 11.1911 558.824 11.5789C559.043 11.9634 559.355 12.2666 559.759 12.4887C560.167 12.7075 560.654 12.8168 561.221 12.8168C561.787 12.8168 562.275 12.7075 562.682 12.4887C563.09 12.2666 563.401 11.9634 563.617 11.5789C563.836 11.1911 563.945 10.7486 563.945 10.2515V3.60944ZM576.554 3.60944V13.7913H575.361L569.813 5.79694H569.713V13.7913H568.48V3.60944H569.673L575.242 11.6236H575.341V3.60944H576.554Z" fill="#615E83"/>
</svg>
