<svg width="522" height="422" viewBox="0 0 522 422" fill="none" xmlns="http://www.w3.org/2000/svg">
<g filter="url(#filter0_d_1_469)">
<rect x="6" y="4" width="510" height="410" rx="20" fill="white"/>
</g>
<mask id="mask0_1_469" style="mask-type:alpha" maskUnits="userSpaceOnUse" x="53" y="148" width="416" height="214">
<rect x="53" y="148.081" width="416" height="213.268" fill="#D9D9D9"/>
</mask>
<g mask="url(#mask0_1_469)">
<mask id="path-3-inside-1_1_469" fill="white">
<path d="M61.0567 360.168C56.637 360.27 52.9567 356.766 53.0259 352.346C53.5011 322.004 60.503 292.101 73.5759 264.761C87.7974 235.019 108.792 209.17 134.809 189.369C160.827 169.567 191.113 156.388 223.145 150.928C252.576 145.911 282.697 147.545 311.383 155.674C315.602 156.869 317.895 161.348 316.579 165.531L312.077 179.846C310.741 184.093 306.199 186.413 301.906 185.233C277.905 178.638 252.758 177.372 228.177 181.562C200.938 186.205 175.184 197.413 153.059 214.251C130.935 231.089 113.082 253.07 100.988 278.362C90.0418 301.256 84.1009 326.261 83.5359 351.657C83.4376 356.072 79.959 359.732 75.5445 359.834L61.0567 360.168Z"/>
</mask>
<path d="M61.0567 360.168C56.637 360.27 52.9567 356.766 53.0259 352.346C53.5011 322.004 60.503 292.101 73.5759 264.761C87.7974 235.019 108.792 209.17 134.809 189.369C160.827 169.567 191.113 156.388 223.145 150.928C252.576 145.911 282.697 147.545 311.383 155.674C315.602 156.869 317.895 161.348 316.579 165.531L312.077 179.846C310.741 184.093 306.199 186.413 301.906 185.233C277.905 178.638 252.758 177.372 228.177 181.562C200.938 186.205 175.184 197.413 153.059 214.251C130.935 231.089 113.082 253.07 100.988 278.362C90.0418 301.256 84.1009 326.261 83.5359 351.657C83.4376 356.072 79.959 359.732 75.5445 359.834L61.0567 360.168Z" stroke="#70B6C1" stroke-width="60" stroke-linecap="round" stroke-linejoin="round" mask="url(#path-3-inside-1_1_469)"/>
<mask id="path-4-inside-2_1_469" fill="white">
<path d="M315.943 163.958C317.082 159.659 321.515 157.099 325.753 158.449C365.87 171.232 401.196 196.368 426.805 230.492C452.456 264.672 467.007 306.071 468.553 348.934C468.712 353.35 465.108 356.927 460.69 356.919L446.198 356.892C441.78 356.884 438.224 353.294 438.035 348.88C436.496 312.856 424.155 278.103 402.581 249.356C381.019 220.624 351.356 199.386 317.658 188.418C313.484 187.059 310.972 182.721 312.096 178.478L315.943 163.958Z"/>
</mask>
<path d="M315.943 163.958C317.082 159.659 321.515 157.099 325.753 158.449C365.87 171.232 401.196 196.368 426.805 230.492C452.456 264.672 467.007 306.071 468.553 348.934C468.712 353.35 465.108 356.927 460.69 356.919L446.198 356.892C441.78 356.884 438.224 353.294 438.035 348.88C436.496 312.856 424.155 278.103 402.581 249.356C381.019 220.624 351.356 199.386 317.658 188.418C313.484 187.059 310.972 182.721 312.096 178.478L315.943 163.958Z" stroke="#E5EAFC" stroke-width="60" stroke-linecap="round" stroke-linejoin="round" mask="url(#path-4-inside-2_1_469)"/>
</g>
<g filter="url(#filter1_d_1_469)">
<circle cx="311.398" cy="172.372" r="26.3723" fill="#629AA3"/>
<circle cx="311.398" cy="172.372" r="23.8723" stroke="white" stroke-width="5"/>
</g>
<path d="M186.566 315.349L210.083 268.815V268.427H182.688V258.622H222.492V268.566L198.948 315.349H186.566ZM230.711 315.349V306.707L250.904 288.01C252.621 286.349 254.061 284.853 255.225 283.523C256.407 282.194 257.302 280.892 257.912 279.618C258.521 278.325 258.826 276.931 258.826 275.435C258.826 273.773 258.447 272.342 257.69 271.142C256.933 269.923 255.899 268.991 254.588 268.344C253.277 267.679 251.79 267.347 250.128 267.347C248.392 267.347 246.878 267.698 245.586 268.4C244.293 269.101 243.296 270.108 242.594 271.419C241.892 272.73 241.542 274.29 241.542 276.1H230.157C230.157 272.388 230.998 269.166 232.678 266.433C234.358 263.7 236.713 261.586 239.741 260.09C242.77 258.594 246.26 257.846 250.211 257.846C254.274 257.846 257.81 258.567 260.82 260.007C263.848 261.429 266.203 263.405 267.883 265.934C269.564 268.464 270.404 271.363 270.404 274.632C270.404 276.774 269.979 278.888 269.13 280.975C268.299 283.062 266.812 285.379 264.67 287.927C262.528 290.457 259.509 293.495 255.613 297.04L247.331 305.156V305.544H271.152V315.349H230.711ZM310.893 304.713V301.721C310.893 299.45 311.373 297.363 312.333 295.461C313.312 293.541 314.724 292.008 316.571 290.863C318.436 289.7 320.707 289.118 323.385 289.118C326.099 289.118 328.38 289.691 330.226 290.836C332.091 291.981 333.495 293.513 334.437 295.434C335.397 297.336 335.877 299.432 335.877 301.721V304.713C335.877 306.984 335.397 309.08 334.437 311.001C333.476 312.903 332.064 314.426 330.199 315.571C328.334 316.734 326.062 317.316 323.385 317.316C320.67 317.316 318.39 316.734 316.543 315.571C314.697 314.426 313.293 312.903 312.333 311.001C311.373 309.08 310.893 306.984 310.893 304.713ZM318.953 301.721V304.713C318.953 306.024 319.267 307.261 319.895 308.425C320.541 309.588 321.704 310.17 323.385 310.17C325.065 310.17 326.21 309.597 326.819 308.452C327.447 307.307 327.761 306.061 327.761 304.713V301.721C327.761 300.373 327.466 299.118 326.875 297.954C326.284 296.791 325.121 296.209 323.385 296.209C321.723 296.209 320.569 296.791 319.922 297.954C319.276 299.118 318.953 300.373 318.953 301.721ZM281.781 272.25V269.258C281.781 266.969 282.27 264.873 283.249 262.971C284.228 261.05 285.64 259.518 287.487 258.373C289.352 257.228 291.605 256.655 294.246 256.655C296.979 256.655 299.268 257.228 301.115 258.373C302.961 259.518 304.365 261.05 305.325 262.971C306.285 264.873 306.765 266.969 306.765 269.258V272.25C306.765 274.54 306.276 276.635 305.297 278.537C304.337 280.439 302.925 281.963 301.059 283.108C299.213 284.234 296.942 284.797 294.246 284.797C291.55 284.797 289.269 284.225 287.404 283.08C285.557 281.917 284.154 280.393 283.194 278.51C282.252 276.608 281.781 274.521 281.781 272.25ZM289.897 269.258V272.25C289.897 273.598 290.211 274.844 290.839 275.989C291.485 277.134 292.621 277.706 294.246 277.706C295.944 277.706 297.099 277.134 297.708 275.989C298.336 274.844 298.65 273.598 298.65 272.25V269.258C298.65 267.91 298.354 266.655 297.763 265.491C297.172 264.328 296 263.746 294.246 263.746C292.602 263.746 291.466 264.337 290.839 265.519C290.211 266.701 289.897 267.947 289.897 269.258ZM285.437 315.349L324.437 258.622H331.694L292.694 315.349H285.437Z" fill="#1E1B39"/>
<path d="M182.836 344.349H181.251C181.157 343.893 180.993 343.493 180.759 343.148C180.529 342.802 180.247 342.513 179.915 342.278C179.587 342.04 179.222 341.861 178.822 341.741C178.421 341.622 178.004 341.562 177.569 341.562C176.776 341.562 176.058 341.763 175.415 342.163C174.776 342.564 174.267 343.154 173.887 343.934C173.512 344.714 173.325 345.67 173.325 346.804C173.325 347.937 173.512 348.894 173.887 349.674C174.267 350.454 174.776 351.044 175.415 351.444C176.058 351.845 176.776 352.045 177.569 352.045C178.004 352.045 178.421 351.986 178.822 351.866C179.222 351.747 179.587 351.57 179.915 351.336C180.247 351.097 180.529 350.805 180.759 350.46C180.993 350.111 181.157 349.71 181.251 349.258H182.836C182.717 349.927 182.499 350.526 182.184 351.054C181.869 351.583 181.477 352.032 181.008 352.403C180.539 352.77 180.013 353.049 179.429 353.241C178.85 353.432 178.23 353.528 177.569 353.528C176.453 353.528 175.46 353.255 174.59 352.71C173.721 352.165 173.037 351.389 172.539 350.383C172.04 349.378 171.791 348.184 171.791 346.804C171.791 345.423 172.04 344.23 172.539 343.224C173.037 342.219 173.721 341.443 174.59 340.898C175.46 340.352 176.453 340.079 177.569 340.079C178.23 340.079 178.85 340.175 179.429 340.367C180.013 340.559 180.539 340.84 181.008 341.211C181.477 341.577 181.869 342.025 182.184 342.553C182.499 343.077 182.717 343.676 182.836 344.349ZM189.182 353.554C188.295 353.554 187.518 353.343 186.849 352.921C186.184 352.499 185.664 351.909 185.289 351.15C184.918 350.392 184.733 349.505 184.733 348.491C184.733 347.469 184.918 346.576 185.289 345.813C185.664 345.05 186.184 344.458 186.849 344.036C187.518 343.614 188.295 343.403 189.182 343.403C190.068 343.403 190.844 343.614 191.509 344.036C192.178 344.458 192.697 345.05 193.068 345.813C193.443 346.576 193.631 347.469 193.631 348.491C193.631 349.505 193.443 350.392 193.068 351.15C192.697 351.909 192.178 352.499 191.509 352.921C190.844 353.343 190.068 353.554 189.182 353.554ZM189.182 352.199C189.855 352.199 190.409 352.026 190.844 351.681C191.278 351.336 191.6 350.882 191.809 350.319C192.018 349.757 192.122 349.148 192.122 348.491C192.122 347.835 192.018 347.224 191.809 346.657C191.6 346.09 191.278 345.632 190.844 345.282C190.409 344.933 189.855 344.758 189.182 344.758C188.509 344.758 187.955 344.933 187.52 345.282C187.085 345.632 186.763 346.09 186.555 346.657C186.346 347.224 186.241 347.835 186.241 348.491C186.241 349.148 186.346 349.757 186.555 350.319C186.763 350.882 187.085 351.336 187.52 351.681C187.955 352.026 188.509 352.199 189.182 352.199ZM197.442 347.443V353.349H195.933V343.531H197.391V345.065H197.519C197.749 344.567 198.098 344.166 198.567 343.863C199.036 343.557 199.641 343.403 200.382 343.403C201.047 343.403 201.629 343.54 202.127 343.812C202.626 344.081 203.014 344.49 203.291 345.04C203.568 345.585 203.706 346.275 203.706 347.111V353.349H202.198V347.213C202.198 346.442 201.997 345.841 201.597 345.41C201.196 344.976 200.646 344.758 199.948 344.758C199.466 344.758 199.036 344.863 198.656 345.072C198.281 345.28 197.985 345.585 197.768 345.986C197.551 346.386 197.442 346.872 197.442 347.443ZM214.14 343.531L210.509 353.349H208.975L205.344 343.531H206.98L209.691 351.355H209.793L212.503 343.531H214.14ZM219.896 353.554C218.95 353.554 218.134 353.345 217.447 352.927C216.766 352.505 216.239 351.917 215.869 351.163C215.502 350.405 215.319 349.523 215.319 348.517C215.319 347.511 215.502 346.625 215.869 345.858C216.239 345.086 216.755 344.486 217.415 344.055C218.08 343.621 218.856 343.403 219.742 343.403C220.254 343.403 220.759 343.488 221.257 343.659C221.756 343.829 222.21 344.106 222.619 344.49C223.028 344.869 223.354 345.372 223.597 345.998C223.839 346.625 223.961 347.396 223.961 348.312V348.952H216.393V347.648H222.427C222.427 347.094 222.316 346.599 222.094 346.165C221.877 345.73 221.566 345.387 221.161 345.135C220.761 344.884 220.288 344.758 219.742 344.758C219.141 344.758 218.621 344.907 218.183 345.206C217.748 345.5 217.413 345.883 217.179 346.356C216.945 346.829 216.827 347.336 216.827 347.878V348.747C216.827 349.488 216.955 350.117 217.211 350.633C217.471 351.144 217.831 351.534 218.291 351.802C218.751 352.067 219.286 352.199 219.896 352.199C220.292 352.199 220.65 352.143 220.969 352.032C221.293 351.917 221.572 351.747 221.807 351.521C222.041 351.291 222.222 351.005 222.35 350.665L223.808 351.074C223.654 351.568 223.396 352.003 223.034 352.378C222.672 352.748 222.224 353.038 221.692 353.247C221.159 353.452 220.56 353.554 219.896 353.554ZM226.256 353.349V343.531H227.713V345.014H227.815C227.994 344.528 228.318 344.134 228.787 343.831C229.256 343.529 229.784 343.378 230.372 343.378C230.483 343.378 230.621 343.38 230.788 343.384C230.954 343.388 231.08 343.395 231.165 343.403V344.937C231.114 344.925 230.996 344.905 230.813 344.88C230.634 344.85 230.445 344.835 230.244 344.835C229.767 344.835 229.341 344.935 228.966 345.135C228.595 345.331 228.301 345.604 228.084 345.954C227.871 346.299 227.764 346.693 227.764 347.136V353.349H226.256ZM237.838 343.531V344.809H232.75V343.531H237.838ZM234.233 341.179H235.741V350.537C235.741 350.963 235.803 351.282 235.927 351.496C236.055 351.704 236.217 351.845 236.413 351.917C236.613 351.986 236.824 352.02 237.045 352.02C237.212 352.02 237.348 352.011 237.455 351.994C237.561 351.973 237.646 351.956 237.71 351.943L238.017 353.298C237.915 353.336 237.772 353.375 237.589 353.413C237.406 353.456 237.173 353.477 236.892 353.477C236.466 353.477 236.048 353.385 235.639 353.202C235.234 353.019 234.898 352.74 234.629 352.365C234.365 351.99 234.233 351.517 234.233 350.946V341.179ZM244.118 353.554C243.172 353.554 242.356 353.345 241.67 352.927C240.988 352.505 240.462 351.917 240.091 351.163C239.725 350.405 239.542 349.523 239.542 348.517C239.542 347.511 239.725 346.625 240.091 345.858C240.462 345.086 240.978 344.486 241.638 344.055C242.303 343.621 243.078 343.403 243.965 343.403C244.476 343.403 244.981 343.488 245.48 343.659C245.978 343.829 246.432 344.106 246.841 344.49C247.25 344.869 247.576 345.372 247.819 345.998C248.062 346.625 248.184 347.396 248.184 348.312V348.952H240.615V347.648H246.65C246.65 347.094 246.539 346.599 246.317 346.165C246.1 345.73 245.789 345.387 245.384 345.135C244.983 344.884 244.51 344.758 243.965 344.758C243.364 344.758 242.844 344.907 242.405 345.206C241.971 345.5 241.636 345.883 241.402 346.356C241.167 346.829 241.05 347.336 241.05 347.878V348.747C241.05 349.488 241.178 350.117 241.434 350.633C241.694 351.144 242.054 351.534 242.514 351.802C242.974 352.067 243.509 352.199 244.118 352.199C244.515 352.199 244.873 352.143 245.192 352.032C245.516 351.917 245.795 351.747 246.029 351.521C246.264 351.291 246.445 351.005 246.573 350.665L248.03 351.074C247.877 351.568 247.619 352.003 247.257 352.378C246.895 352.748 246.447 353.038 245.914 353.247C245.382 353.452 244.783 353.554 244.118 353.554ZM254.186 353.554C253.368 353.554 252.645 353.347 252.019 352.934C251.392 352.516 250.902 351.928 250.549 351.17C250.195 350.407 250.018 349.505 250.018 348.466C250.018 347.434 250.195 346.54 250.549 345.781C250.902 345.023 251.395 344.437 252.025 344.023C252.656 343.61 253.385 343.403 254.211 343.403C254.85 343.403 255.355 343.51 255.726 343.723C256.101 343.932 256.387 344.17 256.583 344.439C256.783 344.703 256.939 344.92 257.049 345.091H257.177V340.258H258.686V353.349H257.228V351.841H257.049C256.939 352.02 256.781 352.246 256.576 352.518C256.372 352.787 256.08 353.028 255.701 353.241C255.321 353.449 254.816 353.554 254.186 353.554ZM254.39 352.199C254.995 352.199 255.507 352.041 255.924 351.726C256.342 351.406 256.659 350.965 256.877 350.403C257.094 349.836 257.203 349.182 257.203 348.44C257.203 347.707 257.096 347.066 256.883 346.516C256.67 345.962 256.355 345.532 255.937 345.225C255.52 344.914 255.004 344.758 254.39 344.758C253.751 344.758 253.218 344.922 252.792 345.251C252.37 345.574 252.053 346.015 251.84 346.574C251.631 347.128 251.527 347.75 251.527 348.44C251.527 349.139 251.633 349.774 251.846 350.345C252.064 350.912 252.383 351.363 252.805 351.7C253.231 352.032 253.76 352.199 254.39 352.199ZM262.757 353.452C262.442 353.452 262.172 353.339 261.946 353.113C261.72 352.887 261.607 352.616 261.607 352.301C261.607 351.986 261.72 351.715 261.946 351.489C262.172 351.263 262.442 351.15 262.757 351.15C263.073 351.15 263.343 351.263 263.569 351.489C263.795 351.715 263.908 351.986 263.908 352.301C263.908 352.51 263.855 352.702 263.748 352.876C263.646 353.051 263.507 353.192 263.333 353.298C263.162 353.4 262.971 353.452 262.757 353.452ZM262.757 346.165C262.442 346.165 262.172 346.052 261.946 345.826C261.72 345.6 261.607 345.329 261.607 345.014C261.607 344.699 261.72 344.428 261.946 344.202C262.172 343.976 262.442 343.863 262.757 343.863C263.073 343.863 263.343 343.976 263.569 344.202C263.795 344.428 263.908 344.699 263.908 345.014C263.908 345.223 263.855 345.415 263.748 345.589C263.646 345.764 263.507 345.905 263.333 346.011C263.162 346.113 262.971 346.165 262.757 346.165ZM271.594 353.349V350.912L277.289 345.638C277.773 345.17 278.18 344.748 278.508 344.373C278.841 343.998 279.094 343.63 279.266 343.271C279.438 342.907 279.523 342.513 279.523 342.091C279.523 341.623 279.417 341.219 279.203 340.88C278.99 340.537 278.698 340.274 278.328 340.091C277.958 339.904 277.539 339.81 277.07 339.81C276.581 339.81 276.154 339.909 275.789 340.107C275.424 340.305 275.143 340.589 274.945 340.959C274.747 341.328 274.648 341.769 274.648 342.279H271.438C271.438 341.232 271.674 340.323 272.148 339.552C272.622 338.782 273.286 338.185 274.141 337.763C274.995 337.341 275.979 337.13 277.094 337.13C278.24 337.13 279.237 337.334 280.086 337.74C280.94 338.141 281.604 338.698 282.078 339.412C282.552 340.125 282.789 340.943 282.789 341.865C282.789 342.469 282.669 343.065 282.43 343.654C282.195 344.242 281.776 344.896 281.172 345.615C280.568 346.328 279.716 347.185 278.617 348.185L276.281 350.474V350.584H283V353.349H271.594ZM284.865 350.537V347.873L291.545 337.349H293.842V341.037H292.482L288.271 347.701V347.826H297.764V350.537H284.865ZM292.545 353.349V349.724L292.607 348.545V337.349H295.779V353.349H292.545ZM303.365 351.162L303.279 352.021C303.212 352.709 303.081 353.394 302.889 354.076C302.701 354.763 302.503 355.386 302.295 355.943C302.092 356.5 301.928 356.938 301.803 357.255H299.646C299.725 356.948 299.831 356.519 299.967 355.966C300.102 355.42 300.23 354.805 300.35 354.123C300.469 353.44 300.545 352.745 300.576 352.037L300.615 351.162H303.365ZM306.135 350.537V347.873L312.814 337.349H315.111V341.037H313.752L309.541 347.701V347.826H319.033V350.537H306.135ZM313.814 353.349V349.724L313.877 348.545V337.349H317.049V353.349H313.814ZM327.561 353.701C326.217 353.696 325.061 353.365 324.092 352.709C323.128 352.052 322.386 351.102 321.865 349.857C321.35 348.612 321.094 347.115 321.1 345.365C321.1 343.62 321.357 342.133 321.873 340.904C322.394 339.675 323.136 338.74 324.1 338.099C325.068 337.453 326.222 337.13 327.561 337.13C328.899 337.13 330.05 337.453 331.014 338.099C331.982 338.745 332.727 339.683 333.248 340.912C333.769 342.136 334.027 343.62 334.021 345.365C334.021 347.12 333.761 348.62 333.24 349.865C332.725 351.11 331.985 352.06 331.021 352.716C330.058 353.373 328.904 353.701 327.561 353.701ZM327.561 350.896C328.477 350.896 329.209 350.435 329.756 349.513C330.303 348.591 330.574 347.209 330.568 345.365C330.568 344.151 330.443 343.141 330.193 342.334C329.949 341.526 329.6 340.92 329.146 340.513C328.699 340.107 328.17 339.904 327.561 339.904C326.649 339.904 325.92 340.36 325.373 341.271C324.826 342.183 324.55 343.547 324.545 345.365C324.545 346.594 324.667 347.62 324.912 348.443C325.162 349.261 325.514 349.875 325.967 350.287C326.42 350.693 326.951 350.896 327.561 350.896ZM342.707 353.701C341.363 353.696 340.207 353.365 339.238 352.709C338.275 352.052 337.533 351.102 337.012 349.857C336.496 348.612 336.241 347.115 336.246 345.365C336.246 343.62 336.504 342.133 337.02 340.904C337.54 339.675 338.283 338.74 339.246 338.099C340.215 337.453 341.368 337.13 342.707 337.13C344.046 337.13 345.197 337.453 346.16 338.099C347.129 338.745 347.874 339.683 348.395 340.912C348.915 342.136 349.173 343.62 349.168 345.365C349.168 347.12 348.908 348.62 348.387 349.865C347.871 351.11 347.132 352.06 346.168 352.716C345.204 353.373 344.051 353.701 342.707 353.701ZM342.707 350.896C343.624 350.896 344.355 350.435 344.902 349.513C345.449 348.591 345.72 347.209 345.715 345.365C345.715 344.151 345.59 343.141 345.34 342.334C345.095 341.526 344.746 340.92 344.293 340.513C343.845 340.107 343.316 339.904 342.707 339.904C341.796 339.904 341.066 340.36 340.52 341.271C339.973 342.183 339.697 343.547 339.691 345.365C339.691 346.594 339.814 347.62 340.059 348.443C340.309 349.261 340.66 349.875 341.113 350.287C341.566 350.693 342.098 350.896 342.707 350.896Z" fill="#1E1B39"/>
<line x1="39.2246" y1="109.5" x2="482.774" y2="109.5" stroke="#E5E5EF"/>
<path d="M423.854 82L430.486 68.875V68.7656H422.76V66H433.986V68.8047L427.346 82H423.854ZM437.203 79.8125L437.117 80.6719C437.049 81.3594 436.919 82.0443 436.727 82.7266C436.539 83.4141 436.341 84.0365 436.133 84.5938C435.93 85.151 435.766 85.5885 435.641 85.9063H433.484C433.563 85.599 433.669 85.1693 433.805 84.6172C433.94 84.0703 434.068 83.4557 434.188 82.7734C434.307 82.0911 434.383 81.3958 434.414 80.6875L434.453 79.8125H437.203ZM445.711 82.2187C444.888 82.2135 444.094 82.0755 443.328 81.8047C442.568 81.5339 441.885 81.0937 441.281 80.4844C440.677 79.875 440.198 79.0677 439.844 78.0625C439.495 77.0573 439.32 75.8229 439.32 74.3594C439.326 73.0156 439.479 71.8151 439.781 70.7578C440.089 69.6953 440.526 68.7943 441.094 68.0547C441.667 67.3151 442.352 66.7526 443.148 66.3672C443.945 65.9766 444.839 65.7812 445.828 65.7812C446.896 65.7812 447.839 65.9896 448.656 66.4063C449.474 66.8177 450.13 67.3776 450.625 68.0859C451.125 68.7943 451.427 69.5885 451.531 70.4687H448.195C448.065 69.9115 447.792 69.474 447.375 69.1563C446.958 68.8385 446.443 68.6797 445.828 68.6797C444.786 68.6797 443.995 69.1328 443.453 70.0391C442.917 70.9453 442.643 72.1771 442.633 73.7344H442.742C442.982 73.2604 443.305 72.8568 443.711 72.5234C444.122 72.1849 444.589 71.9271 445.109 71.75C445.635 71.5677 446.19 71.4766 446.773 71.4766C447.721 71.4766 448.565 71.7005 449.305 72.1484C450.044 72.5911 450.628 73.2005 451.055 73.9766C451.482 74.7526 451.695 75.6406 451.695 76.6406C451.695 77.724 451.443 78.6875 450.938 79.5312C450.438 80.375 449.737 81.0365 448.836 81.5156C447.94 81.9896 446.898 82.224 445.711 82.2187ZM445.695 79.5625C446.216 79.5625 446.682 79.4375 447.094 79.1875C447.505 78.9375 447.828 78.599 448.063 78.1719C448.297 77.7448 448.414 77.2656 448.414 76.7344C448.414 76.2031 448.297 75.7266 448.063 75.3047C447.833 74.8828 447.516 74.5469 447.109 74.2969C446.703 74.0469 446.24 73.9219 445.719 73.9219C445.328 73.9219 444.966 73.9948 444.633 74.1406C444.305 74.2865 444.016 74.4896 443.766 74.75C443.521 75.0104 443.328 75.3125 443.188 75.6562C443.047 75.9948 442.977 76.3568 442.977 76.7422C442.977 77.2578 443.094 77.7292 443.328 78.1562C443.568 78.5833 443.891 78.9245 444.297 79.1797C444.708 79.4349 445.174 79.5625 445.695 79.5625ZM460.367 82.3516C459.023 82.3464 457.867 82.0156 456.898 81.3594C455.935 80.7031 455.193 79.7526 454.672 78.5078C454.156 77.263 453.901 75.7656 453.906 74.0156C453.906 72.2708 454.164 70.7839 454.68 69.5547C455.201 68.3255 455.943 67.3906 456.906 66.75C457.875 66.1042 459.029 65.7812 460.367 65.7812C461.706 65.7812 462.857 66.1042 463.82 66.75C464.789 67.3958 465.534 68.3333 466.055 69.5625C466.576 70.7865 466.833 72.2708 466.828 74.0156C466.828 75.7708 466.568 77.2708 466.047 78.5156C465.531 79.7604 464.792 80.7109 463.828 81.3672C462.865 82.0234 461.711 82.3516 460.367 82.3516ZM460.367 79.5469C461.284 79.5469 462.016 79.0859 462.563 78.1641C463.109 77.2422 463.38 75.8594 463.375 74.0156C463.375 72.8021 463.25 71.7917 463 70.9844C462.755 70.1771 462.406 69.5703 461.953 69.1641C461.505 68.7578 460.977 68.5547 460.367 68.5547C459.456 68.5547 458.727 69.0104 458.18 69.9219C457.633 70.8333 457.357 72.1979 457.352 74.0156C457.352 75.2448 457.474 76.2708 457.719 77.0937C457.969 77.9115 458.32 78.526 458.773 78.9375C459.227 79.3437 459.758 79.5469 460.367 79.5469ZM475.514 82.3516C474.17 82.3464 473.014 82.0156 472.045 81.3594C471.081 80.7031 470.339 79.7526 469.818 78.5078C469.303 77.263 469.048 75.7656 469.053 74.0156C469.053 72.2708 469.311 70.7839 469.826 69.5547C470.347 68.3255 471.089 67.3906 472.053 66.75C473.021 66.1042 474.175 65.7812 475.514 65.7812C476.852 65.7812 478.003 66.1042 478.967 66.75C479.936 67.3958 480.68 68.3333 481.201 69.5625C481.722 70.7865 481.98 72.2708 481.975 74.0156C481.975 75.7708 481.714 77.2708 481.193 78.5156C480.678 79.7604 479.938 80.7109 478.975 81.3672C478.011 82.0234 476.857 82.3516 475.514 82.3516ZM475.514 79.5469C476.43 79.5469 477.162 79.0859 477.709 78.1641C478.256 77.2422 478.527 75.8594 478.521 74.0156C478.521 72.8021 478.396 71.7917 478.146 70.9844C477.902 70.1771 477.553 69.5703 477.1 69.1641C476.652 68.7578 476.123 68.5547 475.514 68.5547C474.602 68.5547 473.873 69.0104 473.326 69.9219C472.779 70.8333 472.503 72.1979 472.498 74.0156C472.498 75.2448 472.62 76.2708 472.865 77.0937C473.115 77.9115 473.467 78.526 473.92 78.9375C474.373 79.3437 474.904 79.5469 475.514 79.5469Z" fill="#1E1B39"/>
<path d="M358.662 44H357.077C356.983 43.544 356.819 43.1435 356.585 42.7983C356.355 42.4531 356.074 42.1634 355.741 41.929C355.413 41.6903 355.049 41.5114 354.648 41.392C354.248 41.2727 353.83 41.2131 353.395 41.2131C352.603 41.2131 351.885 41.4134 351.241 41.8139C350.602 42.2145 350.093 42.8047 349.713 43.5845C349.338 44.3643 349.151 45.321 349.151 46.4545C349.151 47.5881 349.338 48.5447 349.713 49.3246C350.093 50.1044 350.602 50.6946 351.241 51.0952C351.885 51.4957 352.603 51.696 353.395 51.696C353.83 51.696 354.248 51.6364 354.648 51.517C355.049 51.3977 355.413 51.2209 355.741 50.9865C356.074 50.7479 356.355 50.456 356.585 50.1108C356.819 49.7614 356.983 49.3608 357.077 48.9091H358.662C358.543 49.5781 358.326 50.1768 358.01 50.7053C357.695 51.2337 357.303 51.6832 356.834 52.054C356.365 52.4205 355.839 52.6996 355.255 52.8913C354.676 53.0831 354.056 53.179 353.395 53.179C352.279 53.179 351.286 52.9062 350.417 52.3608C349.547 51.8153 348.863 51.0398 348.365 50.0341C347.866 49.0284 347.617 47.8352 347.617 46.4545C347.617 45.0739 347.866 43.8807 348.365 42.875C348.863 41.8693 349.547 41.0938 350.417 40.5483C351.286 40.0028 352.279 39.7301 353.395 39.7301C354.056 39.7301 354.676 39.826 355.255 40.0178C355.839 40.2095 356.365 40.4908 356.834 40.8615C357.303 41.228 357.695 41.6754 358.01 42.2038C358.326 42.728 358.543 43.3267 358.662 44ZM365.008 53.2045C364.122 53.2045 363.344 52.9936 362.675 52.5717C362.01 52.1499 361.49 51.5597 361.115 50.8011C360.744 50.0426 360.559 49.1562 360.559 48.142C360.559 47.1193 360.744 46.2266 361.115 45.4638C361.49 44.701 362.01 44.1087 362.675 43.6868C363.344 43.2649 364.122 43.054 365.008 43.054C365.894 43.054 366.67 43.2649 367.335 43.6868C368.004 44.1087 368.524 44.701 368.894 45.4638C369.269 46.2266 369.457 47.1193 369.457 48.142C369.457 49.1562 369.269 50.0426 368.894 50.8011C368.524 51.5597 368.004 52.1499 367.335 52.5717C366.67 52.9936 365.894 53.2045 365.008 53.2045ZM365.008 51.8494C365.681 51.8494 366.235 51.6768 366.67 51.3317C367.105 50.9865 367.426 50.5327 367.635 49.9702C367.844 49.4077 367.948 48.7983 367.948 48.142C367.948 47.4858 367.844 46.8743 367.635 46.3075C367.426 45.7408 367.105 45.2827 366.67 44.9332C366.235 44.5838 365.681 44.4091 365.008 44.4091C364.335 44.4091 363.781 44.5838 363.346 44.9332C362.911 45.2827 362.59 45.7408 362.381 46.3075C362.172 46.8743 362.068 47.4858 362.068 48.142C362.068 48.7983 362.172 49.4077 362.381 49.9702C362.59 50.5327 362.911 50.9865 363.346 51.3317C363.781 51.6768 364.335 51.8494 365.008 51.8494ZM373.268 47.0938V53H371.76V43.1818H373.217V44.7159H373.345C373.575 44.2173 373.924 43.8168 374.393 43.5142C374.862 43.2074 375.467 43.054 376.208 43.054C376.873 43.054 377.455 43.1903 377.953 43.4631C378.452 43.7315 378.84 44.1406 379.117 44.6903C379.394 45.2358 379.532 45.9261 379.532 46.7614V53H378.024V46.8636C378.024 46.0923 377.824 45.4915 377.423 45.0611C377.022 44.6264 376.473 44.4091 375.774 44.4091C375.292 44.4091 374.862 44.5135 374.483 44.7223C374.108 44.9311 373.811 45.2358 373.594 45.6364C373.377 46.0369 373.268 46.5227 373.268 47.0938ZM389.966 43.1818L386.335 53H384.801L381.17 43.1818H382.807L385.517 51.0057H385.619L388.329 43.1818H389.966ZM395.722 53.2045C394.776 53.2045 393.96 52.9957 393.274 52.5781C392.592 52.1562 392.066 51.5682 391.695 50.8139C391.328 50.0554 391.145 49.1733 391.145 48.1676C391.145 47.1619 391.328 46.2756 391.695 45.5085C392.066 44.7372 392.581 44.1364 393.242 43.706C393.906 43.2713 394.682 43.054 395.568 43.054C396.08 43.054 396.585 43.1392 397.083 43.3097C397.582 43.4801 398.036 43.7571 398.445 44.1406C398.854 44.5199 399.18 45.0227 399.423 45.6491C399.666 46.2756 399.787 47.0469 399.787 47.9631V48.6023H392.219V47.2983H398.253C398.253 46.7443 398.142 46.25 397.921 45.8153C397.703 45.3807 397.392 45.0376 396.987 44.7862C396.587 44.5348 396.114 44.4091 395.568 44.4091C394.968 44.4091 394.448 44.5582 394.009 44.8565C393.574 45.1506 393.24 45.5341 393.005 46.0071C392.771 46.4801 392.654 46.9872 392.654 47.5284V48.3977C392.654 49.1392 392.781 49.7678 393.037 50.2834C393.297 50.7947 393.657 51.1847 394.117 51.4531C394.578 51.7173 395.112 51.8494 395.722 51.8494C396.118 51.8494 396.476 51.794 396.796 51.6832C397.119 51.5682 397.399 51.3977 397.633 51.1719C397.867 50.9418 398.048 50.6562 398.176 50.3153L399.634 50.7244C399.48 51.2188 399.222 51.6534 398.86 52.0284C398.498 52.3991 398.051 52.6889 397.518 52.8977C396.985 53.1023 396.387 53.2045 395.722 53.2045ZM402.082 53V43.1818H403.539V44.6648H403.642C403.82 44.179 404.144 43.7848 404.613 43.4822C405.082 43.1797 405.61 43.0284 406.198 43.0284C406.309 43.0284 406.448 43.0305 406.614 43.0348C406.78 43.0391 406.906 43.0455 406.991 43.054V44.5881C406.94 44.5753 406.823 44.5561 406.639 44.5305C406.46 44.5007 406.271 44.4858 406.07 44.4858C405.593 44.4858 405.167 44.5859 404.792 44.7862C404.421 44.9822 404.127 45.255 403.91 45.6044C403.697 45.9496 403.59 46.3437 403.59 46.7869V53H402.082ZM413.664 43.1818V44.4602H408.576V43.1818H413.664ZM410.059 40.8295H411.568V50.1875C411.568 50.6136 411.629 50.9332 411.753 51.1463C411.881 51.3551 412.043 51.4957 412.239 51.5682C412.439 51.6364 412.65 51.6705 412.872 51.6705C413.038 51.6705 413.174 51.6619 413.281 51.6449C413.387 51.6236 413.472 51.6065 413.536 51.5938L413.843 52.9489C413.741 52.9872 413.598 53.0256 413.415 53.0639C413.232 53.1065 412.999 53.1278 412.718 53.1278C412.292 53.1278 411.874 53.0362 411.465 52.853C411.061 52.6697 410.724 52.3906 410.455 52.0156C410.191 51.6406 410.059 51.1676 410.059 50.5966V40.8295ZM419.944 53.2045C418.998 53.2045 418.182 52.9957 417.496 52.5781C416.814 52.1562 416.288 51.5682 415.917 50.8139C415.551 50.0554 415.368 49.1733 415.368 48.1676C415.368 47.1619 415.551 46.2756 415.917 45.5085C416.288 44.7372 416.804 44.1364 417.464 43.706C418.129 43.2713 418.905 43.054 419.791 43.054C420.302 43.054 420.807 43.1392 421.306 43.3097C421.805 43.4801 422.258 43.7571 422.667 44.1406C423.077 44.5199 423.403 45.0227 423.645 45.6491C423.888 46.2756 424.01 47.0469 424.01 47.9631V48.6023H416.442V47.2983H422.476C422.476 46.7443 422.365 46.25 422.143 45.8153C421.926 45.3807 421.615 45.0376 421.21 44.7862C420.809 44.5348 420.336 44.4091 419.791 44.4091C419.19 44.4091 418.67 44.5582 418.231 44.8565C417.797 45.1506 417.462 45.5341 417.228 46.0071C416.993 46.4801 416.876 46.9872 416.876 47.5284V48.3977C416.876 49.1392 417.004 49.7678 417.26 50.2834C417.52 50.7947 417.88 51.1847 418.34 51.4531C418.8 51.7173 419.335 51.8494 419.944 51.8494C420.341 51.8494 420.699 51.794 421.018 51.6832C421.342 51.5682 421.621 51.3977 421.856 51.1719C422.09 50.9418 422.271 50.6562 422.399 50.3153L423.856 50.7244C423.703 51.2188 423.445 51.6534 423.083 52.0284C422.721 52.3991 422.273 52.6889 421.741 52.8977C421.208 53.1023 420.609 53.2045 419.944 53.2045ZM430.012 53.2045C429.194 53.2045 428.471 52.9979 427.845 52.5845C427.219 52.1669 426.729 51.5788 426.375 50.8203C426.021 50.0575 425.844 49.1562 425.844 48.1165C425.844 47.0852 426.021 46.1903 426.375 45.4318C426.729 44.6733 427.221 44.0874 427.851 43.674C428.482 43.2607 429.211 43.054 430.037 43.054C430.677 43.054 431.182 43.1605 431.552 43.3736C431.927 43.5824 432.213 43.821 432.409 44.0895C432.609 44.3537 432.765 44.571 432.876 44.7415H433.003V39.9091H434.512V53H433.055V51.4915H432.876C432.765 51.6705 432.607 51.8963 432.403 52.169C432.198 52.4375 431.906 52.6783 431.527 52.8913C431.148 53.1001 430.643 53.2045 430.012 53.2045ZM430.216 51.8494C430.822 51.8494 431.333 51.6918 431.751 51.3764C432.168 51.0568 432.486 50.6158 432.703 50.0533C432.92 49.4865 433.029 48.8324 433.029 48.0909C433.029 47.358 432.922 46.7166 432.709 46.1669C432.496 45.6129 432.181 45.1825 431.763 44.8757C431.346 44.5646 430.83 44.4091 430.216 44.4091C429.577 44.4091 429.045 44.5732 428.618 44.9013C428.197 45.2251 427.879 45.6662 427.666 46.2244C427.457 46.7784 427.353 47.4006 427.353 48.0909C427.353 48.7898 427.459 49.4247 427.672 49.9957C427.89 50.5625 428.209 51.0142 428.631 51.3509C429.057 51.6832 429.586 51.8494 430.216 51.8494ZM442.751 53V39.9091H444.336V51.5938H450.422V53H442.751ZM456.788 53.2045C455.842 53.2045 455.026 52.9957 454.34 52.5781C453.658 52.1562 453.132 51.5682 452.761 50.8139C452.395 50.0554 452.211 49.1733 452.211 48.1676C452.211 47.1619 452.395 46.2756 452.761 45.5085C453.132 44.7372 453.648 44.1364 454.308 43.706C454.973 43.2713 455.748 43.054 456.635 43.054C457.146 43.054 457.651 43.1392 458.15 43.3097C458.648 43.4801 459.102 43.7571 459.511 44.1406C459.92 44.5199 460.246 45.0227 460.489 45.6491C460.732 46.2756 460.854 47.0469 460.854 47.9631V48.6023H453.285V47.2983H459.319C459.319 46.7443 459.209 46.25 458.987 45.8153C458.77 45.3807 458.459 45.0376 458.054 44.7862C457.653 44.5348 457.18 44.4091 456.635 44.4091C456.034 44.4091 455.514 44.5582 455.075 44.8565C454.64 45.1506 454.306 45.5341 454.072 46.0071C453.837 46.4801 453.72 46.9872 453.72 47.5284V48.3977C453.72 49.1392 453.848 49.7678 454.104 50.2834C454.363 50.7947 454.724 51.1847 455.184 51.4531C455.644 51.7173 456.179 51.8494 456.788 51.8494C457.184 51.8494 457.542 51.794 457.862 51.6832C458.186 51.5682 458.465 51.3977 458.699 51.1719C458.934 50.9418 459.115 50.6562 459.243 50.3153L460.7 50.7244C460.547 51.2188 460.289 51.6534 459.927 52.0284C459.564 52.3991 459.117 52.6889 458.584 52.8977C458.052 53.1023 457.453 53.2045 456.788 53.2045ZM466.037 53.2301C465.415 53.2301 464.851 53.1129 464.344 52.8786C463.836 52.6399 463.434 52.2969 463.135 51.8494C462.837 51.3977 462.688 50.8523 462.688 50.2131C462.688 49.6506 462.799 49.1946 463.02 48.8452C463.242 48.4915 463.538 48.2145 463.909 48.0142C464.28 47.8139 464.689 47.6648 465.136 47.5668C465.588 47.4645 466.042 47.3835 466.498 47.3239C467.094 47.2472 467.578 47.1896 467.949 47.1513C468.324 47.1087 468.596 47.0384 468.767 46.9403C468.942 46.8423 469.029 46.6719 469.029 46.429V46.3778C469.029 45.7472 468.856 45.2571 468.511 44.9077C468.17 44.5582 467.653 44.3835 466.958 44.3835C466.238 44.3835 465.673 44.5412 465.264 44.8565C464.855 45.1719 464.567 45.5085 464.401 45.8665L462.969 45.3551C463.225 44.7585 463.566 44.294 463.992 43.9616C464.422 43.625 464.891 43.3906 465.398 43.2585C465.91 43.1222 466.412 43.054 466.907 43.054C467.222 43.054 467.584 43.0923 467.993 43.169C468.407 43.2415 468.805 43.3928 469.189 43.6229C469.577 43.853 469.898 44.2003 470.154 44.6648C470.41 45.1293 470.537 45.7514 470.537 46.5312V53H469.029V51.6705H468.952C468.85 51.8835 468.68 52.1115 468.441 52.3544C468.202 52.5973 467.885 52.804 467.488 52.9744C467.092 53.1449 466.608 53.2301 466.037 53.2301ZM466.268 51.875C466.864 51.875 467.367 51.7578 467.776 51.5234C468.189 51.2891 468.501 50.9865 468.709 50.6158C468.922 50.245 469.029 49.8551 469.029 49.446V48.0653C468.965 48.142 468.824 48.2124 468.607 48.2763C468.394 48.3359 468.147 48.3892 467.866 48.4361C467.589 48.4787 467.318 48.517 467.054 48.5511C466.794 48.581 466.583 48.6065 466.421 48.6278C466.029 48.679 465.662 48.7621 465.322 48.8771C464.985 48.9879 464.712 49.1562 464.503 49.3821C464.299 49.6037 464.197 49.9062 464.197 50.2898C464.197 50.8139 464.39 51.2102 464.778 51.4787C465.17 51.7429 465.667 51.875 466.268 51.875ZM476.998 53.2045C476.18 53.2045 475.458 52.9979 474.831 52.5845C474.205 52.1669 473.715 51.5788 473.361 50.8203C473.007 50.0575 472.831 49.1562 472.831 48.1165C472.831 47.0852 473.007 46.1903 473.361 45.4318C473.715 44.6733 474.207 44.0874 474.838 43.674C475.468 43.2607 476.197 43.054 477.024 43.054C477.663 43.054 478.168 43.1605 478.539 43.3736C478.914 43.5824 479.199 43.821 479.395 44.0895C479.596 44.3537 479.751 44.571 479.862 44.7415H479.99V39.9091H481.498V53H480.041V51.4915H479.862C479.751 51.6705 479.593 51.8963 479.389 52.169C479.184 52.4375 478.892 52.6783 478.513 52.8913C478.134 53.1001 477.629 53.2045 476.998 53.2045ZM477.203 51.8494C477.808 51.8494 478.319 51.6918 478.737 51.3764C479.154 51.0568 479.472 50.6158 479.689 50.0533C479.907 49.4865 480.015 48.8324 480.015 48.0909C480.015 47.358 479.909 46.7166 479.696 46.1669C479.483 45.6129 479.167 45.1825 478.75 44.8757C478.332 44.5646 477.816 44.4091 477.203 44.4091C476.564 44.4091 476.031 44.5732 475.605 44.9013C475.183 45.2251 474.865 45.6662 474.652 46.2244C474.444 46.7784 474.339 47.4006 474.339 48.0909C474.339 48.7898 474.446 49.4247 474.659 49.9957C474.876 50.5625 475.196 51.0142 475.618 51.3509C476.044 51.6832 476.572 51.8494 477.203 51.8494Z" fill="#70B6C1"/>
<path d="M46.3008 82.2187C45.1341 82.2187 44.0951 82.0182 43.1836 81.6172C42.2773 81.2109 41.5612 80.6536 41.0352 79.9453C40.5143 79.2318 40.2461 78.4089 40.2305 77.4766H43.6367C43.6576 77.8672 43.7852 78.2109 44.0195 78.5078C44.2591 78.7995 44.5768 79.026 44.9727 79.1875C45.3685 79.349 45.8138 79.4297 46.3086 79.4297C46.8242 79.4297 47.2799 79.3385 47.6758 79.1562C48.0716 78.974 48.3815 78.7214 48.6055 78.3984C48.8294 78.0755 48.9414 77.7031 48.9414 77.2812C48.9414 76.8542 48.8216 76.4766 48.582 76.1484C48.3477 75.8151 48.0091 75.5547 47.5664 75.3672C47.1289 75.1797 46.6081 75.0859 46.0039 75.0859H44.5117V72.6016H46.0039C46.5143 72.6016 46.9648 72.513 47.3555 72.3359C47.7513 72.1589 48.0586 71.9141 48.2773 71.6016C48.4961 71.2839 48.6055 70.9141 48.6055 70.4922C48.6055 70.0911 48.5091 69.7396 48.3164 69.4375C48.1289 69.1302 47.8633 68.8906 47.5195 68.7187C47.181 68.5469 46.7852 68.4609 46.332 68.4609C45.8737 68.4609 45.4544 68.5443 45.0742 68.7109C44.694 68.8724 44.3893 69.1042 44.1602 69.4062C43.931 69.7083 43.8086 70.0625 43.793 70.4687H40.5508C40.5664 69.5469 40.8294 68.7344 41.3398 68.0312C41.8503 67.3281 42.5378 66.7786 43.4023 66.3828C44.2721 65.9818 45.2539 65.7812 46.3477 65.7812C47.4518 65.7812 48.418 65.9818 49.2461 66.3828C50.0742 66.7839 50.7174 67.3255 51.1758 68.0078C51.6393 68.6849 51.8685 69.4453 51.8633 70.2891C51.8685 71.1849 51.5898 71.9323 51.0273 72.5312C50.4701 73.1302 49.7435 73.5104 48.8477 73.6719V73.7969C50.0247 73.9479 50.9206 74.3568 51.5352 75.0234C52.1549 75.6849 52.4622 76.513 52.457 77.5078C52.4622 78.4193 52.1992 79.2292 51.668 79.9375C51.1419 80.6458 50.4154 81.2031 49.4883 81.6094C48.5612 82.0156 47.4987 82.2187 46.3008 82.2187ZM54.8887 82V79.5625L60.584 74.2891C61.0684 73.8203 61.4746 73.3984 61.8027 73.0234C62.1361 72.6484 62.3887 72.2812 62.5605 71.9219C62.7324 71.5573 62.8184 71.1641 62.8184 70.7422C62.8184 70.2734 62.7116 69.8698 62.498 69.5312C62.2845 69.1875 61.9928 68.9245 61.623 68.7422C61.2533 68.5547 60.834 68.4609 60.3652 68.4609C59.8757 68.4609 59.4486 68.5599 59.084 68.7578C58.7194 68.9557 58.4382 69.2396 58.2402 69.6094C58.0423 69.9792 57.9434 70.4193 57.9434 70.9297H54.7324C54.7324 69.8828 54.9694 68.974 55.4434 68.2031C55.9173 67.4323 56.5814 66.8359 57.4355 66.4141C58.2897 65.9922 59.2741 65.7812 60.3887 65.7812C61.5345 65.7812 62.5319 65.9844 63.3809 66.3906C64.235 66.7917 64.8991 67.349 65.373 68.0625C65.847 68.776 66.084 69.5937 66.084 70.5156C66.084 71.1198 65.9642 71.7161 65.7246 72.3047C65.4902 72.8932 65.071 73.5469 64.4668 74.2656C63.8626 74.9792 63.0111 75.8359 61.9121 76.8359L59.5762 79.125V79.2344H66.2949V82H54.8887ZM72.3945 79.8125L72.3086 80.6719C72.2409 81.3594 72.1107 82.0443 71.918 82.7266C71.7305 83.4141 71.5326 84.0365 71.3242 84.5938C71.1211 85.151 70.957 85.5885 70.832 85.9063H68.6758C68.7539 85.599 68.8607 85.1693 68.9961 84.6172C69.1315 84.0703 69.2591 83.4557 69.3789 82.7734C69.4987 82.0911 69.5742 81.3958 69.6055 80.6875L69.6445 79.8125H72.3945ZM81.0352 82.3516C79.6914 82.3464 78.5352 82.0156 77.5664 81.3594C76.6029 80.7031 75.8607 79.7526 75.3398 78.5078C74.8242 77.263 74.569 75.7656 74.5742 74.0156C74.5742 72.2708 74.832 70.7839 75.3477 69.5547C75.8685 68.3255 76.6107 67.3906 77.5742 66.75C78.543 66.1042 79.6966 65.7812 81.0352 65.7812C82.3737 65.7812 83.5247 66.1042 84.4883 66.75C85.457 67.3958 86.2018 68.3333 86.7227 69.5625C87.2435 70.7865 87.5013 72.2708 87.4961 74.0156C87.4961 75.7708 87.2357 77.2708 86.7148 78.5156C86.1992 79.7604 85.4596 80.7109 84.4961 81.3672C83.5326 82.0234 82.3789 82.3516 81.0352 82.3516ZM81.0352 79.5469C81.9518 79.5469 82.6836 79.0859 83.2305 78.1641C83.7773 77.2422 84.0482 75.8594 84.043 74.0156C84.043 72.8021 83.918 71.7917 83.668 70.9844C83.4232 70.1771 83.0742 69.5703 82.6211 69.1641C82.1732 68.7578 81.6445 68.5547 81.0352 68.5547C80.1237 68.5547 79.3945 69.0104 78.8477 69.9219C78.3008 70.8333 78.0247 72.1979 78.0195 74.0156C78.0195 75.2448 78.1419 76.2708 78.3867 77.0937C78.6367 77.9115 78.9883 78.526 79.4414 78.9375C79.8945 79.3437 80.4258 79.5469 81.0352 79.5469ZM96.1816 82.3516C94.8379 82.3464 93.6816 82.0156 92.7129 81.3594C91.7493 80.7031 91.0072 79.7526 90.4863 78.5078C89.9707 77.263 89.7155 75.7656 89.7207 74.0156C89.7207 72.2708 89.9785 70.7839 90.4941 69.5547C91.015 68.3255 91.7572 67.3906 92.7207 66.75C93.6895 66.1042 94.8431 65.7812 96.1816 65.7812C97.5202 65.7812 98.6712 66.1042 99.6348 66.75C100.604 67.3958 101.348 68.3333 101.869 69.5625C102.39 70.7865 102.648 72.2708 102.643 74.0156C102.643 75.7708 102.382 77.2708 101.861 78.5156C101.346 79.7604 100.606 80.7109 99.6426 81.3672C98.679 82.0234 97.5254 82.3516 96.1816 82.3516ZM96.1816 79.5469C97.0983 79.5469 97.8301 79.0859 98.377 78.1641C98.9238 77.2422 99.1947 75.8594 99.1895 74.0156C99.1895 72.8021 99.0645 71.7917 98.8145 70.9844C98.5697 70.1771 98.2207 69.5703 97.7676 69.1641C97.3197 68.7578 96.791 68.5547 96.1816 68.5547C95.2702 68.5547 94.541 69.0104 93.9941 69.9219C93.4473 70.8333 93.1712 72.1979 93.166 74.0156C93.166 75.2448 93.2884 76.2708 93.5332 77.0937C93.7832 77.9115 94.1348 78.526 94.5879 78.9375C95.041 79.3437 95.5723 79.5469 96.1816 79.5469ZM111.328 82.3516C109.984 82.3464 108.828 82.0156 107.859 81.3594C106.896 80.7031 106.154 79.7526 105.633 78.5078C105.117 77.263 104.862 75.7656 104.867 74.0156C104.867 72.2708 105.125 70.7839 105.641 69.5547C106.161 68.3255 106.904 67.3906 107.867 66.75C108.836 66.1042 109.99 65.7812 111.328 65.7812C112.667 65.7812 113.818 66.1042 114.781 66.75C115.75 67.3958 116.495 68.3333 117.016 69.5625C117.536 70.7865 117.794 72.2708 117.789 74.0156C117.789 75.7708 117.529 77.2708 117.008 78.5156C116.492 79.7604 115.753 80.7109 114.789 81.3672C113.826 82.0234 112.672 82.3516 111.328 82.3516ZM111.328 79.5469C112.245 79.5469 112.977 79.0859 113.523 78.1641C114.07 77.2422 114.341 75.8594 114.336 74.0156C114.336 72.8021 114.211 71.7917 113.961 70.9844C113.716 70.1771 113.367 69.5703 112.914 69.1641C112.466 68.7578 111.938 68.5547 111.328 68.5547C110.417 68.5547 109.688 69.0104 109.141 69.9219C108.594 70.8333 108.318 72.1979 108.312 74.0156C108.312 75.2448 108.435 76.2708 108.68 77.0937C108.93 77.9115 109.281 78.526 109.734 78.9375C110.187 79.3437 110.719 79.5469 111.328 79.5469Z" fill="#1E1B39"/>
<path d="M39.9592 41.3153V39.9091H49.7773V41.3153H45.6609V53H44.0756V41.3153H39.9592ZM54.5842 53.2045C53.6978 53.2045 52.9201 52.9936 52.2511 52.5717C51.5863 52.1499 51.0664 51.5597 50.6914 50.8011C50.3207 50.0426 50.1353 49.1562 50.1353 48.142C50.1353 47.1193 50.3207 46.2266 50.6914 45.4638C51.0664 44.701 51.5863 44.1087 52.2511 43.6868C52.9201 43.2649 53.6978 43.054 54.5842 43.054C55.4705 43.054 56.2461 43.2649 56.9109 43.6868C57.5799 44.1087 58.0998 44.701 58.4705 45.4638C58.8455 46.2266 59.033 47.1193 59.033 48.142C59.033 49.1562 58.8455 50.0426 58.4705 50.8011C58.0998 51.5597 57.5799 52.1499 56.9109 52.5717C56.2461 52.9936 55.4705 53.2045 54.5842 53.2045ZM54.5842 51.8494C55.2575 51.8494 55.8114 51.6768 56.2461 51.3317C56.6808 50.9865 57.0025 50.5327 57.2113 49.9702C57.4201 49.4077 57.5245 48.7983 57.5245 48.142C57.5245 47.4858 57.4201 46.8743 57.2113 46.3075C57.0025 45.7408 56.6808 45.2827 56.2461 44.9332C55.8114 44.5838 55.2575 44.4091 54.5842 44.4091C53.9109 44.4091 53.3569 44.5838 52.9222 44.9332C52.4876 45.2827 52.1658 45.7408 51.957 46.3075C51.7482 46.8743 51.6438 47.4858 51.6438 48.142C51.6438 48.7983 51.7482 49.4077 51.957 49.9702C52.1658 50.5327 52.4876 50.9865 52.9222 51.3317C53.3569 51.6768 53.9109 51.8494 54.5842 51.8494ZM65.6056 43.1818V44.4602H60.5176V43.1818H65.6056ZM62.0005 40.8295H63.5091V50.1875C63.5091 50.6136 63.5708 50.9332 63.6944 51.1463C63.8223 51.3551 63.9842 51.4957 64.1802 51.5682C64.3805 51.6364 64.5914 51.6705 64.813 51.6705C64.9792 51.6705 65.1156 51.6619 65.2221 51.6449C65.3287 51.6236 65.4139 51.6065 65.4778 51.5938L65.7846 52.9489C65.6824 52.9872 65.5396 53.0256 65.3564 53.0639C65.1731 53.1065 64.9409 53.1278 64.6596 53.1278C64.2335 53.1278 63.8159 53.0362 63.4068 52.853C63.002 52.6697 62.6653 52.3906 62.3968 52.0156C62.1326 51.6406 62.0005 51.1676 62.0005 50.5966V40.8295ZM70.764 53.2301C70.1419 53.2301 69.5772 53.1129 69.0701 52.8786C68.563 52.6399 68.1603 52.2969 67.862 51.8494C67.5637 51.3977 67.4146 50.8523 67.4146 50.2131C67.4146 49.6506 67.5254 49.1946 67.747 48.8452C67.9686 48.4915 68.2647 48.2145 68.6355 48.0142C69.0062 47.8139 69.4153 47.6648 69.8627 47.5668C70.3145 47.4645 70.7683 47.3835 71.2243 47.3239C71.8208 47.2472 72.3045 47.1896 72.6752 47.1513C73.0502 47.1087 73.323 47.0384 73.4934 46.9403C73.6681 46.8423 73.7555 46.6719 73.7555 46.429V46.3778C73.7555 45.7472 73.5829 45.2571 73.2377 44.9077C72.8968 44.5582 72.3791 44.3835 71.6845 44.3835C70.9643 44.3835 70.3997 44.5412 69.9906 44.8565C69.5815 45.1719 69.2939 45.5085 69.1277 45.8665L67.6958 45.3551C67.9515 44.7585 68.2924 44.294 68.7186 43.9616C69.149 43.625 69.6177 43.3906 70.1248 43.2585C70.6362 43.1222 71.139 43.054 71.6333 43.054C71.9487 43.054 72.3109 43.0923 72.72 43.169C73.1333 43.2415 73.5318 43.3928 73.9153 43.6229C74.3031 43.853 74.6248 44.2003 74.8805 44.6648C75.1362 45.1293 75.264 45.7514 75.264 46.5312V53H73.7555V51.6705H73.6788C73.5765 51.8835 73.4061 52.1115 73.1674 52.3544C72.9288 52.5973 72.6113 52.804 72.215 52.9744C71.8187 53.1449 71.3351 53.2301 70.764 53.2301ZM70.9941 51.875C71.5907 51.875 72.0936 51.7578 72.5027 51.5234C72.916 51.2891 73.2271 50.9865 73.4359 50.6158C73.649 50.245 73.7555 49.8551 73.7555 49.446V48.0653C73.6916 48.142 73.551 48.2124 73.3336 48.2763C73.1206 48.3359 72.8734 48.3892 72.5922 48.4361C72.3152 48.4787 72.0446 48.517 71.7804 48.5511C71.5204 48.581 71.3095 48.6065 71.1476 48.6278C70.7555 48.679 70.389 48.7621 70.0481 48.8771C69.7115 48.9879 69.4387 49.1562 69.2299 49.3821C69.0254 49.6037 68.9231 49.9062 68.9231 50.2898C68.9231 50.8139 69.117 51.2102 69.5048 51.4787C69.8968 51.7429 70.3933 51.875 70.9941 51.875ZM79.5259 39.9091V53H78.0174V39.9091H79.5259ZM87.5559 53V39.9091H89.1412V51.5938H95.2264V53H87.5559ZM101.593 53.2045C100.647 53.2045 99.8308 52.9957 99.1447 52.5781C98.4629 52.1562 97.9366 51.5682 97.5659 50.8139C97.1994 50.0554 97.0162 49.1733 97.0162 48.1676C97.0162 47.1619 97.1994 46.2756 97.5659 45.5085C97.9366 44.7372 98.4522 44.1364 99.1127 43.706C99.7775 43.2713 100.553 43.054 101.439 43.054C101.951 43.054 102.456 43.1392 102.954 43.3097C103.453 43.4801 103.907 43.7571 104.316 44.1406C104.725 44.5199 105.051 45.0227 105.294 45.6491C105.537 46.2756 105.658 47.0469 105.658 47.9631V48.6023H98.09V47.2983H104.124C104.124 46.7443 104.013 46.25 103.792 45.8153C103.574 45.3807 103.263 45.0376 102.858 44.7862C102.458 44.5348 101.985 44.4091 101.439 44.4091C100.839 44.4091 100.319 44.5582 99.8798 44.8565C99.4451 45.1506 99.1106 45.5341 98.8762 46.0071C98.6419 46.4801 98.5247 46.9872 98.5247 47.5284V48.3977C98.5247 49.1392 98.6525 49.7678 98.9082 50.2834C99.1681 50.7947 99.5282 51.1847 99.9885 51.4531C100.449 51.7173 100.983 51.8494 101.593 51.8494C101.989 51.8494 102.347 51.794 102.667 51.6832C102.991 51.5682 103.27 51.3977 103.504 51.1719C103.738 50.9418 103.92 50.6562 104.047 50.3153L105.505 50.7244C105.351 51.2188 105.094 51.6534 104.731 52.0284C104.369 52.3991 103.922 52.6889 103.389 52.8977C102.856 53.1023 102.258 53.2045 101.593 53.2045ZM110.842 53.2301C110.22 53.2301 109.655 53.1129 109.148 52.8786C108.641 52.6399 108.238 52.2969 107.94 51.8494C107.642 51.3977 107.493 50.8523 107.493 50.2131C107.493 49.6506 107.604 49.1946 107.825 48.8452C108.047 48.4915 108.343 48.2145 108.714 48.0142C109.084 47.8139 109.493 47.6648 109.941 47.5668C110.393 47.4645 110.846 47.3835 111.302 47.3239C111.899 47.2472 112.383 47.1896 112.753 47.1513C113.128 47.1087 113.401 47.0384 113.572 46.9403C113.746 46.8423 113.834 46.6719 113.834 46.429V46.3778C113.834 45.7472 113.661 45.2571 113.316 44.9077C112.975 44.5582 112.457 44.3835 111.763 44.3835C111.042 44.3835 110.478 44.5412 110.069 44.8565C109.66 45.1719 109.372 45.5085 109.206 45.8665L107.774 45.3551C108.03 44.7585 108.371 44.294 108.797 43.9616C109.227 43.625 109.696 43.3906 110.203 43.2585C110.714 43.1222 111.217 43.054 111.711 43.054C112.027 43.054 112.389 43.0923 112.798 43.169C113.211 43.2415 113.61 43.3928 113.993 43.6229C114.381 43.853 114.703 44.2003 114.959 44.6648C115.214 45.1293 115.342 45.7514 115.342 46.5312V53H113.834V51.6705H113.757C113.655 51.8835 113.484 52.1115 113.246 52.3544C113.007 52.5973 112.689 52.804 112.293 52.9744C111.897 53.1449 111.413 53.2301 110.842 53.2301ZM111.072 51.875C111.669 51.875 112.172 51.7578 112.581 51.5234C112.994 51.2891 113.305 50.9865 113.514 50.6158C113.727 50.245 113.834 49.8551 113.834 49.446V48.0653C113.77 48.142 113.629 48.2124 113.412 48.2763C113.199 48.3359 112.952 48.3892 112.67 48.4361C112.393 48.4787 112.123 48.517 111.858 48.5511C111.599 48.581 111.388 48.6065 111.226 48.6278C110.834 48.679 110.467 48.7621 110.126 48.8771C109.79 48.9879 109.517 49.1562 109.308 49.3821C109.104 49.6037 109.001 49.9062 109.001 50.2898C109.001 50.8139 109.195 51.2102 109.583 51.4787C109.975 51.7429 110.471 51.875 111.072 51.875ZM121.803 53.2045C120.985 53.2045 120.262 52.9979 119.636 52.5845C119.01 52.1669 118.52 51.5788 118.166 50.8203C117.812 50.0575 117.635 49.1562 117.635 48.1165C117.635 47.0852 117.812 46.1903 118.166 45.4318C118.52 44.6733 119.012 44.0874 119.642 43.674C120.273 43.2607 121.002 43.054 121.828 43.054C122.468 43.054 122.973 43.1605 123.343 43.3736C123.718 43.5824 124.004 43.821 124.2 44.0895C124.4 44.3537 124.556 44.571 124.667 44.7415H124.794V39.9091H126.303V53H124.846V51.4915H124.667C124.556 51.6705 124.398 51.8963 124.194 52.169C123.989 52.4375 123.697 52.6783 123.318 52.8913C122.939 53.1001 122.434 53.2045 121.803 53.2045ZM122.007 51.8494C122.613 51.8494 123.124 51.6918 123.542 51.3764C123.959 51.0568 124.277 50.6158 124.494 50.0533C124.711 49.4865 124.82 48.8324 124.82 48.0909C124.82 47.358 124.713 46.7166 124.5 46.1669C124.287 45.6129 123.972 45.1825 123.554 44.8757C123.137 44.5646 122.621 44.4091 122.007 44.4091C121.368 44.4091 120.836 44.5732 120.409 44.9013C119.988 45.2251 119.67 45.6662 119.457 46.2244C119.248 46.7784 119.144 47.4006 119.144 48.0909C119.144 48.7898 119.25 49.4247 119.463 49.9957C119.681 50.5625 120 51.0142 120.422 51.3509C120.848 51.6832 121.377 51.8494 122.007 51.8494ZM136.23 45.3807L134.875 45.7642C134.789 45.5384 134.664 45.3189 134.498 45.1058C134.336 44.8885 134.114 44.7095 133.833 44.5689C133.551 44.4283 133.191 44.358 132.752 44.358C132.152 44.358 131.651 44.4964 131.25 44.7734C130.854 45.0462 130.656 45.3935 130.656 45.8153C130.656 46.1903 130.792 46.4865 131.065 46.7038C131.338 46.9212 131.764 47.1023 132.343 47.2472L133.801 47.6051C134.679 47.8182 135.333 48.1442 135.763 48.5831C136.194 49.0178 136.409 49.5781 136.409 50.2642C136.409 50.8267 136.247 51.3295 135.923 51.7727C135.603 52.2159 135.156 52.5653 134.581 52.821C134.005 53.0767 133.336 53.2045 132.574 53.2045C131.572 53.2045 130.743 52.9872 130.087 52.5526C129.431 52.1179 129.015 51.483 128.841 50.6477L130.272 50.2898C130.409 50.8182 130.667 51.2145 131.046 51.4787C131.429 51.7429 131.93 51.875 132.548 51.875C133.251 51.875 133.809 51.7259 134.223 51.4276C134.64 51.125 134.849 50.7628 134.849 50.3409C134.849 50 134.73 49.7145 134.491 49.4844C134.252 49.25 133.886 49.0753 133.392 48.9602L131.755 48.5767C130.856 48.3636 130.196 48.0334 129.774 47.5859C129.356 47.1342 129.147 46.5696 129.147 45.892C129.147 45.3381 129.303 44.848 129.614 44.4219C129.929 43.9957 130.358 43.6612 130.899 43.4183C131.444 43.1754 132.062 43.054 132.752 43.054C133.724 43.054 134.487 43.267 135.041 43.6932C135.599 44.1193 135.995 44.6818 136.23 45.3807Z" fill="#615E83"/>
<defs>
<filter id="filter0_d_1_469" x="0" y="0" width="522" height="422" filterUnits="userSpaceOnUse" color-interpolation-filters="sRGB">
<feFlood flood-opacity="0" result="BackgroundImageFix"/>
<feColorMatrix in="SourceAlpha" type="matrix" values="0 0 0 0 0 0 0 0 0 0 0 0 0 0 0 0 0 0 127 0" result="hardAlpha"/>
<feOffset dy="2"/>
<feGaussianBlur stdDeviation="3"/>
<feComposite in2="hardAlpha" operator="out"/>
<feColorMatrix type="matrix" values="0 0 0 0 0.0509804 0 0 0 0 0.0392157 0 0 0 0 0.172549 0 0 0 0.08 0"/>
<feBlend mode="normal" in2="BackgroundImageFix" result="effect1_dropShadow_1_469"/>
<feBlend mode="normal" in="SourceGraphic" in2="effect1_dropShadow_1_469" result="shape"/>
</filter>
<filter id="filter1_d_1_469" x="277.025" y="146" width="68.7445" height="68.7445" filterUnits="userSpaceOnUse" color-interpolation-filters="sRGB">
<feFlood flood-opacity="0" result="BackgroundImageFix"/>
<feColorMatrix in="SourceAlpha" type="matrix" values="0 0 0 0 0 0 0 0 0 0 0 0 0 0 0 0 0 0 127 0" result="hardAlpha"/>
<feOffset dy="8"/>
<feGaussianBlur stdDeviation="4"/>
<feComposite in2="hardAlpha" operator="out"/>
<feColorMatrix type="matrix" values="0 0 0 0 0.0509804 0 0 0 0 0.0392157 0 0 0 0 0.172549 0 0 0 0.08 0"/>
<feBlend mode="normal" in2="BackgroundImageFix" result="effect1_dropShadow_1_469"/>
<feBlend mode="normal" in="SourceGraphic" in2="effect1_dropShadow_1_469" result="shape"/>
</filter>
</defs>
</svg>
