<svg width="317" height="19" viewBox="0 0 317 19" fill="none" xmlns="http://www.w3.org/2000/svg">
<path d="M20.233 14V3.81818H21.4659V12.9062H26.1989V14H20.233ZM27.9489 14V6.36364H29.1222V14H27.9489ZM28.5455 5.09091C28.3168 5.09091 28.1196 5.01302 27.9538 4.85724C27.7914 4.70147 27.7102 4.5142 27.7102 4.29545C27.7102 4.0767 27.7914 3.88944 27.9538 3.73366C28.1196 3.57789 28.3168 3.5 28.5455 3.5C28.7741 3.5 28.9697 3.57789 29.1321 3.73366C29.2978 3.88944 29.3807 4.0767 29.3807 4.29545C29.3807 4.5142 29.2978 4.70147 29.1321 4.85724C28.9697 5.01302 28.7741 5.09091 28.5455 5.09091ZM32.3649 11.2159L32.345 9.7642H32.5836L35.9245 6.36364H37.3762L33.8166 9.96307H33.7172L32.3649 11.2159ZM31.2711 14V3.81818H32.4444V14H31.2711ZM36.1234 14L33.1404 10.2216L33.9757 9.40625L37.6149 14H36.1234ZM41.7736 14.1591C41.0378 14.1591 40.4031 13.9967 39.8695 13.6719C39.3392 13.3438 38.9299 12.8864 38.6415 12.2997C38.3565 11.7098 38.214 11.0237 38.214 10.2415C38.214 9.45928 38.3565 8.76989 38.6415 8.1733C38.9299 7.57339 39.3309 7.10606 39.8446 6.77131C40.3617 6.43324 40.9649 6.2642 41.6543 6.2642C42.052 6.2642 42.4448 6.33049 42.8326 6.46307C43.2203 6.59564 43.5733 6.81108 43.8915 7.10938C44.2097 7.40436 44.4632 7.79545 44.6522 8.28267C44.8411 8.76989 44.9355 9.36979 44.9355 10.0824V10.5795H39.0492V9.56534H43.7424C43.7424 9.13447 43.6562 8.75 43.4838 8.41193C43.3148 8.07386 43.0729 7.80705 42.758 7.61151C42.4464 7.41596 42.0785 7.31818 41.6543 7.31818C41.187 7.31818 40.7826 7.43419 40.4412 7.66619C40.1032 7.89489 39.843 8.19318 39.6607 8.56108C39.4784 8.92898 39.3873 9.32339 39.3873 9.74432V10.4205C39.3873 10.9972 39.4867 11.486 39.6855 11.8871C39.8877 12.2848 40.1678 12.5881 40.5257 12.7969C40.8837 13.0024 41.2997 13.1051 41.7736 13.1051C42.0819 13.1051 42.3603 13.062 42.6088 12.9759C42.8607 12.8864 43.0778 12.7538 43.2601 12.5781C43.4424 12.3991 43.5833 12.1771 43.6827 11.9119L44.8162 12.2301C44.6969 12.6146 44.4964 12.9527 44.2147 13.2443C43.9329 13.5327 43.5849 13.758 43.1706 13.9205C42.7563 14.0795 42.2907 14.1591 41.7736 14.1591Z" fill="#202020"/>
<rect y="6.56348" width="8.75127" height="6.56345" rx="3" fill="#775DA6"/>
<g clip-path="url(#clip0_1_422)">
<path d="M141.099 7H139.866C139.793 6.64536 139.665 6.33381 139.483 6.06534C139.304 5.79688 139.085 5.5715 138.827 5.3892C138.571 5.2036 138.288 5.06439 137.977 4.97159C137.665 4.87879 137.34 4.83239 137.002 4.83239C136.386 4.83239 135.827 4.98816 135.327 5.29972C134.83 5.61127 134.433 6.07031 134.138 6.67685C133.847 7.28338 133.701 8.02746 133.701 8.90909C133.701 9.79072 133.847 10.5348 134.138 11.1413C134.433 11.7479 134.83 12.2069 135.327 12.5185C135.827 12.83 136.386 12.9858 137.002 12.9858C137.34 12.9858 137.665 12.9394 137.977 12.8466C138.288 12.7538 138.571 12.6162 138.827 12.4339C139.085 12.2483 139.304 12.0213 139.483 11.7528C139.665 11.4811 139.793 11.1695 139.866 10.8182H141.099C141.006 11.3385 140.837 11.8042 140.592 12.2152C140.346 12.6262 140.041 12.9759 139.677 13.2642C139.312 13.5492 138.903 13.7663 138.449 13.9155C137.998 14.0646 137.516 14.1392 137.002 14.1392C136.134 14.1392 135.361 13.9271 134.685 13.5028C134.009 13.0786 133.477 12.4754 133.089 11.6932C132.702 10.911 132.508 9.98295 132.508 8.90909C132.508 7.83523 132.702 6.9072 133.089 6.125C133.477 5.3428 134.009 4.73958 134.685 4.31534C135.361 3.8911 136.134 3.67898 137.002 3.67898C137.516 3.67898 137.998 3.75355 138.449 3.9027C138.903 4.05185 139.312 4.2706 139.677 4.55895C140.041 4.84399 140.346 5.192 140.592 5.60298C140.837 6.01065 141.006 6.47633 141.099 7ZM146.034 14.1591C145.345 14.1591 144.74 13.995 144.22 13.6669C143.703 13.3388 143.298 12.8797 143.007 12.2898C142.718 11.6998 142.574 11.0104 142.574 10.2216C142.574 9.42614 142.718 8.73177 143.007 8.13849C143.298 7.54522 143.703 7.08452 144.22 6.75639C144.74 6.42827 145.345 6.2642 146.034 6.2642C146.724 6.2642 147.327 6.42827 147.844 6.75639C148.364 7.08452 148.769 7.54522 149.057 8.13849C149.349 8.73177 149.494 9.42614 149.494 10.2216C149.494 11.0104 149.349 11.6998 149.057 12.2898C148.769 12.8797 148.364 13.3388 147.844 13.6669C147.327 13.995 146.724 14.1591 146.034 14.1591ZM146.034 13.1051C146.558 13.1051 146.989 12.9709 147.327 12.7024C147.665 12.4339 147.915 12.081 148.078 11.6435C148.24 11.206 148.321 10.732 148.321 10.2216C148.321 9.71117 148.24 9.23556 148.078 8.79474C147.915 8.35393 147.665 7.99763 147.327 7.72585C146.989 7.45407 146.558 7.31818 146.034 7.31818C145.511 7.31818 145.08 7.45407 144.742 7.72585C144.404 7.99763 144.153 8.35393 143.991 8.79474C143.829 9.23556 143.747 9.71117 143.747 10.2216C143.747 10.732 143.829 11.206 143.991 11.6435C144.153 12.081 144.404 12.4339 144.742 12.7024C145.08 12.9709 145.511 13.1051 146.034 13.1051ZM151.285 14V6.36364H152.419V7.55682H152.518C152.678 7.14915 152.934 6.83262 153.289 6.60724C153.644 6.37855 154.07 6.2642 154.567 6.2642C155.071 6.2642 155.49 6.37855 155.825 6.60724C156.163 6.83262 156.426 7.14915 156.615 7.55682H156.695C156.89 7.16241 157.183 6.84919 157.575 6.61719C157.966 6.38187 158.435 6.2642 158.981 6.2642C159.664 6.2642 160.223 6.47798 160.657 6.90554C161.091 7.32978 161.308 7.991 161.308 8.8892V14H160.135V8.8892C160.135 8.32576 159.981 7.92306 159.673 7.68111C159.364 7.43916 159.001 7.31818 158.584 7.31818C158.047 7.31818 157.631 7.48059 157.336 7.8054C157.041 8.12689 156.893 8.53456 156.893 9.02841V14H155.7V8.76989C155.7 8.3357 155.559 7.98603 155.278 7.72088C154.996 7.45241 154.633 7.31818 154.189 7.31818C153.884 7.31818 153.599 7.39938 153.334 7.56179C153.072 7.72419 152.86 7.94957 152.697 8.23793C152.538 8.52296 152.459 8.85275 152.459 9.22727V14H151.285ZM163.453 14V6.36364H164.587V7.55682H164.686C164.845 7.14915 165.102 6.83262 165.457 6.60724C165.812 6.37855 166.238 6.2642 166.735 6.2642C167.238 6.2642 167.658 6.37855 167.993 6.60724C168.331 6.83262 168.594 7.14915 168.783 7.55682H168.863C169.058 7.16241 169.351 6.84919 169.743 6.61719C170.134 6.38187 170.603 6.2642 171.149 6.2642C171.832 6.2642 172.391 6.47798 172.825 6.90554C173.259 7.32978 173.476 7.991 173.476 8.8892V14H172.303V8.8892C172.303 8.32576 172.149 7.92306 171.841 7.68111C171.532 7.43916 171.169 7.31818 170.752 7.31818C170.215 7.31818 169.799 7.48059 169.504 7.8054C169.209 8.12689 169.061 8.53456 169.061 9.02841V14H167.868V8.76989C167.868 8.3357 167.727 7.98603 167.446 7.72088C167.164 7.45241 166.801 7.31818 166.357 7.31818C166.052 7.31818 165.767 7.39938 165.502 7.56179C165.24 7.72419 165.028 7.94957 164.865 8.23793C164.706 8.52296 164.627 8.85275 164.627 9.22727V14H163.453ZM178.823 14.1591C178.087 14.1591 177.453 13.9967 176.919 13.6719C176.389 13.3438 175.979 12.8864 175.691 12.2997C175.406 11.7098 175.263 11.0237 175.263 10.2415C175.263 9.45928 175.406 8.76989 175.691 8.1733C175.979 7.57339 176.38 7.10606 176.894 6.77131C177.411 6.43324 178.014 6.2642 178.704 6.2642C179.102 6.2642 179.494 6.33049 179.882 6.46307C180.27 6.59564 180.623 6.81108 180.941 7.10938C181.259 7.40436 181.513 7.79545 181.702 8.28267C181.891 8.76989 181.985 9.36979 181.985 10.0824V10.5795H176.099V9.56534H180.792C180.792 9.13447 180.706 8.75 180.533 8.41193C180.364 8.07386 180.122 7.80705 179.807 7.61151C179.496 7.41596 179.128 7.31818 178.704 7.31818C178.236 7.31818 177.832 7.43419 177.491 7.66619C177.153 7.89489 176.892 8.19318 176.71 8.56108C176.528 8.92898 176.437 9.32339 176.437 9.74432V10.4205C176.437 10.9972 176.536 11.486 176.735 11.8871C176.937 12.2848 177.217 12.5881 177.575 12.7969C177.933 13.0024 178.349 13.1051 178.823 13.1051C179.131 13.1051 179.41 13.062 179.658 12.9759C179.91 12.8864 180.127 12.7538 180.31 12.5781C180.492 12.3991 180.633 12.1771 180.732 11.9119L181.866 12.2301C181.746 12.6146 181.546 12.9527 181.264 13.2443C180.982 13.5327 180.634 13.758 180.22 13.9205C179.806 14.0795 179.34 14.1591 178.823 14.1591ZM184.943 9.40625V14H183.77V6.36364H184.903V7.55682H185.003C185.182 7.16903 185.454 6.85748 185.818 6.62216C186.183 6.38352 186.653 6.2642 187.23 6.2642C187.747 6.2642 188.2 6.37027 188.587 6.58239C188.975 6.79119 189.277 7.10938 189.492 7.53693C189.708 7.96117 189.815 8.49811 189.815 9.14773V14H188.642V9.22727C188.642 8.62737 188.486 8.16004 188.175 7.82528C187.863 7.48722 187.436 7.31818 186.892 7.31818C186.517 7.31818 186.183 7.39938 185.888 7.56179C185.596 7.72419 185.366 7.96117 185.197 8.27273C185.028 8.58428 184.943 8.96212 184.943 9.40625ZM195.28 6.36364V7.35795H191.323V6.36364H195.28ZM192.476 4.53409H193.65V11.8125C193.65 12.1439 193.698 12.3925 193.794 12.5582C193.893 12.7206 194.019 12.83 194.172 12.8864C194.327 12.9394 194.491 12.9659 194.664 12.9659C194.793 12.9659 194.899 12.9593 194.982 12.946C195.065 12.9295 195.131 12.9162 195.181 12.9062L195.42 13.9602C195.34 13.9901 195.229 14.0199 195.086 14.0497C194.944 14.0829 194.763 14.0994 194.545 14.0994C194.213 14.0994 193.888 14.0282 193.57 13.8857C193.255 13.7431 192.993 13.526 192.785 13.2344C192.579 12.9427 192.476 12.5748 192.476 12.1307V4.53409Z" fill="#202020"/>
<rect x="112.673" y="6.56348" width="8.75127" height="6.56345" rx="3" fill="#FFB1B7"/>
</g>
<g clip-path="url(#clip1_1_422)">
<path d="M253.771 7H252.538C252.465 6.64536 252.338 6.33381 252.156 6.06534C251.977 5.79688 251.758 5.5715 251.499 5.3892C251.244 5.2036 250.961 5.06439 250.649 4.97159C250.338 4.87879 250.013 4.83239 249.675 4.83239C249.058 4.83239 248.5 4.98816 247.999 5.29972C247.502 5.61127 247.106 6.07031 246.811 6.67685C246.519 7.28338 246.374 8.02746 246.374 8.90909C246.374 9.79072 246.519 10.5348 246.811 11.1413C247.106 11.7479 247.502 12.2069 247.999 12.5185C248.5 12.83 249.058 12.9858 249.675 12.9858C250.013 12.9858 250.338 12.9394 250.649 12.8466C250.961 12.7538 251.244 12.6162 251.499 12.4339C251.758 12.2483 251.977 12.0213 252.156 11.7528C252.338 11.4811 252.465 11.1695 252.538 10.8182H253.771C253.678 11.3385 253.509 11.8042 253.264 12.2152C253.019 12.6262 252.714 12.9759 252.349 13.2642C251.985 13.5492 251.576 13.7663 251.121 13.9155C250.671 14.0646 250.188 14.1392 249.675 14.1392C248.806 14.1392 248.034 13.9271 247.358 13.5028C246.682 13.0786 246.15 12.4754 245.762 11.6932C245.374 10.911 245.18 9.98295 245.18 8.90909C245.18 7.83523 245.374 6.9072 245.762 6.125C246.15 5.3428 246.682 4.73958 247.358 4.31534C248.034 3.8911 248.806 3.67898 249.675 3.67898C250.188 3.67898 250.671 3.75355 251.121 3.9027C251.576 4.05185 251.985 4.2706 252.349 4.55895C252.714 4.84399 253.019 5.192 253.264 5.60298C253.509 6.01065 253.678 6.47633 253.771 7ZM256.778 9.40625V14H255.605V3.81818H256.778V7.55682H256.877C257.056 7.16241 257.325 6.84919 257.683 6.61719C258.044 6.38187 258.525 6.2642 259.124 6.2642C259.645 6.2642 260.101 6.36861 260.492 6.57741C260.883 6.78291 261.186 7.09943 261.401 7.52699C261.62 7.95123 261.73 8.49148 261.73 9.14773V14H260.556V9.22727C260.556 8.62074 260.399 8.15175 260.084 7.82031C259.772 7.48556 259.34 7.31818 258.786 7.31818C258.402 7.31818 258.057 7.39938 257.752 7.56179C257.451 7.72419 257.212 7.96117 257.036 8.27273C256.864 8.58428 256.778 8.96212 256.778 9.40625ZM266.123 14.179C265.639 14.179 265.2 14.0878 264.806 13.9055C264.411 13.7199 264.098 13.4531 263.866 13.1051C263.634 12.7538 263.518 12.3295 263.518 11.8324C263.518 11.3949 263.604 11.0402 263.777 10.7685C263.949 10.4934 264.179 10.2779 264.468 10.1222C264.756 9.96638 265.074 9.85038 265.422 9.77415C265.774 9.6946 266.127 9.63163 266.481 9.58523C266.945 9.52557 267.321 9.48082 267.61 9.45099C267.901 9.41785 268.114 9.36316 268.246 9.28693C268.382 9.2107 268.45 9.07812 268.45 8.8892V8.84943C268.45 8.3589 268.316 7.97775 268.047 7.70597C267.782 7.43419 267.379 7.2983 266.839 7.2983C266.279 7.2983 265.84 7.42093 265.522 7.66619C265.203 7.91146 264.98 8.1733 264.85 8.4517L263.737 8.05398C263.936 7.58996 264.201 7.22869 264.532 6.97017C264.867 6.70833 265.232 6.52604 265.626 6.4233C266.024 6.31723 266.415 6.2642 266.799 6.2642C267.045 6.2642 267.326 6.29403 267.645 6.35369C267.966 6.41004 268.276 6.5277 268.574 6.70668C268.876 6.88565 269.126 7.15578 269.325 7.51705C269.524 7.87831 269.623 8.36222 269.623 8.96875V14H268.45V12.9659H268.39C268.311 13.1316 268.178 13.3089 267.993 13.4979C267.807 13.6868 267.56 13.8475 267.252 13.9801C266.944 14.1127 266.567 14.179 266.123 14.179ZM266.302 13.125C266.766 13.125 267.157 13.0339 267.475 12.8516C267.797 12.6693 268.039 12.4339 268.201 12.1456C268.367 11.8572 268.45 11.554 268.45 11.2358V10.1619C268.4 10.2216 268.291 10.2763 268.122 10.326C267.956 10.3724 267.764 10.4138 267.545 10.4503C267.33 10.4834 267.119 10.5133 266.914 10.5398C266.712 10.563 266.547 10.5829 266.422 10.5994C266.117 10.6392 265.832 10.7038 265.566 10.7933C265.305 10.8795 265.092 11.0104 264.93 11.1861C264.771 11.3584 264.691 11.5937 264.691 11.892C264.691 12.2997 264.842 12.608 265.144 12.8168C265.449 13.0223 265.835 13.125 266.302 13.125ZM275.086 6.36364V7.35795H271.128V6.36364H275.086ZM272.282 4.53409H273.455V11.8125C273.455 12.1439 273.503 12.3925 273.599 12.5582C273.699 12.7206 273.825 12.83 273.977 12.8864C274.133 12.9394 274.297 12.9659 274.469 12.9659C274.599 12.9659 274.705 12.9593 274.787 12.946C274.87 12.9295 274.937 12.9162 274.986 12.9062L275.225 13.9602C275.145 13.9901 275.034 14.0199 274.892 14.0497C274.749 14.0829 274.569 14.0994 274.35 14.0994C274.019 14.0994 273.694 14.0282 273.376 13.8857C273.061 13.7431 272.799 13.526 272.59 13.2344C272.385 12.9427 272.282 12.5748 272.282 12.1307V4.53409Z" fill="#202020"/>
<rect x="225.345" y="6.56348" width="8.75127" height="6.56345" rx="3" fill="#70B6C1"/>
</g>
<defs>
<clipPath id="clip0_1_422">
<rect width="86.4188" height="18.5964" fill="white" transform="translate(112.673)"/>
</clipPath>
<clipPath id="clip1_1_422">
<rect width="90.7944" height="18.5964" fill="white" transform="translate(225.345)"/>
</clipPath>
</defs>
</svg>
