<svg width="51" height="52" viewBox="0 0 51 52" fill="none" xmlns="http://www.w3.org/2000/svg">
<circle cx="25.5153" cy="25.8354" r="25.446" fill="#F6AC58"/>
<path fill-rule="evenodd" clip-rule="evenodd" d="M31.4011 17.2667L27.2027 17.8665C26.5613 17.9581 26.0373 18.2638 25.6631 18.6863L15.8671 28.4823C14.8734 29.476 14.8733 31.0871 15.8671 32.0809L19.4657 35.6795C20.4595 36.6733 22.0706 36.6732 23.0643 35.6795L32.8603 25.8835C33.2828 25.5093 33.5885 24.9853 33.6802 24.3439L34.2799 20.1455C34.5199 18.4662 33.0804 17.0267 31.4011 17.2667ZM28.4622 23.0844C28.959 23.5812 29.7646 23.5813 30.2615 23.0844C30.7584 22.5875 30.7583 21.7819 30.2615 21.2851C29.7647 20.7883 28.9591 20.7882 28.4622 21.2851C27.9653 21.782 27.9654 22.5876 28.4622 23.0844Z" fill="white"/>
</svg>
