<svg width="24" height="24" viewBox="0 0 24 24" fill="none" xmlns="http://www.w3.org/2000/svg">
<path d="M19.1992 17.1429C18.932 17.1442 18.6685 17.2101 18.4283 17.3357L15.8487 14.5714H13.8V15.8571H15.3514L17.58 18.2454C17.4627 18.5027 17.401 18.785 17.3995 19.0714C17.3995 19.4529 17.505 19.8257 17.7028 20.1429C17.9005 20.46 18.1816 20.7072 18.5105 20.8532C18.8393 20.9992 19.2012 21.0374 19.5503 20.9629C19.8994 20.8885 20.2201 20.7048 20.4718 20.4351C20.7235 20.1654 20.8949 19.8218 20.9644 19.4477C21.0338 19.0736 20.9982 18.6858 20.862 18.3334C20.7257 17.981 20.4951 17.6798 20.1991 17.4679C19.9031 17.256 19.5552 17.1429 19.1992 17.1429ZM19.1992 10.0714C18.8282 10.0726 18.4666 10.1968 18.1642 10.427C17.8617 10.6573 17.6331 10.9822 17.5099 11.3571H13.8V12.6429H17.5099C17.6204 12.9753 17.8141 13.2688 18.0697 13.4913C18.3254 13.7138 18.6332 13.8568 18.9595 13.9045C19.2859 13.9522 19.6181 13.9029 19.9201 13.7619C20.222 13.6209 20.482 13.3937 20.6716 13.1051C20.8612 12.8165 20.9731 12.4777 20.9951 12.1255C21.0172 11.7734 20.9484 11.4215 20.7965 11.1084C20.6445 10.7953 20.4151 10.5329 20.1334 10.3501C19.8517 10.1672 19.5286 10.0708 19.1992 10.0714ZM19.1992 3C18.722 3.00051 18.2645 3.20386 17.9271 3.56543C17.5897 3.927 17.4 4.41724 17.3995 4.92857C17.4015 5.23654 17.4732 5.53939 17.6082 5.81122L15.3574 8.14286H13.8V9.42857H15.8421L18.4817 6.69514C18.7269 6.80972 18.9929 6.86427 19.2602 6.85481C19.5276 6.84535 19.7896 6.77212 20.0272 6.64046C20.2648 6.50879 20.4721 6.32201 20.6338 6.0937C20.7956 5.86539 20.9078 5.60131 20.9623 5.32067C21.0168 5.04003 21.0122 4.7499 20.9488 4.4714C20.8855 4.1929 20.765 3.93304 20.5961 3.71074C20.4272 3.48845 20.2142 3.3093 19.9725 3.18635C19.7309 3.0634 19.4667 2.99974 19.1992 3Z" fill="#808080"/>
<path d="M13.1556 6.12244H14.3V5H13.1556C12.8295 5.00107 12.5074 5.07088 12.2112 5.2047C11.915 5.33851 11.6516 5.53321 11.4389 5.7756C11.2261 5.53321 10.9627 5.33851 10.6666 5.2047C10.3704 5.07088 10.0483 5.00107 9.72222 5H9.15C7.7846 5.00149 6.47556 5.53412 5.51007 6.48103C4.54459 7.42795 4.00151 8.71182 4 10.051V13.4183C4.00151 14.7574 4.54459 16.0413 5.51007 16.9882C6.47556 17.9351 7.7846 18.4677 9.15 18.4692H9.72222C10.0483 18.4682 10.3704 18.3984 10.6666 18.2645C10.9627 18.1307 11.2261 17.936 11.4389 17.6936C11.6516 17.936 11.915 18.1307 12.2112 18.2645C12.5074 18.3984 12.8295 18.4682 13.1556 18.4692H14.3V17.3468H13.1556C12.8521 17.3465 12.5612 17.2281 12.3466 17.0177C12.1321 16.8073 12.0114 16.522 12.0111 16.2244V7.24487C12.0114 6.94727 12.1321 6.66195 12.3466 6.45152C12.5612 6.24109 12.8521 6.12273 13.1556 6.12244Z" fill="#84828A"/>
<path d="M5.27951 10.0421H6.52498C7.35341 10.0421 8.02498 9.37054 8.02498 8.54211V7.68207" stroke="#808080"/>
<path d="M10.7704 13.3919L9.97693 13.3919C9.1485 13.3919 8.47693 14.0635 8.47693 14.8919L8.47693 15.752" stroke="#808080"/>
<path d="M10.7704 11.0317L9.35727 11.0317" stroke="#808080"/>
<path d="M6.69287 13.0078L5.27969 13.0078" stroke="#808080"/>
</svg>
