<svg width="240" height="50" viewBox="0 0 240 50" fill="none" xmlns="http://www.w3.org/2000/svg">
<rect x="0.0908203" y="0.20459" width="239.25" height="49" rx="24.5" fill="#F8F8FF"/>
<path d="M166.756 19.0228H168.227L171.688 27.4745H171.807L175.267 19.0228H176.739V29.2046H175.585V21.4688H175.486L172.304 29.2046H171.191L168.009 21.4688H167.909V29.2046H166.756V19.0228ZM182.154 29.3637C181.465 29.3637 180.86 29.1996 180.34 28.8715C179.822 28.5434 179.418 28.0843 179.126 27.4944C178.838 26.9044 178.694 26.215 178.694 25.4262C178.694 24.6307 178.838 23.9364 179.126 23.3431C179.418 22.7498 179.822 22.2891 180.34 21.961C180.86 21.6329 181.465 21.4688 182.154 21.4688C182.844 21.4688 183.447 21.6329 183.964 21.961C184.484 22.2891 184.889 22.7498 185.177 23.3431C185.469 23.9364 185.614 24.6307 185.614 25.4262C185.614 26.215 185.469 26.9044 185.177 27.4944C184.889 28.0843 184.484 28.5434 183.964 28.8715C183.447 29.1996 182.844 29.3637 182.154 29.3637ZM182.154 28.3097C182.678 28.3097 183.109 28.1755 183.447 27.907C183.785 27.6385 184.035 27.2856 184.197 26.8481C184.36 26.4106 184.441 25.9366 184.441 25.4262C184.441 24.9158 184.36 24.4401 184.197 23.9993C184.035 23.5585 183.785 23.2022 183.447 22.9304C183.109 22.6587 182.678 22.5228 182.154 22.5228C181.63 22.5228 181.2 22.6587 180.862 22.9304C180.523 23.2022 180.273 23.5585 180.111 23.9993C179.948 24.4401 179.867 24.9158 179.867 25.4262C179.867 25.9366 179.948 26.4106 180.111 26.8481C180.273 27.2856 180.523 27.6385 180.862 27.907C181.2 28.1755 181.63 28.3097 182.154 28.3097ZM188.579 24.6108V29.2046H187.405V21.5682H188.539V22.7614H188.638C188.817 22.3736 189.089 22.0621 189.454 21.8267C189.818 21.5881 190.289 21.4688 190.866 21.4688C191.383 21.4688 191.835 21.5749 192.223 21.787C192.611 21.9958 192.912 22.314 193.128 22.7415C193.343 23.1658 193.451 23.7027 193.451 24.3523V29.2046H192.278V24.4319C192.278 23.832 192.122 23.3646 191.81 23.0299C191.499 22.6918 191.071 22.5228 190.528 22.5228C190.153 22.5228 189.818 22.604 189.523 22.7664C189.232 22.9288 189.001 23.1658 188.832 23.4773C188.663 23.7889 188.579 24.1667 188.579 24.6108ZM198.916 21.5682V22.5625H194.958V21.5682H198.916ZM196.112 19.7387H197.285V27.0171C197.285 27.3485 197.333 27.5971 197.429 27.7628C197.529 27.9252 197.655 28.0346 197.807 28.091C197.963 28.144 198.127 28.1705 198.299 28.1705C198.429 28.1705 198.535 28.1639 198.618 28.1506C198.7 28.134 198.767 28.1208 198.816 28.1108L199.055 29.1648C198.976 29.1946 198.865 29.2245 198.722 29.2543C198.579 29.2874 198.399 29.304 198.18 29.304C197.849 29.304 197.524 29.2328 197.206 29.0902C196.891 28.9477 196.629 28.7306 196.42 28.439C196.215 28.1473 196.112 27.7794 196.112 27.3353V19.7387ZM202.018 24.6108V29.2046H200.845V19.0228H202.018V22.7614H202.118C202.297 22.367 202.565 22.0538 202.923 21.8218C203.284 21.5865 203.765 21.4688 204.365 21.4688C204.885 21.4688 205.341 21.5732 205.732 21.782C206.123 21.9875 206.426 22.304 206.642 22.7316C206.86 23.1558 206.97 23.6961 206.97 24.3523V29.2046H205.797V24.4319C205.797 23.8253 205.639 23.3563 205.324 23.0249C205.013 22.6901 204.58 22.5228 204.027 22.5228C203.642 22.5228 203.298 22.604 202.993 22.7664C202.691 22.9288 202.452 23.1658 202.277 23.4773C202.104 23.7889 202.018 24.1667 202.018 24.6108ZM210.29 19.0228V29.2046H209.116V19.0228H210.29ZM213.194 32.0682C212.995 32.0682 212.818 32.0517 212.662 32.0185C212.507 31.9887 212.399 31.9589 212.339 31.929L212.637 30.8949C212.923 30.9678 213.174 30.9944 213.393 30.9745C213.612 30.9546 213.806 30.8568 213.975 30.6812C214.147 30.5088 214.305 30.2287 214.447 29.841L214.666 29.2444L211.842 21.5682H213.115L215.223 27.6535H215.302L217.41 21.5682H218.683L215.441 30.3182C215.296 30.7126 215.115 31.0391 214.9 31.2976C214.684 31.5595 214.434 31.7534 214.149 31.8793C213.867 32.0053 213.549 32.0682 213.194 32.0682Z" fill="#9291A5"/>
<rect x="74.2075" y="6.20459" width="79" height="37" rx="18.5" fill="#1E1B39"/>
<path d="M92.5316 29.2046L89.7078 19.0228H91.3236L93.3072 26.9077H93.4017L95.4649 19.0228H97.0657L99.129 26.9127H99.2234L101.202 19.0228H102.823L99.994 29.2046H98.4478L96.3051 21.5782H96.2255L94.0828 29.2046H92.5316ZM106.644 29.3587C105.891 29.3587 105.243 29.198 104.7 28.8765C104.159 28.5517 103.742 28.0959 103.447 27.5093C103.155 26.9193 103.009 26.2283 103.009 25.4361C103.009 24.6539 103.155 23.9645 103.447 23.3679C103.742 22.7714 104.153 22.3057 104.68 21.9709C105.21 21.6362 105.83 21.4688 106.539 21.4688C106.97 21.4688 107.388 21.5401 107.792 21.6826C108.196 21.8251 108.559 22.0488 108.881 22.3537C109.202 22.6587 109.456 23.0547 109.641 23.5419C109.827 24.0258 109.92 24.6142 109.92 25.3069V25.8339H103.849V24.7202H108.463C108.463 24.3291 108.384 23.9828 108.224 23.6812C108.065 23.3762 107.842 23.1359 107.553 22.9603C107.268 22.7846 106.934 22.6968 106.549 22.6968C106.131 22.6968 105.767 22.7995 105.455 23.005C105.147 23.2072 104.908 23.4723 104.739 23.8005C104.574 24.1253 104.491 24.4783 104.491 24.8594V25.7294C104.491 26.2399 104.58 26.6741 104.759 27.032C104.942 27.39 105.195 27.6634 105.52 27.8523C105.845 28.0379 106.224 28.1307 106.658 28.1307C106.94 28.1307 107.197 28.091 107.429 28.0114C107.661 27.9285 107.862 27.8059 108.031 27.6435C108.2 27.4811 108.329 27.2806 108.418 27.0419L109.825 27.2955C109.713 27.7098 109.51 28.0727 109.219 28.3843C108.93 28.6925 108.568 28.9328 108.13 29.1052C107.696 29.2742 107.2 29.3587 106.644 29.3587ZM114.86 29.3587C114.108 29.3587 113.46 29.198 112.916 28.8765C112.376 28.5517 111.959 28.0959 111.664 27.5093C111.372 26.9193 111.226 26.2283 111.226 25.4361C111.226 24.6539 111.372 23.9645 111.664 23.3679C111.959 22.7714 112.37 22.3057 112.897 21.9709C113.427 21.6362 114.047 21.4688 114.756 21.4688C115.187 21.4688 115.604 21.5401 116.009 21.6826C116.413 21.8251 116.776 22.0488 117.098 22.3537C117.419 22.6587 117.673 23.0547 117.858 23.5419C118.044 24.0258 118.137 24.6142 118.137 25.3069V25.8339H112.066V24.7202H116.68C116.68 24.3291 116.6 23.9828 116.441 23.6812C116.282 23.3762 116.058 23.1359 115.77 22.9603C115.485 22.7846 115.15 22.6968 114.766 22.6968C114.348 22.6968 113.984 22.7995 113.672 23.005C113.364 23.2072 113.125 23.4723 112.956 23.8005C112.79 24.1253 112.708 24.4783 112.708 24.8594V25.7294C112.708 26.2399 112.797 26.6741 112.976 27.032C113.158 27.39 113.412 27.6634 113.737 27.8523C114.062 28.0379 114.441 28.1307 114.875 28.1307C115.157 28.1307 115.414 28.091 115.646 28.0114C115.878 27.9285 116.078 27.8059 116.247 27.6435C116.416 27.4811 116.546 27.2806 116.635 27.0419L118.042 27.2955C117.929 27.7098 117.727 28.0727 117.436 28.3843C117.147 28.6925 116.784 28.9328 116.347 29.1052C115.913 29.2742 115.417 29.3587 114.86 29.3587ZM121.153 26.6144L121.143 24.7998H121.402L124.444 21.5682H126.224L122.754 25.2472H122.52L121.153 26.6144ZM119.786 29.2046V19.0228H121.272V29.2046H119.786ZM124.608 29.2046L121.874 25.5753L122.898 24.5363L126.433 29.2046H124.608ZM129.065 19.0228V29.2046H127.579V19.0228H129.065ZM132.005 32.0682C131.783 32.0682 131.581 32.05 131.398 32.0135C131.216 31.9804 131.08 31.9439 130.991 31.9042L131.349 30.6861C131.62 30.759 131.862 30.7905 132.074 30.7806C132.287 30.7706 132.474 30.6911 132.636 30.5419C132.802 30.3928 132.948 30.1492 133.074 29.8111L133.258 29.304L130.464 21.5682H132.055L133.989 27.4944H134.068L136.002 21.5682H137.598L134.451 30.2238C134.305 30.6215 134.119 30.9579 133.894 31.233C133.669 31.5114 133.4 31.7202 133.089 31.8594C132.777 31.9986 132.416 32.0682 132.005 32.0682Z" fill="white"/>
<path d="M28.7715 29.2046H25.6294V19.0228H28.9107C29.8984 19.0228 30.7435 19.2266 31.4462 19.6343C32.1489 20.0386 32.6874 20.6203 33.062 21.3793C33.4365 22.135 33.6238 23.0398 33.6238 24.0938C33.6238 25.1544 33.4348 26.0675 33.057 26.8331C32.6792 27.5955 32.129 28.1821 31.4064 28.5931C30.6839 29.0008 29.8056 29.2046 28.7715 29.2046ZM26.8624 28.1108H28.6919C29.5338 28.1108 30.2315 27.9484 30.785 27.6236C31.3385 27.2988 31.7511 26.8365 32.0229 26.2366C32.2947 25.6366 32.4306 24.9224 32.4306 24.0938C32.4306 23.2718 32.2963 22.5642 32.0279 21.9709C31.7594 21.3743 31.3584 20.9169 30.8248 20.5988C30.2911 20.2773 29.6266 20.1165 28.8311 20.1165H26.8624V28.1108ZM37.78 29.3836C37.2961 29.3836 36.8569 29.2924 36.4625 29.1101C36.0681 28.9245 35.7549 28.6577 35.5229 28.3097C35.2909 27.9584 35.1749 27.5341 35.1749 27.037C35.1749 26.5995 35.2611 26.2448 35.4334 25.9731C35.6058 25.698 35.8361 25.4825 36.1245 25.3267C36.4128 25.171 36.731 25.055 37.079 24.9787C37.4303 24.8992 37.7833 24.8362 38.138 24.7898C38.602 24.7302 38.9782 24.6854 39.2665 24.6556C39.5582 24.6224 39.7703 24.5678 39.9029 24.4915C40.0388 24.4153 40.1067 24.2827 40.1067 24.0938V24.054C40.1067 23.5635 39.9725 23.1823 39.704 22.9106C39.4389 22.6388 39.0362 22.5029 38.4959 22.5029C37.9358 22.5029 37.4966 22.6255 37.1784 22.8708C36.8603 23.116 36.6365 23.3779 36.5073 23.6563L35.3936 23.2586C35.5925 22.7946 35.8577 22.4333 36.1891 22.1748C36.5239 21.9129 36.8884 21.7306 37.2828 21.6279C37.6806 21.5218 38.0717 21.4688 38.4561 21.4688C38.7014 21.4688 38.9831 21.4986 39.3013 21.5583C39.6228 21.6146 39.9327 21.7323 40.231 21.9113C40.5326 22.0902 40.7828 22.3604 40.9817 22.7216C41.1806 23.0829 41.28 23.5668 41.28 24.1733V29.2046H40.1067V28.1705H40.0471C39.9675 28.3362 39.8349 28.5135 39.6493 28.7025C39.4637 28.8914 39.2168 29.0521 38.9086 29.1847C38.6003 29.3173 38.2241 29.3836 37.78 29.3836ZM37.959 28.3296C38.423 28.3296 38.8141 28.2384 39.1323 28.0562C39.4538 27.8739 39.6957 27.6385 39.8581 27.3502C40.0239 27.0618 40.1067 26.7586 40.1067 26.4404V25.3665C40.057 25.4262 39.9476 25.4809 39.7786 25.5306C39.6129 25.577 39.4206 25.6184 39.2019 25.6549C38.9864 25.688 38.776 25.7178 38.5705 25.7444C38.3683 25.7676 38.2042 25.7874 38.0783 25.804C37.7734 25.8438 37.4883 25.9084 37.2232 25.9979C36.9614 26.0841 36.7492 26.215 36.5868 26.3907C36.4277 26.563 36.3482 26.7983 36.3482 27.0966C36.3482 27.5043 36.499 27.8125 36.8006 28.0214C37.1055 28.2268 37.4917 28.3296 37.959 28.3296ZM43.4215 29.2046V21.5682H44.5948V29.2046H43.4215ZM44.0181 20.2955C43.7894 20.2955 43.5922 20.2176 43.4265 20.0618C43.2641 19.9061 43.1829 19.7188 43.1829 19.5C43.1829 19.2813 43.2641 19.094 43.4265 18.9383C43.5922 18.7825 43.7894 18.7046 44.0181 18.7046C44.2468 18.7046 44.4424 18.7825 44.6048 18.9383C44.7705 19.094 44.8533 19.2813 44.8533 19.5C44.8533 19.7188 44.7705 19.9061 44.6048 20.0618C44.4424 20.2176 44.2468 20.2955 44.0181 20.2955ZM47.9171 19.0228V29.2046H46.7438V19.0228H47.9171ZM50.8217 32.0682C50.6229 32.0682 50.4455 32.0517 50.2898 32.0185C50.134 31.9887 50.0263 31.9589 49.9666 31.929L50.2649 30.8949C50.55 30.9678 50.8018 30.9944 51.0206 30.9745C51.2393 30.9546 51.4332 30.8568 51.6023 30.6812C51.7746 30.5088 51.9321 30.2287 52.0746 29.841L52.2933 29.2444L49.4695 21.5682H50.7422L52.8501 27.6535H52.9297L55.0376 21.5682H56.3104L53.0689 30.3182C52.9231 30.7126 52.7424 31.0391 52.527 31.2976C52.3116 31.5595 52.0613 31.7534 51.7763 31.8793C51.4946 32.0053 51.1764 32.0682 50.8217 32.0682Z" fill="#9291A5"/>
</svg>
