<svg width="52" height="52" viewBox="0 0 52 52" fill="none" xmlns="http://www.w3.org/2000/svg">
<circle cx="25.6056" cy="25.8353" r="25.446" fill="#FFB1B7"/>
<path fill-rule="evenodd" clip-rule="evenodd" d="M16.6989 14.3845C15.2936 14.3845 14.1543 15.5237 14.1543 16.9291V34.7412C14.1543 36.1466 15.2936 37.2858 16.6989 37.2858H34.5111C35.9164 37.2858 37.0557 36.1466 37.0557 34.7412V16.9291C37.0557 15.5237 35.9164 14.3845 34.5111 14.3845H16.6989ZM20.5158 27.1074C20.5158 26.4047 19.9462 25.8351 19.2435 25.8351C18.5408 25.8351 17.9712 26.4047 17.9712 27.1074V32.1966C17.9712 32.8993 18.5408 33.4689 19.2435 33.4689C19.9462 33.4689 20.5158 32.8993 20.5158 32.1966V27.1074ZM25.605 22.0182C26.3076 22.0182 26.8773 22.5878 26.8773 23.2905V32.1966C26.8773 32.8993 26.3076 33.4689 25.605 33.4689C24.9023 33.4689 24.3327 32.8993 24.3327 32.1966V23.2905C24.3327 22.5878 24.9023 22.0182 25.605 22.0182ZM33.2388 19.4737C33.2388 18.771 32.6691 18.2014 31.9665 18.2014C31.2638 18.2014 30.6942 18.771 30.6942 19.4737V32.1966C30.6942 32.8993 31.2638 33.4689 31.9665 33.4689C32.6691 33.4689 33.2388 32.8993 33.2388 32.1966V19.4737Z" fill="white"/>
</svg>
