<svg width="52" height="52" viewBox="0 0 52 52" fill="none" xmlns="http://www.w3.org/2000/svg">
<circle cx="26.0603" cy="25.8354" r="25.446" fill="#70B6C1"/>
<path fill-rule="evenodd" clip-rule="evenodd" d="M15.882 18.2015C15.882 15.3908 18.1605 13.1123 20.9711 13.1123H28.6049V18.2015C28.6049 21.0122 30.8834 23.2907 33.6941 23.2907H36.2387V33.4691C36.2387 36.2798 33.9602 38.5583 31.1495 38.5583H20.9711C18.1605 38.5583 15.882 36.2798 15.882 33.4691V18.2015ZM20.9711 24.563C20.2685 24.563 19.6989 25.1326 19.6989 25.8353C19.6989 26.538 20.2685 27.1076 20.9711 27.1076H23.5157C24.2184 27.1076 24.788 26.538 24.788 25.8353C24.788 25.1326 24.2184 24.563 23.5157 24.563H20.9711ZM20.9711 29.6522C20.2685 29.6522 19.6989 30.2218 19.6989 30.9245C19.6989 31.6271 20.2685 32.1968 20.9711 32.1968H26.0603C26.763 32.1968 27.3326 31.6271 27.3326 30.9245C27.3326 30.2218 26.763 29.6522 26.0603 29.6522H20.9711ZM32.017 15.9098L31.8504 18.4087C31.7992 19.1768 32.4364 19.814 33.2045 19.7628L35.7034 19.5962C36.7941 19.5235 37.2914 18.2001 36.5184 17.4271L34.1861 15.0948C33.4132 14.3219 32.0897 14.8191 32.017 15.9098Z" fill="white"/>
</svg>
