<svg width="52" height="52" viewBox="0 0 52 52" fill="none" xmlns="http://www.w3.org/2000/svg">
<circle cx="25.7821" cy="25.9897" r="25.446" fill="#775DA6"/>
<path d="M23.2373 27.2614C28.1559 27.2615 32.1436 30.1104 32.1436 33.6237C32.1434 35.0289 31.0039 36.1677 29.5986 36.1677H16.876C15.4707 36.1677 14.3312 35.0289 14.3311 33.6237C14.3311 30.1104 18.3186 27.2614 23.2373 27.2614ZM23.2373 15.8112C26.0478 15.8113 28.326 18.0896 28.3262 20.9001C28.3262 23.7107 26.0479 25.9898 23.2373 25.9899C20.4266 25.9899 18.1475 23.7108 18.1475 20.9001C18.1476 18.0896 20.4267 15.8112 23.2373 15.8112ZM33.415 18.3561C34.1177 18.3561 34.6875 18.9259 34.6875 19.6286V20.9001H35.96C36.6624 20.9002 37.2323 21.4701 37.2324 22.1725C37.2324 22.8751 36.6625 23.4449 35.96 23.445H34.6875V24.7175C34.6875 25.4201 34.1177 25.9899 33.415 25.9899C32.7124 25.9899 32.1426 25.4201 32.1426 24.7175V23.445H30.8701C30.1676 23.4448 29.5986 22.8751 29.5986 22.1725C29.5988 21.4701 30.1677 20.9003 30.8701 20.9001H32.1426V19.6286C32.1426 18.926 32.7124 18.3562 33.415 18.3561Z" fill="white"/>
</svg>
