<svg width="64" height="64" viewBox="0 0 64 64" fill="none" xmlns="http://www.w3.org/2000/svg">
  <!-- Left Building -->
  <rect x="4" y="20" width="16" height="40" stroke="black" stroke-width="2" fill="none"/>
  <rect x="8" y="24" width="4" height="4" fill="black"/>
  <rect x="8" y="32" width="4" height="4" fill="black"/>
  <rect x="8" y="40" width="4" height="4" fill="black"/>
  <rect x="8" y="48" width="4" height="4" fill="black"/>

  <!-- Middle Building (Tall) -->
  <rect x="24" y="8" width="16" height="52" stroke="black" stroke-width="2" fill="none"/>
  <rect x="28" y="12" width="4" height="4" fill="black"/>
  <rect x="28" y="20" width="4" height="4" fill="black"/>
  <rect x="28" y="28" width="4" height="4" fill="black"/>
  <rect x="28" y="36" width="4" height="4" fill="black"/>
  <rect x="28" y="44" width="4" height="4" fill="black"/>
  <rect x="28" y="52" width="4" height="4" fill="black"/>

  <!-- Right Building -->
  <rect x="44" y="28" width="16" height="32" stroke="black" stroke-width="2" fill="none"/>
  <rect x="48" y="32" width="4" height="4" fill="black"/>
  <rect x="48" y="40" width="4" height="4" fill="black"/>
  <rect x="48" y="48" width="4" height="4" fill="black"/>
  <rect x="48" y="56" width="4" height="4" fill="black"/>
</svg>