<svg width="40" height="328" viewBox="0 0 40 328" fill="none" xmlns="http://www.w3.org/2000/svg">
<path d="M34.3574 324.388C33.5014 324.388 32.7722 324.155 32.1699 323.689C31.5676 323.22 31.1074 322.54 30.7892 321.649C30.4711 320.756 30.312 319.676 30.312 318.411C30.312 317.153 30.4711 316.079 30.7892 315.189C31.1112 314.295 31.5733 313.613 32.1756 313.144C32.7817 312.67 33.5089 312.434 34.3574 312.434C35.2059 312.434 35.9313 312.67 36.5336 313.144C37.1396 313.613 37.6017 314.295 37.9199 315.189C38.2419 316.079 38.4029 317.153 38.4029 318.411C38.4029 319.676 38.2438 320.756 37.9256 321.649C37.6074 322.54 37.1472 323.22 36.5449 323.689C35.9426 324.155 35.2135 324.388 34.3574 324.388ZM34.3574 323.138C35.2059 323.138 35.865 322.729 36.3347 321.911C36.8044 321.093 37.0392 319.926 37.0392 318.411C37.0392 317.403 36.9313 316.545 36.7154 315.837C36.5033 315.129 36.1964 314.589 35.7949 314.218C35.3972 313.846 34.918 313.661 34.3574 313.661C33.5165 313.661 32.8593 314.076 32.3858 314.905C31.9123 315.731 31.6756 316.899 31.6756 318.411C31.6756 319.418 31.7817 320.274 31.9938 320.979C32.2059 321.684 32.5108 322.22 32.9086 322.587C33.3101 322.954 33.793 323.138 34.3574 323.138Z" fill="#615E83"/>
<path d="M15.7608 273.08C15.0942 273.08 14.4938 272.947 13.9597 272.682C13.4256 272.417 12.9976 272.053 12.6756 271.591C12.3536 271.129 12.1775 270.603 12.1472 270.012H13.5108C13.5639 270.538 13.8025 270.974 14.2267 271.319C14.6548 271.66 15.1661 271.83 15.7608 271.83C16.2381 271.83 16.6623 271.718 17.0336 271.495C17.4086 271.271 17.7021 270.964 17.9142 270.574C18.1301 270.18 18.2381 269.735 18.2381 269.239C18.2381 268.732 18.1264 268.279 17.9029 267.881C17.6832 267.48 17.3801 267.163 16.9938 266.932C16.6074 266.701 16.1661 266.584 15.6699 266.58C15.3139 266.576 14.9483 266.631 14.5733 266.745C14.1983 266.855 13.8896 266.997 13.6472 267.171L12.329 267.012L13.0336 261.285H19.079V262.535H14.2154L13.8063 265.966H13.8745C14.1131 265.777 14.4123 265.62 14.7722 265.495C15.132 265.37 15.507 265.307 15.8972 265.307C16.6093 265.307 17.2438 265.478 17.8006 265.819C18.3612 266.156 18.8006 266.618 19.1188 267.205C19.4408 267.792 19.6017 268.463 19.6017 269.216C19.6017 269.959 19.4351 270.622 19.1017 271.205C18.7722 271.785 18.3176 272.243 17.7381 272.58C17.1586 272.913 16.4995 273.08 15.7608 273.08ZM25.6543 273.08C24.7982 273.08 24.0691 272.847 23.4668 272.381C22.8645 271.911 22.4043 271.232 22.0861 270.341C21.7679 269.447 21.6088 268.368 21.6088 267.103C21.6088 265.845 21.7679 264.771 22.0861 263.881C22.4081 262.987 22.8702 262.305 23.4725 261.836C24.0785 261.362 24.8058 261.125 25.6543 261.125C26.5028 261.125 27.2282 261.362 27.8304 261.836C28.4365 262.305 28.8986 262.987 29.2168 263.881C29.5388 264.771 29.6998 265.845 29.6998 267.103C29.6998 268.368 29.5407 269.447 29.2225 270.341C28.9043 271.232 28.4441 271.911 27.8418 272.381C27.2395 272.847 26.5104 273.08 25.6543 273.08ZM25.6543 271.83C26.5028 271.83 27.1619 271.421 27.6316 270.603C28.1013 269.785 28.3361 268.618 28.3361 267.103C28.3361 266.095 28.2282 265.237 28.0123 264.529C27.8001 263.821 27.4933 263.281 27.0918 262.91C26.6941 262.538 26.2149 262.353 25.6543 262.353C24.8134 262.353 24.1562 262.767 23.6827 263.597C23.2092 264.423 22.9725 265.591 22.9725 267.103C22.9725 268.11 23.0785 268.966 23.2907 269.671C23.5028 270.375 23.8077 270.911 24.2054 271.279C24.6069 271.646 25.0899 271.83 25.6543 271.83ZM33.1316 269.739L33.1088 268.08H33.3816L37.1998 264.194H38.8588L34.7907 268.307H34.677L33.1316 269.739ZM31.8816 272.921V261.285H33.2225V272.921H31.8816ZM37.427 272.921L34.0179 268.603L34.9725 267.671L39.1316 272.921H37.427Z" fill="#615E83"/>
<path d="M8.51225 209.756V221.393H7.10316V211.234H7.03498L4.19407 213.12V211.688L7.10316 209.756H8.51225ZM15.6543 221.552C14.7982 221.552 14.0691 221.319 13.4668 220.853C12.8645 220.383 12.4043 219.703 12.0861 218.813C11.7679 217.919 11.6088 216.84 11.6088 215.575C11.6088 214.317 11.7679 213.243 12.0861 212.353C12.4081 211.459 12.8702 210.777 13.4725 210.308C14.0785 209.834 14.8058 209.597 15.6543 209.597C16.5028 209.597 17.2282 209.834 17.8304 210.308C18.4365 210.777 18.8986 211.459 19.2168 212.353C19.5388 213.243 19.6998 214.317 19.6998 215.575C19.6998 216.84 19.5407 217.919 19.2225 218.813C18.9043 219.703 18.4441 220.383 17.8418 220.853C17.2395 221.319 16.5104 221.552 15.6543 221.552ZM15.6543 220.302C16.5028 220.302 17.1619 219.893 17.6316 219.075C18.1013 218.256 18.3361 217.09 18.3361 215.575C18.3361 214.567 18.2282 213.709 18.0123 213.001C17.8001 212.292 17.4933 211.753 17.0918 211.381C16.6941 211.01 16.2149 210.825 15.6543 210.825C14.8134 210.825 14.1562 211.239 13.6827 212.069C13.2092 212.895 12.9725 214.063 12.9725 215.575C12.9725 216.582 13.0785 217.438 13.2907 218.143C13.5028 218.847 13.8077 219.383 14.2054 219.751C14.6069 220.118 15.0899 220.302 15.6543 220.302ZM25.6543 221.552C24.7982 221.552 24.0691 221.319 23.4668 220.853C22.8645 220.383 22.4043 219.703 22.0861 218.813C21.7679 217.919 21.6088 216.84 21.6088 215.575C21.6088 214.317 21.7679 213.243 22.0861 212.353C22.4081 211.459 22.8702 210.777 23.4725 210.308C24.0785 209.834 24.8058 209.597 25.6543 209.597C26.5028 209.597 27.2282 209.834 27.8304 210.308C28.4365 210.777 28.8986 211.459 29.2168 212.353C29.5388 213.243 29.6998 214.317 29.6998 215.575C29.6998 216.84 29.5407 217.919 29.2225 218.813C28.9043 219.703 28.4441 220.383 27.8418 220.853C27.2395 221.319 26.5104 221.552 25.6543 221.552ZM25.6543 220.302C26.5028 220.302 27.1619 219.893 27.6316 219.075C28.1013 218.256 28.3361 217.09 28.3361 215.575C28.3361 214.567 28.2282 213.709 28.0123 213.001C27.8001 212.292 27.4933 211.753 27.0918 211.381C26.6941 211.01 26.2149 210.825 25.6543 210.825C24.8134 210.825 24.1562 211.239 23.6827 212.069C23.2092 212.895 22.9725 214.063 22.9725 215.575C22.9725 216.582 23.0785 217.438 23.2907 218.143C23.5028 218.847 23.8077 219.383 24.2054 219.751C24.6069 220.118 25.0899 220.302 25.6543 220.302ZM33.1316 218.211L33.1088 216.552H33.3816L37.1998 212.666H38.8588L34.7907 216.779H34.677L33.1316 218.211ZM31.8816 221.393V209.756H33.2225V221.393H31.8816ZM37.427 221.393L34.0179 217.075L34.9725 216.143L39.1316 221.393H37.427Z" fill="#615E83"/>
<path d="M2.17134 170.068V169.046L6.01225 164.841C6.46301 164.349 6.83422 163.921 7.12589 163.557C7.41755 163.19 7.63346 162.845 7.77362 162.523C7.91755 162.197 7.98952 161.856 7.98952 161.5C7.98952 161.091 7.89104 160.737 7.69407 160.438C7.50089 160.138 7.23574 159.907 6.89862 159.744C6.56149 159.582 6.18271 159.5 5.76225 159.5C5.31528 159.5 4.92513 159.593 4.5918 159.779C4.26225 159.96 4.00657 160.216 3.82475 160.546C3.64672 160.875 3.55771 161.262 3.55771 161.705H2.2168C2.2168 161.023 2.37399 160.424 2.68839 159.909C3.00278 159.394 3.43081 158.993 3.97248 158.705C4.51793 158.417 5.12968 158.273 5.80771 158.273C6.48952 158.273 7.09369 158.417 7.62021 158.705C8.14672 158.993 8.5596 159.381 8.85884 159.869C9.15808 160.358 9.30771 160.902 9.30771 161.5C9.30771 161.928 9.23005 162.347 9.07475 162.756C8.92324 163.161 8.65808 163.614 8.2793 164.114C7.9043 164.61 7.38346 165.216 6.7168 165.932L4.10316 168.727V168.818H9.51225V170.068H2.17134ZM15.6543 170.227C14.7982 170.227 14.0691 169.994 13.4668 169.529C12.8645 169.059 12.4043 168.379 12.0861 167.489C11.7679 166.595 11.6088 165.515 11.6088 164.25C11.6088 162.993 11.7679 161.919 12.0861 161.029C12.4081 160.135 12.8702 159.453 13.4725 158.983C14.0785 158.51 14.8058 158.273 15.6543 158.273C16.5028 158.273 17.2282 158.51 17.8304 158.983C18.4365 159.453 18.8986 160.135 19.2168 161.029C19.5388 161.919 19.6998 162.993 19.6998 164.25C19.6998 165.515 19.5407 166.595 19.2225 167.489C18.9043 168.379 18.4441 169.059 17.8418 169.529C17.2395 169.994 16.5104 170.227 15.6543 170.227ZM15.6543 168.977C16.5028 168.977 17.1619 168.568 17.6316 167.75C18.1013 166.932 18.3361 165.765 18.3361 164.25C18.3361 163.243 18.2282 162.385 18.0123 161.676C17.8001 160.968 17.4933 160.428 17.0918 160.057C16.6941 159.686 16.2149 159.5 15.6543 159.5C14.8134 159.5 14.1562 159.915 13.6827 160.744C13.2092 161.57 12.9725 162.739 12.9725 164.25C12.9725 165.258 13.0785 166.114 13.2907 166.818C13.5028 167.523 13.8077 168.059 14.2054 168.426C14.6069 168.794 15.0899 168.977 15.6543 168.977ZM25.6543 170.227C24.7982 170.227 24.0691 169.994 23.4668 169.529C22.8645 169.059 22.4043 168.379 22.0861 167.489C21.7679 166.595 21.6088 165.515 21.6088 164.25C21.6088 162.993 21.7679 161.919 22.0861 161.029C22.4081 160.135 22.8702 159.453 23.4725 158.983C24.0785 158.51 24.8058 158.273 25.6543 158.273C26.5028 158.273 27.2282 158.51 27.8304 158.983C28.4365 159.453 28.8986 160.135 29.2168 161.029C29.5388 161.919 29.6998 162.993 29.6998 164.25C29.6998 165.515 29.5407 166.595 29.2225 167.489C28.9043 168.379 28.4441 169.059 27.8418 169.529C27.2395 169.994 26.5104 170.227 25.6543 170.227ZM25.6543 168.977C26.5028 168.977 27.1619 168.568 27.6316 167.75C28.1013 166.932 28.3361 165.765 28.3361 164.25C28.3361 163.243 28.2282 162.385 28.0123 161.676C27.8001 160.968 27.4933 160.428 27.0918 160.057C26.6941 159.686 26.2149 159.5 25.6543 159.5C24.8134 159.5 24.1562 159.915 23.6827 160.744C23.2092 161.57 22.9725 162.739 22.9725 164.25C22.9725 165.258 23.0785 166.114 23.2907 166.818C23.5028 167.523 23.8077 168.059 24.2054 168.426C24.6069 168.794 25.0899 168.977 25.6543 168.977ZM33.1316 166.887L33.1088 165.227H33.3816L37.1998 161.341H38.8588L34.7907 165.455H34.677L33.1316 166.887ZM31.8816 170.068V158.432H33.2225V170.068H31.8816ZM37.427 170.068L34.0179 165.75L34.9725 164.818L39.1316 170.068H37.427Z" fill="#615E83"/>
<path d="M5.76083 118.621C5.09416 118.621 4.49379 118.489 3.95969 118.224C3.4256 117.958 2.99757 117.595 2.6756 117.133C2.35363 116.67 2.1775 116.144 2.14719 115.553H3.51083C3.56386 116.08 3.8025 116.515 4.22674 116.86C4.65477 117.201 5.16613 117.371 5.76083 117.371C6.2381 117.371 6.66235 117.26 7.03356 117.036C7.40856 116.813 7.70212 116.506 7.91424 116.116C8.13015 115.722 8.2381 115.277 8.2381 114.78C8.2381 114.273 8.12636 113.82 7.90288 113.422C7.68318 113.021 7.38015 112.705 6.99379 112.474C6.60742 112.242 6.16613 112.125 5.66992 112.121C5.31386 112.117 4.94833 112.172 4.57333 112.286C4.19833 112.396 3.88962 112.538 3.64719 112.712L2.32901 112.553L3.03356 106.826H9.07901V108.076H4.21538L3.80629 111.508H3.87447C4.1131 111.318 4.41235 111.161 4.77219 111.036C5.13204 110.911 5.50704 110.849 5.89719 110.849C6.60932 110.849 7.24379 111.019 7.8006 111.36C8.36121 111.697 8.8006 112.159 9.11879 112.746C9.44076 113.333 9.60174 114.004 9.60174 114.758C9.60174 115.5 9.43507 116.163 9.10174 116.746C8.77219 117.326 8.31765 117.784 7.7381 118.121C7.15856 118.455 6.49947 118.621 5.76083 118.621ZM15.6543 118.621C14.7982 118.621 14.0691 118.388 13.4668 117.922C12.8645 117.453 12.4043 116.773 12.0861 115.883C11.7679 114.989 11.6088 113.909 11.6088 112.644C11.6088 111.386 11.7679 110.313 12.0861 109.422C12.4081 108.528 12.8702 107.847 13.4725 107.377C14.0785 106.903 14.8058 106.667 15.6543 106.667C16.5028 106.667 17.2282 106.903 17.8304 107.377C18.4365 107.847 18.8986 108.528 19.2168 109.422C19.5388 110.313 19.6998 111.386 19.6998 112.644C19.6998 113.909 19.5407 114.989 19.2225 115.883C18.9043 116.773 18.4441 117.453 17.8418 117.922C17.2395 118.388 16.5104 118.621 15.6543 118.621ZM15.6543 117.371C16.5028 117.371 17.1619 116.962 17.6316 116.144C18.1013 115.326 18.3361 114.159 18.3361 112.644C18.3361 111.636 18.2282 110.778 18.0123 110.07C17.8001 109.362 17.4933 108.822 17.0918 108.451C16.6941 108.08 16.2149 107.894 15.6543 107.894C14.8134 107.894 14.1562 108.309 13.6827 109.138C13.2092 109.964 12.9725 111.133 12.9725 112.644C12.9725 113.652 13.0785 114.508 13.2907 115.212C13.5028 115.917 13.8077 116.453 14.2054 116.82C14.6069 117.188 15.0899 117.371 15.6543 117.371ZM25.6543 118.621C24.7982 118.621 24.0691 118.388 23.4668 117.922C22.8645 117.453 22.4043 116.773 22.0861 115.883C21.7679 114.989 21.6088 113.909 21.6088 112.644C21.6088 111.386 21.7679 110.313 22.0861 109.422C22.4081 108.528 22.8702 107.847 23.4725 107.377C24.0785 106.903 24.8058 106.667 25.6543 106.667C26.5028 106.667 27.2282 106.903 27.8304 107.377C28.4365 107.847 28.8986 108.528 29.2168 109.422C29.5388 110.313 29.6998 111.386 29.6998 112.644C29.6998 113.909 29.5407 114.989 29.2225 115.883C28.9043 116.773 28.4441 117.453 27.8418 117.922C27.2395 118.388 26.5104 118.621 25.6543 118.621ZM25.6543 117.371C26.5028 117.371 27.1619 116.962 27.6316 116.144C28.1013 115.326 28.3361 114.159 28.3361 112.644C28.3361 111.636 28.2282 110.778 28.0123 110.07C27.8001 109.362 27.4933 108.822 27.0918 108.451C26.6941 108.08 26.2149 107.894 25.6543 107.894C24.8134 107.894 24.1562 108.309 23.6827 109.138C23.2092 109.964 22.9725 111.133 22.9725 112.644C22.9725 113.652 23.0785 114.508 23.2907 115.212C23.5028 115.917 23.8077 116.453 24.2054 116.82C24.6069 117.188 25.0899 117.371 25.6543 117.371ZM33.1316 115.28L33.1088 113.621H33.3816L37.1998 109.735H38.8588L34.7907 113.849H34.677L33.1316 115.28ZM31.8816 118.462V106.826H33.2225V118.462H31.8816ZM37.427 118.462L34.0179 114.144L34.9725 113.212L39.1316 118.462H37.427Z" fill="#615E83"/>
<path d="M22.981 55.4713V67.1077H21.5719V56.9486H21.5037L18.6628 58.8349V57.4031L21.5719 55.4713H22.981ZM26.5321 55.4713H28.214L32.1685 65.1304H32.3049L36.2594 55.4713H37.9412V67.1077H36.623V58.2668H36.5094L32.873 67.1077H31.6003L27.964 58.2668H27.8503V67.1077H26.5321V55.4713Z" fill="#615E83"/>
<path d="M9.76225 4.1173V15.7537H8.35316V5.59457H8.28498L5.44407 7.48093V6.04912L8.35316 4.1173H9.76225ZM13.4213 15.8446C13.141 15.8446 12.9005 15.7442 12.6998 15.5434C12.499 15.3427 12.3986 15.1021 12.3986 14.8218C12.3986 14.5415 12.499 14.301 12.6998 14.1003C12.9005 13.8995 13.141 13.7991 13.4213 13.7991C13.7016 13.7991 13.9422 13.8995 14.1429 14.1003C14.3437 14.301 14.4441 14.5415 14.4441 14.8218C14.4441 15.0074 14.3967 15.1779 14.302 15.3332C14.2111 15.4885 14.088 15.6135 13.9327 15.7082C13.7812 15.7991 13.6107 15.8446 13.4213 15.8446ZM20.2296 15.9128C19.5629 15.9128 18.9625 15.7802 18.4284 15.515C17.8944 15.2499 17.4663 14.8862 17.1444 14.4241C16.8224 13.962 16.6462 13.4355 16.6159 12.8446H17.9796C18.0326 13.3711 18.2712 13.8067 18.6955 14.1514C19.1235 14.4923 19.6349 14.6628 20.2296 14.6628C20.7069 14.6628 21.1311 14.551 21.5023 14.3275C21.8773 14.104 22.1709 13.7972 22.383 13.4071C22.5989 13.0131 22.7069 12.5681 22.7069 12.0718C22.7069 11.5643 22.5951 11.1116 22.3716 10.7139C22.1519 10.3124 21.8489 9.99609 21.4625 9.76503C21.0762 9.53396 20.6349 9.41654 20.1387 9.41275C19.7826 9.40896 19.4171 9.46389 19.0421 9.57753C18.6671 9.68737 18.3584 9.82942 18.1159 10.0037L16.7978 9.84457L17.5023 4.1173H23.5478V5.3673H18.6841L18.275 8.79912H18.3432C18.5819 8.60972 18.8811 8.45253 19.2409 8.32753C19.6008 8.20253 19.9758 8.14003 20.3659 8.14003C21.0781 8.14003 21.7125 8.31048 22.2694 8.65139C22.83 8.98851 23.2694 9.45063 23.5875 10.0378C23.9095 10.6249 24.0705 11.2953 24.0705 12.0491C24.0705 12.7915 23.9038 13.4544 23.5705 14.0378C23.2409 14.6173 22.7864 15.0756 22.2069 15.4128C21.6273 15.7461 20.9682 15.9128 20.2296 15.9128ZM26.5321 4.1173H28.214L32.1685 13.7764H32.3049L36.2594 4.1173H37.9412V15.7537H36.623V6.91275H36.5094L32.873 15.7537H31.6003L27.964 6.91275H27.8503V15.7537H26.5321V4.1173Z" fill="#615E83"/>
</svg>
