<svg width="52" height="52" viewBox="0 0 52 52" fill="none" xmlns="http://www.w3.org/2000/svg">
<circle cx="25.6058" cy="25.9177" r="25.446" fill="#5A6E83"/>
<path fill-rule="evenodd" clip-rule="evenodd" d="M16.699 14.4669C15.2937 14.4669 14.1544 15.6061 14.1544 17.0115V34.8236C14.1544 36.2289 15.2937 37.3682 16.699 37.3682H34.5112C35.9165 37.3682 37.0558 36.2289 37.0558 34.8236V17.0115C37.0558 15.6061 35.9165 14.4669 34.5112 14.4669H16.699ZM20.5159 27.1898C20.5159 26.4871 19.9463 25.9175 19.2436 25.9175C18.5409 25.9175 17.9713 26.4871 17.9713 27.1898V32.279C17.9713 32.9817 18.5409 33.5513 19.2436 33.5513C19.9463 33.5513 20.5159 32.9817 20.5159 32.279V27.1898ZM25.6051 22.1006C26.3078 22.1006 26.8774 22.6702 26.8774 23.3729V32.279C26.8774 32.9817 26.3078 33.5513 25.6051 33.5513C24.9024 33.5513 24.3328 32.9817 24.3328 32.279V23.3729C24.3328 22.6702 24.9024 22.1006 25.6051 22.1006ZM33.2389 19.5561C33.2389 18.8534 32.6693 18.2838 31.9666 18.2838C31.2639 18.2838 30.6943 18.8534 30.6943 19.5561V32.279C30.6943 32.9817 31.2639 33.5513 31.9666 33.5513C32.6693 33.5513 33.2389 32.9817 33.2389 32.279V19.5561Z" fill="white"/>
</svg>
