<svg width="52" height="52" viewBox="0 0 52 52" fill="none" xmlns="http://www.w3.org/2000/svg">
<circle cx="26.0603" cy="25.9177" r="25.446" fill="#C5A581"/>
<path fill-rule="evenodd" clip-rule="evenodd" d="M15.882 18.2839C15.882 15.4732 18.1605 13.1947 20.9711 13.1947H28.6049V18.2839C28.6049 21.0946 30.8834 23.3731 33.6941 23.3731H36.2387V33.5515C36.2387 36.3622 33.9602 38.6407 31.1495 38.6407H20.9711C18.1605 38.6407 15.882 36.3622 15.882 33.5515V18.2839ZM20.9711 24.6454C20.2685 24.6454 19.6989 25.215 19.6989 25.9177C19.6989 26.6204 20.2685 27.19 20.9711 27.19H23.5157C24.2184 27.19 24.788 26.6204 24.788 25.9177C24.788 25.215 24.2184 24.6454 23.5157 24.6454H20.9711ZM20.9711 29.7346C20.2685 29.7346 19.6989 30.3042 19.6989 31.0069C19.6989 31.7095 20.2685 32.2792 20.9711 32.2792H26.0603C26.763 32.2792 27.3326 31.7095 27.3326 31.0069C27.3326 30.3042 26.763 29.7346 26.0603 29.7346H20.9711ZM32.017 15.9922L31.8504 18.4911C31.7992 19.2592 32.4364 19.8964 33.2045 19.8452L35.7034 19.6786C36.7941 19.6059 37.2914 18.2825 36.5184 17.5095L34.1861 15.1772C33.4132 14.4043 32.0897 14.9015 32.017 15.9922Z" fill="white"/>
</svg>
