<svg width="301" height="301" viewBox="0 0 301 301" fill="none" xmlns="http://www.w3.org/2000/svg">
<mask id="mask0_1_337" style="mask-type:luminance" maskUnits="userSpaceOnUse" x="0" y="0" width="301" height="301">
<circle cx="150.419" cy="150.33" r="150" fill="white"/>
</mask>
<g mask="url(#mask0_1_337)">
<circle cx="150.419" cy="150.33" r="150" fill="#70B6C1"/>
<path fill-rule="evenodd" clip-rule="evenodd" d="M150.419 -9.62269V150.33L198.049 300.33L269.617 276.534L321.117 142.51L282.828 15.9697L180.572 -10.9852L150.419 -9.62269Z" fill="#775DA6" stroke="white" stroke-width="2"/>
<path fill-rule="evenodd" clip-rule="evenodd" d="M-9.53383 71.5037L150.419 150.33L198.049 300.33L76.5333 313.32L-15.8949 200.804L-9.53383 71.5037Z" fill="#FFB1B7" stroke="white" stroke-width="2"/>
</g>
<path d="M94.0528 71.1292V81.311H92.2083V72.924H92.1486L89.7672 74.4453V72.7549L92.2978 71.1292H94.0528ZM100.401 81.5049C99.5828 81.5049 98.8802 81.2978 98.2935 80.8835C97.7102 80.4659 97.2611 79.8643 96.9462 79.0788C96.6347 78.29 96.4789 77.3404 96.4789 76.2301C96.4822 75.1197 96.6396 74.1751 96.9512 73.3963C97.2661 72.6141 97.7152 72.0175 98.2985 71.6065C98.8851 71.1955 99.5861 70.99 100.401 70.99C101.217 70.99 101.918 71.1955 102.504 71.6065C103.091 72.0175 103.54 72.6141 103.852 73.3963C104.167 74.1785 104.324 75.1231 104.324 76.2301C104.324 77.3437 104.167 78.2949 103.852 79.0838C103.54 79.8693 103.091 80.4692 102.504 80.8835C101.921 81.2978 101.22 81.5049 100.401 81.5049ZM100.401 79.9488C101.038 79.9488 101.54 79.6356 101.908 79.0092C102.279 78.3795 102.465 77.4531 102.465 76.2301C102.465 75.4214 102.38 74.7419 102.211 74.1917C102.042 73.6415 101.803 73.2272 101.495 72.9488C101.187 72.6671 100.822 72.5262 100.401 72.5262C99.7684 72.5262 99.268 72.8411 98.9001 73.4708C98.5322 74.0973 98.3466 75.017 98.3432 76.2301C98.3399 77.0421 98.4211 77.7249 98.5868 78.2784C98.7559 78.8319 98.9945 79.2495 99.3028 79.5312C99.611 79.8096 99.9772 79.9488 100.401 79.9488ZM111.42 79.4019V78.865C111.42 78.4706 111.503 78.1077 111.668 77.7762C111.837 77.4448 112.083 77.178 112.404 76.9758C112.726 76.7736 113.115 76.6725 113.572 76.6725C114.043 76.6725 114.438 76.7736 114.756 76.9758C115.074 77.1747 115.314 77.4398 115.477 77.7713C115.642 78.1027 115.725 78.4673 115.725 78.865V79.4019C115.725 79.7964 115.642 80.1593 115.477 80.4907C115.311 80.8222 115.067 81.089 114.746 81.2911C114.428 81.4933 114.036 81.5944 113.572 81.5944C113.108 81.5944 112.716 81.4933 112.394 81.2911C112.073 81.089 111.829 80.8222 111.663 80.4907C111.501 80.1593 111.42 79.7964 111.42 79.4019ZM112.717 78.865V79.4019C112.717 79.6638 112.78 79.9041 112.906 80.1228C113.032 80.3416 113.254 80.4509 113.572 80.4509C113.894 80.4509 114.114 80.3432 114.234 80.1278C114.356 79.909 114.418 79.6671 114.418 79.4019V78.865C114.418 78.5999 114.36 78.3579 114.244 78.1392C114.128 77.9171 113.904 77.8061 113.572 77.8061C113.261 77.8061 113.041 77.9171 112.911 78.1392C112.782 78.3579 112.717 78.5999 112.717 78.865ZM106.244 73.5752V73.0383C106.244 72.6406 106.329 72.276 106.498 71.9446C106.667 71.6131 106.912 71.348 107.234 71.1491C107.555 70.9469 107.945 70.8458 108.402 70.8458C108.869 70.8458 109.262 70.9469 109.58 71.1491C109.902 71.348 110.144 71.6131 110.306 71.9446C110.469 72.276 110.55 72.6406 110.55 73.0383V73.5752C110.55 73.973 110.467 74.3376 110.301 74.669C110.139 74.9971 109.897 75.2606 109.575 75.4595C109.254 75.6583 108.863 75.7578 108.402 75.7578C107.935 75.7578 107.54 75.6583 107.219 75.4595C106.901 75.2606 106.659 74.9955 106.493 74.664C106.327 74.3326 106.244 73.9697 106.244 73.5752ZM107.552 73.0383V73.5752C107.552 73.8404 107.613 74.0823 107.736 74.3011C107.862 74.5165 108.084 74.6242 108.402 74.6242C108.72 74.6242 108.939 74.5165 109.058 74.3011C109.181 74.0823 109.242 73.8404 109.242 73.5752V73.0383C109.242 72.7732 109.184 72.5312 109.068 72.3125C108.952 72.0904 108.73 71.9794 108.402 71.9794C108.087 71.9794 107.867 72.0904 107.741 72.3125C107.615 72.5345 107.552 72.7765 107.552 73.0383ZM106.811 81.311L113.811 71.1292H115.054L108.054 81.311H106.811Z" fill="white"/>
<path d="M204.774 141.981V140.514L209.094 133.688H210.317V135.776H209.572L206.663 140.385V140.465H212.694V141.981H204.774ZM209.631 143.87V141.534L209.651 140.877V133.688H211.391V143.87H209.631ZM217.822 144.009C217.159 144.009 216.566 143.885 216.042 143.637C215.519 143.385 215.103 143.04 214.794 142.602C214.489 142.165 214.327 141.665 214.307 141.101H216.097C216.13 141.519 216.311 141.86 216.639 142.125C216.967 142.387 217.361 142.518 217.822 142.518C218.183 142.518 218.505 142.435 218.787 142.269C219.068 142.104 219.29 141.873 219.453 141.578C219.615 141.283 219.695 140.947 219.691 140.569C219.695 140.185 219.613 139.843 219.448 139.545C219.282 139.247 219.055 139.013 218.767 138.844C218.478 138.672 218.147 138.585 217.772 138.585C217.467 138.582 217.167 138.638 216.872 138.754C216.577 138.87 216.344 139.023 216.171 139.212L214.506 138.938L215.038 133.688H220.944V135.23H216.564L216.271 137.929H216.331C216.519 137.707 216.786 137.523 217.131 137.377C217.476 137.228 217.854 137.154 218.265 137.154C218.881 137.154 219.431 137.299 219.915 137.591C220.399 137.879 220.78 138.277 221.059 138.784C221.337 139.291 221.476 139.871 221.476 140.524C221.476 141.197 221.32 141.797 221.009 142.324C220.701 142.848 220.271 143.26 219.721 143.562C219.174 143.86 218.541 144.009 217.822 144.009ZM228.586 141.961V141.424C228.586 141.03 228.668 140.667 228.834 140.335C229.003 140.004 229.248 139.737 229.57 139.535C229.891 139.333 230.281 139.232 230.738 139.232C231.209 139.232 231.603 139.333 231.921 139.535C232.24 139.734 232.48 139.999 232.642 140.33C232.808 140.662 232.891 141.026 232.891 141.424V141.961C232.891 142.356 232.808 142.718 232.642 143.05C232.477 143.381 232.233 143.648 231.912 143.85C231.593 144.053 231.202 144.154 230.738 144.154C230.274 144.154 229.881 144.053 229.56 143.85C229.238 143.648 228.995 143.381 228.829 143.05C228.667 142.718 228.586 142.356 228.586 141.961ZM229.883 141.424V141.961C229.883 142.223 229.946 142.463 230.072 142.682C230.198 142.901 230.42 143.01 230.738 143.01C231.06 143.01 231.28 142.902 231.399 142.687C231.522 142.468 231.583 142.226 231.583 141.961V141.424C231.583 141.159 231.525 140.917 231.409 140.698C231.293 140.476 231.07 140.365 230.738 140.365C230.427 140.365 230.206 140.476 230.077 140.698C229.948 140.917 229.883 141.159 229.883 141.424ZM223.41 136.134V135.598C223.41 135.2 223.495 134.835 223.664 134.504C223.833 134.172 224.078 133.907 224.399 133.708C224.721 133.506 225.11 133.405 225.568 133.405C226.035 133.405 226.428 133.506 226.746 133.708C227.068 133.907 227.309 134.172 227.472 134.504C227.634 134.835 227.716 135.2 227.716 135.598V136.134C227.716 136.532 227.633 136.897 227.467 137.228C227.305 137.556 227.063 137.82 226.741 138.019C226.42 138.218 226.028 138.317 225.568 138.317C225.1 138.317 224.706 138.218 224.385 138.019C224.066 137.82 223.824 137.555 223.659 137.223C223.493 136.892 223.41 136.529 223.41 136.134ZM224.718 135.598V136.134C224.718 136.4 224.779 136.642 224.902 136.86C225.028 137.076 225.25 137.183 225.568 137.183C225.886 137.183 226.105 137.076 226.224 136.86C226.347 136.642 226.408 136.4 226.408 136.134V135.598C226.408 135.332 226.35 135.09 226.234 134.872C226.118 134.65 225.896 134.539 225.568 134.539C225.253 134.539 225.033 134.65 224.907 134.872C224.781 135.094 224.718 135.336 224.718 135.598ZM223.977 143.87L230.977 133.688H232.22L225.22 143.87H223.977Z" fill="white"/>
<path d="M72.5466 201.697V200.23L76.8669 193.404H78.0899V195.492H77.3441L74.4358 200.101V200.18H80.4663V201.697H72.5466ZM77.4038 203.586V201.249L77.4237 200.593V193.404H79.1638V203.586H77.4038ZM85.5945 203.725C84.9316 203.725 84.3383 203.601 83.8147 203.352C83.291 203.1 82.875 202.756 82.5668 202.318C82.2619 201.881 82.0995 201.38 82.0796 200.817H83.8694C83.9025 201.234 84.0831 201.576 84.4113 201.841C84.7394 202.103 85.1338 202.234 85.5945 202.234C85.9558 202.234 86.2773 202.151 86.559 201.985C86.8407 201.819 87.0628 201.589 87.2252 201.294C87.3876 200.999 87.4671 200.663 87.4638 200.285C87.4671 199.9 87.3859 199.559 87.2202 199.261C87.0545 198.962 86.8275 198.729 86.5391 198.56C86.2508 198.387 85.9193 198.301 85.5448 198.301C85.2399 198.298 84.9399 198.354 84.6449 198.47C84.3499 198.586 84.1163 198.739 83.9439 198.928L82.2785 198.654L82.8104 193.404H88.7167V194.945H84.3367L84.0434 197.645H84.103C84.2919 197.423 84.5588 197.239 84.9035 197.093C85.2482 196.944 85.626 196.869 86.037 196.869C86.6535 196.869 87.2036 197.015 87.6875 197.307C88.1714 197.595 88.5526 197.993 88.831 198.5C89.1094 199.007 89.2486 199.587 89.2486 200.24C89.2486 200.913 89.0928 201.513 88.7813 202.04C88.4731 202.563 88.0438 202.976 87.4937 203.278C86.9468 203.576 86.3137 203.725 85.5945 203.725ZM96.358 201.677V201.14C96.358 200.746 96.4409 200.383 96.6066 200.051C96.7756 199.72 97.0209 199.453 97.3424 199.251C97.6639 199.049 98.0533 198.947 98.5107 198.947C98.9813 198.947 99.3758 199.049 99.6939 199.251C100.012 199.45 100.252 199.715 100.415 200.046C100.581 200.378 100.663 200.742 100.663 201.14V201.677C100.663 202.071 100.581 202.434 100.415 202.766C100.249 203.097 100.005 203.364 99.684 203.566C99.3658 203.768 98.9747 203.869 98.5107 203.869C98.0467 203.869 97.6539 203.768 97.3324 203.566C97.0109 203.364 96.7673 203.097 96.6016 202.766C96.4392 202.434 96.358 202.071 96.358 201.677ZM97.6556 201.14V201.677C97.6556 201.939 97.7186 202.179 97.8445 202.398C97.9705 202.616 98.1925 202.726 98.5107 202.726C98.8322 202.726 99.0526 202.618 99.1719 202.403C99.2946 202.184 99.3559 201.942 99.3559 201.677V201.14C99.3559 200.875 99.2979 200.633 99.1819 200.414C99.0659 200.192 98.8421 200.081 98.5107 200.081C98.1991 200.081 97.9787 200.192 97.8495 200.414C97.7202 200.633 97.6556 200.875 97.6556 201.14ZM91.1826 195.85V195.313C91.1826 194.915 91.2671 194.551 91.4361 194.219C91.6052 193.888 91.8504 193.623 92.1719 193.424C92.4934 193.222 92.8829 193.121 93.3402 193.121C93.8076 193.121 94.2003 193.222 94.5185 193.424C94.84 193.623 95.082 193.888 95.2444 194.219C95.4068 194.551 95.488 194.915 95.488 195.313V195.85C95.488 196.248 95.4051 196.612 95.2394 196.944C95.077 197.272 94.835 197.536 94.5135 197.734C94.192 197.933 93.8009 198.033 93.3402 198.033C92.8729 198.033 92.4785 197.933 92.157 197.734C91.8388 197.536 91.5969 197.27 91.4312 196.939C91.2654 196.607 91.1826 196.245 91.1826 195.85ZM92.4901 195.313V195.85C92.4901 196.115 92.5514 196.357 92.6741 196.576C92.8 196.791 93.0221 196.899 93.3402 196.899C93.6584 196.899 93.8772 196.791 93.9965 196.576C94.1191 196.357 94.1804 196.115 94.1804 195.85V195.313C94.1804 195.048 94.1224 194.806 94.0064 194.587C93.8904 194.365 93.6684 194.254 93.3402 194.254C93.0254 194.254 92.805 194.365 92.679 194.587C92.5531 194.809 92.4901 195.051 92.4901 195.313ZM91.7493 203.586L98.7493 193.404H99.9922L92.9922 203.586H91.7493Z" fill="white"/>
</svg>
