<svg width="27" height="27" viewBox="0 0 27 27" fill="none" xmlns="http://www.w3.org/2000/svg">
<path fill-rule="evenodd" clip-rule="evenodd" d="M13.3325 8.75637C14.5358 8.75637 15.5203 7.77185 15.5203 6.56855C15.5203 5.36526 14.5358 4.38074 13.3325 4.38074C12.1292 4.38074 11.1447 5.36526 11.1447 6.56855C11.1447 7.77185 12.1292 8.75637 13.3325 8.75637ZM13.3325 10.9442C12.1292 10.9442 11.1447 11.9287 11.1447 13.132C11.1447 14.3353 12.1292 15.3198 13.3325 15.3198C14.5358 15.3198 15.5203 14.3353 15.5203 13.132C15.5203 11.9287 14.5358 10.9442 13.3325 10.9442ZM13.3325 17.5077C12.1292 17.5077 11.1447 18.4922 11.1447 19.6955C11.1447 20.8988 12.1292 21.8833 13.3325 21.8833C14.5358 21.8833 15.5203 20.8988 15.5203 19.6955C15.5203 18.4922 14.5358 17.5077 13.3325 17.5077Z" fill="#898989"/>
</svg>
