<svg width="52" height="52" viewBox="0 0 52 52" fill="none" xmlns="http://www.w3.org/2000/svg">
<circle cx="25.6056" cy="25.9897" r="25.446" fill="#5BA1EF"/>
<path fill-rule="evenodd" clip-rule="evenodd" d="M16.6989 14.5389C15.2936 14.5389 14.1543 15.6782 14.1543 17.0835V34.8956C14.1543 36.301 15.2936 37.4402 16.6989 37.4402H34.5111C35.9164 37.4402 37.0557 36.301 37.0557 34.8956V17.0835C37.0557 15.6782 35.9164 14.5389 34.5111 14.5389H16.6989ZM20.5158 27.2619C20.5158 26.5592 19.9462 25.9896 19.2435 25.9896C18.5408 25.9896 17.9712 26.5592 17.9712 27.2619V32.3511C17.9712 33.0538 18.5408 33.6234 19.2435 33.6234C19.9462 33.6234 20.5158 33.0538 20.5158 32.3511V27.2619ZM25.605 22.1727C26.3076 22.1727 26.8773 22.7423 26.8773 23.445V32.3511C26.8773 33.0538 26.3076 33.6234 25.605 33.6234C24.9023 33.6234 24.3327 33.0538 24.3327 32.3511V23.445C24.3327 22.7423 24.9023 22.1727 25.605 22.1727ZM33.2388 19.6281C33.2388 18.9254 32.6691 18.3558 31.9665 18.3558C31.2638 18.3558 30.6942 18.9254 30.6942 19.6281V32.3511C30.6942 33.0538 31.2638 33.6234 31.9665 33.6234C32.6691 33.6234 33.2388 33.0538 33.2388 32.3511V19.6281Z" fill="white"/>
</svg>
