<?xml version="1.0" encoding="utf-8"?>
<!-- Generator: Adobe Illustrator 27.4.1, SVG Export Plug-In . SVG Version: 6.00 Build 0)  -->
<svg version="1.1" id="Layer_1" xmlns="http://www.w3.org/2000/svg" xmlns:xlink="http://www.w3.org/1999/xlink" x="0px" y="0px"
	 viewBox="0 0 31.8 32" style="enable-background:new 0 0 31.8 32;" xml:space="preserve">
<style type="text/css">
	.st0{clip-path:url(#SVGID_00000154413848434483411020000005380980527391182508_);}
	.st1{fill-rule:evenodd;clip-rule:evenodd;fill:#004169;}
	.st2{fill-rule:evenodd;clip-rule:evenodd;fill:#00A8C1;}
</style>
<g>
	<defs>
		<rect id="SVGID_1_" width="31.8" height="32"/>
	</defs>
	<clipPath id="SVGID_00000168822227984771067090000006174228199941699460_">
		<use xlink:href="#SVGID_1_"  style="overflow:visible;"/>
	</clipPath>
	<g style="clip-path:url(#SVGID_00000168822227984771067090000006174228199941699460_);">
		<path class="st1" d="M18.7,13.2l-2.8-2.8L0,26.3V32l15.9-15.9l7,7c1-0.9,1.8-2.1,2.3-3.4L18.7,13.2z"/>
		<path class="st2" d="M15.9,27.7c-1.6,0-3.1-0.3-4.4-0.9v-12l-4,4v10.4c2.4,1.5,5.3,2.4,8.4,2.4c1.3,0,2.6-0.2,3.8-0.5
			c1.4-0.4,2.8-0.9,4.1-1.6c1.2-0.7,2.3-1.5,3.2-2.4c1-0.9,1.8-2,2.5-3.2c1.4-2.4,2.3-5.2,2.3-8.2C31.8,7.1,24.7,0,15.9,0
			C7.2,0,0.1,7.1,0.1,15.9c0,2.3,0.5,4.5,1.4,6.4l3.1-3.1c-0.3-1-0.5-2.1-0.5-3.3C4.1,9.3,9.4,4,15.9,4c6.5,0,11.8,5.3,11.8,11.8
			c0,1.9-0.4,3.6-1.2,5.2c-0.6,1.2-1.4,2.3-2.4,3.3c-1,1-2.1,1.7-3.4,2.3c-1.4,0.6-3,1-4.6,1C16,27.7,16,27.7,15.9,27.7"/>
		<path class="st2" d="M11.5,11.1h-4v6.4l4-4V11.1z"/>
	</g>
</g>
</svg>
