<svg width="339" height="339" viewBox="0 0 339 339" fill="none" xmlns="http://www.w3.org/2000/svg">
<path d="M254.087 254.087C300.863 207.311 300.863 131.472 254.087 84.6959C207.311 37.9197 131.472 37.9197 84.6957 84.6959C37.9196 131.472 37.9196 207.311 84.6957 254.087C131.472 300.863 207.311 300.863 254.087 254.087Z" fill="#00A8C1"/>
<path d="M131.535 149.867H110.94C107.123 149.867 104 152.991 104 156.807V213.891C104 217.708 107.123 220.831 110.94 220.831H131.535C135.352 220.831 138.475 217.708 138.475 213.891V156.807C138.474 152.991 135.351 149.867 131.535 149.867Z" fill="white"/>
<path d="M224.548 162.583H223.317C229.35 162.583 234.286 157.648 234.286 151.614C234.286 145.581 229.35 140.645 223.317 140.645H188.13C192.472 133.81 198.356 122.909 198.356 114.006C198.356 99.9029 190.633 92.0679 185.596 91.1719C180.559 90.2769 176.866 92.9629 175.41 97.2159C173.955 101.469 176.531 109.531 175.534 112.41C173.998 116.845 166.234 122.784 155.711 136.279C146.309 148.338 147.652 162.583 147.652 162.583V182.058V201.533V210.599C147.652 214.355 150.725 217.427 154.48 217.427H219.847C224.218 217.427 227.794 213.852 227.794 209.48C227.794 205.109 224.218 201.533 219.847 201.533H220.966C226.321 201.533 230.704 197.152 230.704 191.796C230.704 186.441 226.322 182.058 220.966 182.058H224.548C229.904 182.058 234.286 177.676 234.286 172.32C234.286 166.966 229.904 162.583 224.548 162.583Z" fill="white"/>
</svg>
