<svg width="163" height="32" viewBox="0 0 163 32" fill="none" xmlns="http://www.w3.org/2000/svg">
<g clip-path="url(#clip0_966_1353)">
<path fill-rule="evenodd" clip-rule="evenodd" d="M18.7482 13.2498L15.9053 10.4069L0 26.3141V32L15.9053 16.0927L22.8814 23.0688C23.8639 22.1198 24.655 20.9755 25.1956 19.6971L18.7482 13.2498Z" fill="#004169"/>
<path fill-rule="evenodd" clip-rule="evenodd" d="M15.9053 27.6794C14.3428 27.6794 12.8513 27.3756 11.4861 26.8252V14.8261L7.46535 18.8469V29.2676C9.90974 30.8084 12.8039 31.6982 15.9053 31.6982C17.2094 31.6982 18.476 31.5403 19.6873 31.2444C21.1295 30.8912 22.4947 30.3408 23.7514 29.6227C24.9351 28.946 26.0242 28.1233 26.9909 27.1763C27.9556 26.2313 28.802 25.166 29.5004 24.002C30.9327 21.6207 31.7554 18.8311 31.7554 15.8481C31.7554 7.09642 24.6589 0 15.9053 0C7.15166 0 0.0552368 7.09642 0.0552368 15.8501C0.0552368 18.1327 0.538591 20.3028 1.40665 22.2639L4.5376 19.1329C4.23773 18.0912 4.07595 16.9884 4.07595 15.8501C4.07595 9.31591 9.37312 4.02072 15.9053 4.02072C22.4375 4.02072 27.7346 9.31788 27.7346 15.8501C27.7346 17.7125 27.3046 19.4742 26.5371 21.0407C25.9334 22.2757 25.1206 23.3884 24.146 24.3354C23.1674 25.2863 22.0232 26.0695 20.7645 26.6377C19.344 27.2789 17.7716 27.6478 16.1184 27.6774C16.0473 27.6774 15.9763 27.6774 15.9033 27.6774" fill="#00A8C1"/>
<path fill-rule="evenodd" clip-rule="evenodd" d="M11.486 11.125H7.46533V17.527L11.486 13.5063V11.125Z" fill="#00A8C1"/>
</g>
<g clip-path="url(#clip1_966_1353)">
<path d="M39 5.21375H41.8801V17.6587H39V5.21375Z" fill="#00A8C1"/>
<path d="M59.7107 17.6587L59.6937 10.191L56.0308 16.3426H54.7335L51.0895 10.3498V17.6568H48.3871V5.21375H50.7699L55.4275 12.9481L60.0133 5.21375H62.3771L62.413 17.6606H59.7107V17.6587Z" fill="#00A8C1"/>
<path d="M80.2418 17.6587L80.2248 10.191L76.5618 16.3426H75.2646L71.6205 10.3498V17.6568H68.9182V5.21375H71.3009L75.9586 12.9481L80.5444 5.21375H82.9082L82.9441 17.6606H80.2418V17.6587Z" fill="#00A8C1"/>
<path d="M88.6627 11.4371C88.6627 7.73824 91.5427 5 95.4723 5C99.4019 5 102.282 7.72122 102.282 11.4371C102.282 15.153 99.383 17.8724 95.4723 17.8724C91.5616 17.8724 88.6627 15.1341 88.6627 11.4371ZM99.366 11.4371C99.366 9.07142 97.6943 7.45458 95.4723 7.45458C93.2503 7.45458 91.5787 9.07331 91.5787 11.4371C91.5787 13.8009 93.2503 15.4197 95.4723 15.4197C97.6943 15.4197 99.366 13.8009 99.366 11.4371Z" fill="#00A8C1"/>
<path d="M110.884 7.5246V10.815H116.644V13.1259H110.884V17.6606H108.004V5.21375H117.41V7.5246H110.886H110.884Z" fill="#004169"/>
<path d="M122.917 5.21375H125.797V17.6587H122.917V5.21375Z" fill="#004169"/>
<path d="M143.717 5.21375V17.6587H141.353L135.148 10.1021V17.6587H132.302V5.21375H134.685L140.873 12.7704V5.21375H143.717Z" fill="#004169"/>
<path d="M150.22 5.21375H155.874C159.946 5.21375 162.737 7.66832 162.737 11.4372C162.737 15.206 159.946 17.6606 155.874 17.6606H150.22V5.21375ZM155.732 15.2949C158.204 15.2949 159.821 13.8199 159.821 11.4372C159.821 9.05446 158.202 7.57944 155.732 7.57944H153.102V15.2949H155.732Z" fill="#004169"/>
<path d="M39 23.3715C39.3839 23.292 39.9342 23.2485 40.458 23.2485C41.2693 23.2485 41.7931 23.3979 42.1599 23.7289C42.4568 23.9898 42.6232 24.3926 42.6232 24.8465C42.6232 25.6237 42.1354 26.1381 41.5151 26.348V26.3744C41.9689 26.5314 42.2394 26.9493 42.3793 27.562C42.5722 28.3827 42.7121 28.95 42.8332 29.177H42.0484C41.9519 29.0106 41.8214 28.5056 41.655 27.7719C41.4811 26.9607 41.1671 26.6543 40.4769 26.6278H39.7602V29.177H39V23.3733V23.3715ZM39.7583 26.0511H40.5355C41.3468 26.0511 41.863 25.6067 41.863 24.9335C41.863 24.1751 41.3127 23.8423 40.5109 23.8329C40.1441 23.8329 39.8831 23.8669 39.7602 23.9028V26.0492L39.7583 26.0511Z" fill="#949494"/>
<path d="M44.1342 27.2027C44.1512 28.2409 44.815 28.6683 45.5827 28.6683C46.133 28.6683 46.4639 28.5719 46.7533 28.4489L46.8838 28.9992C46.6133 29.1222 46.15 29.2602 45.4787 29.2602C44.1777 29.2602 43.4005 28.4054 43.4005 27.1309C43.4005 25.8563 44.1512 24.8522 45.3823 24.8522C46.7608 24.8522 47.1277 26.0662 47.1277 26.8416C47.1277 26.9985 47.1107 27.1214 47.1012 27.199H44.1342V27.2027ZM46.3864 26.6524C46.3959 26.1646 46.186 25.4044 45.3218 25.4044C44.5445 25.4044 44.2041 26.1192 44.1436 26.6524H46.3864Z" fill="#949494"/>
<path d="M50.42 29.1751L50.3595 28.6437H50.333C50.0986 28.9747 49.6428 29.2715 49.0415 29.2715C48.1867 29.2715 47.7499 28.6683 47.7499 28.0575C47.7499 27.0363 48.6576 26.4785 50.2896 26.486V26.399C50.2896 26.0492 50.1931 25.4214 49.3289 25.4214C48.9356 25.4214 48.5252 25.5443 48.2283 25.7353L48.0543 25.2285C48.4042 25.0016 48.9091 24.8522 49.4424 24.8522C50.734 24.8522 51.0479 25.7334 51.0479 26.5806V28.1596C51.0479 28.5265 51.0649 28.8839 51.1178 29.1713H50.42V29.1751ZM50.3066 27.0193C49.4688 27.0023 48.5176 27.1498 48.5176 27.9705C48.5176 28.4679 48.8505 28.7042 49.2419 28.7042C49.7922 28.7042 50.1421 28.3544 50.2631 27.997C50.2896 27.9194 50.3066 27.8306 50.3066 27.753V27.0193Z" fill="#949494"/>
<path d="M52.2884 22.9781H53.0562V29.1751H52.2884V22.9781Z" fill="#949494"/>
<path d="M56.6283 27.2027C56.6453 28.2409 57.3091 28.6683 58.0769 28.6683C58.6272 28.6683 58.9581 28.5719 59.2474 28.4489L59.3779 28.9992C59.1075 29.1222 58.6442 29.2602 57.9729 29.2602C56.6718 29.2602 55.8946 28.4054 55.8946 27.1309C55.8946 25.8563 56.6453 24.8522 57.8764 24.8522C59.255 24.8522 59.6218 26.0662 59.6218 26.8416C59.6218 26.9985 59.6048 27.1214 59.5954 27.199H56.6283V27.2027ZM58.8806 26.6524C58.89 26.1646 58.6801 25.4044 57.8159 25.4044C57.0387 25.4044 56.6983 26.1192 56.6378 26.6524H58.8806Z" fill="#949494"/>
<path d="M60.471 28.3904C60.6979 28.5398 61.0988 28.6948 61.4827 28.6948C62.0405 28.6948 62.3034 28.415 62.3034 28.067C62.3034 27.7191 62.0859 27.4997 61.5186 27.2898C60.7584 27.0194 60.401 26.5996 60.401 26.0947C60.401 25.4139 60.9513 24.8541 61.859 24.8541C62.2864 24.8541 62.6627 24.977 62.8972 25.117L62.7062 25.6748C62.5398 25.5708 62.2334 25.4309 61.842 25.4309C61.3881 25.4309 61.1347 25.6919 61.1347 26.0058C61.1347 26.3556 61.3881 26.5126 61.9384 26.7225C62.6721 27.0024 63.0466 27.3673 63.0466 27.997C63.0466 28.7383 62.4698 29.2622 61.4657 29.2622C61.0023 29.2622 60.575 29.1487 60.2781 28.9747L60.471 28.3904Z" fill="#949494"/>
<path d="M64.9565 23.7384V24.9525H66.0571V25.5368H64.9565V27.8155C64.9565 28.3393 65.1059 28.6362 65.5333 28.6362C65.7337 28.6362 65.8831 28.6097 65.9777 28.5833L66.0117 29.16C65.8623 29.2206 65.6278 29.264 65.3309 29.264C64.9735 29.264 64.6842 29.1506 64.5008 28.9407C64.2833 28.7137 64.2039 28.3393 64.2039 27.842V25.5368H63.5496V24.9525H64.2039V23.9407L64.9546 23.7403L64.9565 23.7384Z" fill="#949494"/>
<path d="M69.2624 29.1751L69.2019 28.6437H69.1755C68.941 28.9747 68.4852 29.2715 67.8839 29.2715C67.0291 29.2715 66.5923 28.6683 66.5923 28.0575C66.5923 27.0363 67.5 26.4785 69.132 26.486V26.399C69.132 26.0492 69.0355 25.4214 68.1713 25.4214C67.778 25.4214 67.3676 25.5443 67.0707 25.7353L66.8967 25.2285C67.2466 25.0016 67.7515 24.8522 68.2848 24.8522C69.5764 24.8522 69.8903 25.7334 69.8903 26.5806V28.1596C69.8903 28.5265 69.9073 28.8839 69.9602 29.1713H69.2624V29.1751ZM69.149 27.0193C68.3112 27.0023 67.36 27.1498 67.36 27.9705C67.36 28.4679 67.6929 28.7042 68.0843 28.7042C68.6346 28.7042 68.9845 28.3544 69.1055 27.997C69.132 27.9194 69.149 27.8306 69.149 27.753V27.0193Z" fill="#949494"/>
<path d="M72.0214 23.7384V24.9525H73.122V25.5368H72.0214V27.8155C72.0214 28.3393 72.1708 28.6362 72.5982 28.6362C72.7987 28.6362 72.9481 28.6097 73.0426 28.5833L73.0766 29.16C72.9273 29.2206 72.6928 29.264 72.3959 29.264C72.0385 29.264 71.7491 29.1506 71.5657 28.9407C71.3482 28.7137 71.2688 28.3393 71.2688 27.842V25.5368H70.6145V24.9525H71.2688V23.9407L72.0196 23.7403L72.0214 23.7384Z" fill="#949494"/>
<path d="M74.3607 27.2027C74.3777 28.2409 75.0415 28.6683 75.8092 28.6683C76.3595 28.6683 76.6904 28.5719 76.9798 28.4489L77.1103 28.9992C76.8398 29.1222 76.3765 29.2602 75.7052 29.2602C74.4042 29.2602 73.627 28.4054 73.627 27.1309C73.627 25.8563 74.3777 24.8522 75.6088 24.8522C76.9892 24.8522 77.3542 26.0662 77.3542 26.8416C77.3542 26.9985 77.3372 27.1214 77.3277 27.199H74.3607V27.2027ZM76.6129 26.6524C76.6205 26.1646 76.4125 25.4044 75.5483 25.4044C74.771 25.4044 74.4306 26.1192 74.3701 26.6524H76.6129Z" fill="#949494"/>
<path d="M80.1586 26.0947C80.1586 25.6578 80.1492 25.3004 80.1246 24.9506H80.7959L80.8299 25.6313H80.8564C81.0909 25.2304 81.4842 24.8541 82.1839 24.8541C82.7588 24.8541 83.1956 25.204 83.3791 25.7013H83.3961C83.5266 25.4668 83.693 25.2815 83.867 25.151C84.1204 24.9581 84.3983 24.8541 84.8011 24.8541C85.359 24.8541 86.1892 25.221 86.1892 26.6884V29.1752H85.4384V26.783C85.4384 25.9717 85.1415 25.482 84.5213 25.482C84.0844 25.482 83.744 25.8053 83.6136 26.1797C83.5795 26.2838 83.553 26.4237 83.553 26.5636V29.1733H82.8023V26.6412C82.8023 25.968 82.5054 25.4801 81.9211 25.4801C81.4407 25.4801 81.0928 25.8639 80.9699 26.2478C80.9264 26.3613 80.9094 26.4918 80.9094 26.6241V29.1733H80.1586V26.0928V26.0947Z" fill="#949494"/>
<path d="M89.7784 29.1751L89.7179 28.6437H89.6914C89.455 28.9747 89.0012 29.2715 88.3998 29.2715C87.5432 29.2715 87.1082 28.6683 87.1082 28.0575C87.1082 27.0363 88.0159 26.4785 89.6479 26.486V26.399C89.6479 26.0492 89.5514 25.4214 88.6872 25.4214C88.2939 25.4214 87.8835 25.5443 87.5866 25.7353L87.4127 25.2285C87.7625 25.0016 88.2674 24.8522 88.8007 24.8522C90.0923 24.8522 90.4062 25.7334 90.4062 26.5806V28.1596C90.4062 28.5265 90.4232 28.8839 90.4762 29.1713H89.7784V29.1751ZM89.6649 27.0193C88.8272 27.0023 87.876 27.1498 87.876 27.9705C87.876 28.4679 88.2069 28.7042 88.6003 28.7042C89.1505 28.7042 89.4985 28.3544 89.6214 27.997C89.6479 27.9194 89.6649 27.8306 89.6649 27.753V27.0193Z" fill="#949494"/>
<path d="M92.5393 23.7384V24.9525H93.638V25.5368H92.5393V27.8155C92.5393 28.3393 92.6868 28.6362 93.1142 28.6362C93.3147 28.6362 93.464 28.6097 93.5605 28.5833L93.5945 29.16C93.447 29.2206 93.2106 29.264 92.9138 29.264C92.5563 29.264 92.267 29.1506 92.0855 28.9407C91.8661 28.7137 91.7886 28.3393 91.7886 27.842V25.5368H91.1343V24.9525H91.7886V23.9407L92.5393 23.7403V23.7384Z" fill="#949494"/>
<path d="M97.4636 29.0182C97.2632 29.1222 96.8169 29.2621 96.2496 29.2621C94.975 29.2621 94.1467 28.3979 94.1467 27.1063C94.1467 25.8147 95.0374 24.8635 96.416 24.8635C96.8698 24.8635 97.2707 24.977 97.4806 25.0829L97.3067 25.6767C97.1232 25.5727 96.8358 25.4762 96.416 25.4762C95.4478 25.4762 94.924 26.191 94.924 27.0742C94.924 28.0518 95.5518 28.6532 96.3895 28.6532C96.8263 28.6532 97.1138 28.5397 97.3312 28.4433L97.4617 29.02L97.4636 29.0182Z" fill="#949494"/>
<path d="M98.3637 22.9781H99.1315V25.6143H99.1485C99.2714 25.3968 99.4624 25.2039 99.6988 25.0734C99.9257 24.9429 100.196 24.8541 100.484 24.8541C101.051 24.8541 101.959 25.2039 101.959 26.6619V29.1751H101.191V26.7489C101.191 26.0681 100.937 25.4914 100.213 25.4914C99.7158 25.4914 99.3225 25.8412 99.1825 26.2591C99.139 26.3631 99.1315 26.4785 99.1315 26.626V29.1751H98.3637V22.9781Z" fill="#949494"/>
<path d="M104.063 23.7649C104.073 24.0258 103.88 24.2357 103.575 24.2357C103.305 24.2357 103.112 24.0258 103.112 23.7649C103.112 23.5039 103.313 23.2845 103.593 23.2845C103.872 23.2845 104.063 23.4945 104.063 23.7649ZM103.209 29.177V24.9524H103.976V29.177H103.209Z" fill="#949494"/>
<path d="M105.253 26.0947C105.253 25.6578 105.243 25.3004 105.219 24.9506H105.9L105.943 25.6484H105.96C106.17 25.2475 106.658 24.8541 107.358 24.8541C107.942 24.8541 108.85 25.204 108.85 26.6525V29.1752H108.082V26.7395C108.082 26.0587 107.828 25.4914 107.104 25.4914C106.597 25.4914 106.204 25.8488 106.074 26.2762C106.04 26.3726 106.023 26.5031 106.023 26.6336V29.1733H105.255V26.0928L105.253 26.0947Z" fill="#949494"/>
<path d="M113.738 24.9505C113.721 25.2569 113.704 25.5972 113.704 26.1116V28.5643C113.704 29.5325 113.511 30.1263 113.101 30.4932C112.69 30.877 112.097 30.9981 111.565 30.9981C111.034 30.9981 110.5 30.877 110.16 30.6482L110.353 30.0639C110.633 30.2379 111.068 30.3948 111.592 30.3948C112.376 30.3948 112.953 29.9845 112.953 28.9198V28.4471H112.936C112.702 28.8404 112.246 29.1543 111.592 29.1543C110.544 29.1543 109.793 28.2636 109.793 27.095C109.793 25.6634 110.727 24.8522 111.696 24.8522C112.429 24.8522 112.83 25.2361 113.014 25.5859H113.031L113.065 24.9486H113.738V24.9505ZM112.944 26.6184C112.944 26.4879 112.934 26.3745 112.9 26.2686C112.76 25.8223 112.386 25.4573 111.826 25.4573C111.092 25.4573 110.569 26.0776 110.569 27.0552C110.569 27.8854 110.988 28.5738 111.817 28.5738C112.288 28.5738 112.715 28.2769 112.881 27.7871C112.925 27.6566 112.942 27.5072 112.942 27.3767V26.6184H112.944Z" fill="#949494"/>
</g>
<defs>
<clipPath id="clip0_966_1353">
<rect width="31.7554" height="32" fill="white"/>
</clipPath>
<clipPath id="clip1_966_1353">
<rect width="123.737" height="26" fill="white" transform="translate(39 5)"/>
</clipPath>
</defs>
</svg>
